%TF.GenerationSoftware,KiCad,Pcbnew,5.1.8-db9833491~88~ubuntu18.04.1*%
%TF.CreationDate,2020-12-20T18:34:58-05:00*%
%TF.ProjectId,PWMMotorController,50574d4d-6f74-46f7-9243-6f6e74726f6c,rev?*%
%TF.SameCoordinates,Original*%
%TF.FileFunction,Copper,L2,Bot*%
%TF.FilePolarity,Positive*%
%FSLAX46Y46*%
G04 Gerber Fmt 4.6, Leading zero omitted, Abs format (unit mm)*
G04 Created by KiCad (PCBNEW 5.1.8-db9833491~88~ubuntu18.04.1) date 2020-12-20 18:34:58*
%MOMM*%
%LPD*%
G01*
G04 APERTURE LIST*
%TA.AperFunction,ComponentPad*%
%ADD10C,1.600000*%
%TD*%
%TA.AperFunction,ComponentPad*%
%ADD11R,2.200000X2.200000*%
%TD*%
%TA.AperFunction,ComponentPad*%
%ADD12O,2.200000X2.200000*%
%TD*%
%TA.AperFunction,ComponentPad*%
%ADD13O,1.050000X1.500000*%
%TD*%
%TA.AperFunction,ComponentPad*%
%ADD14R,1.050000X1.500000*%
%TD*%
%TA.AperFunction,ComponentPad*%
%ADD15C,1.440000*%
%TD*%
%TA.AperFunction,ComponentPad*%
%ADD16C,1.400000*%
%TD*%
%TA.AperFunction,ComponentPad*%
%ADD17O,1.400000X1.400000*%
%TD*%
%TA.AperFunction,ComponentPad*%
%ADD18C,2.000000*%
%TD*%
%TA.AperFunction,ComponentPad*%
%ADD19O,1.600000X1.600000*%
%TD*%
%TA.AperFunction,ComponentPad*%
%ADD20R,1.600000X1.600000*%
%TD*%
%TA.AperFunction,ComponentPad*%
%ADD21R,2.000000X1.905000*%
%TD*%
%TA.AperFunction,ComponentPad*%
%ADD22O,2.000000X1.905000*%
%TD*%
%TA.AperFunction,ComponentPad*%
%ADD23R,2.600000X2.600000*%
%TD*%
%TA.AperFunction,ComponentPad*%
%ADD24C,2.600000*%
%TD*%
%TA.AperFunction,ViaPad*%
%ADD25C,3.000000*%
%TD*%
%TA.AperFunction,ViaPad*%
%ADD26C,0.800000*%
%TD*%
%TA.AperFunction,Conductor*%
%ADD27C,0.250000*%
%TD*%
%TA.AperFunction,Conductor*%
%ADD28C,0.254000*%
%TD*%
%TA.AperFunction,Conductor*%
%ADD29C,0.100000*%
%TD*%
G04 APERTURE END LIST*
D10*
%TO.P,C1,1*%
%TO.N,Net-(C1-Pad1)*%
X116027200Y-95148400D03*
%TO.P,C1,2*%
%TO.N,GND*%
X116027200Y-97648400D03*
%TD*%
%TO.P,C2,2*%
%TO.N,Net-(C2-Pad2)*%
X131408800Y-103378000D03*
%TO.P,C2,1*%
%TO.N,Net-(C2-Pad1)*%
X133908800Y-103378000D03*
%TD*%
%TO.P,C3,1*%
%TO.N,VCtl*%
X136550400Y-103378000D03*
%TO.P,C3,2*%
%TO.N,GND*%
X139050400Y-103378000D03*
%TD*%
%TO.P,C4,1*%
%TO.N,+CrtV*%
X137972800Y-88341200D03*
%TO.P,C4,2*%
%TO.N,GND*%
X135472800Y-88341200D03*
%TD*%
%TO.P,C5,2*%
%TO.N,GND*%
X146039200Y-88341200D03*
%TO.P,C5,1*%
%TO.N,+CrtV*%
X148539200Y-88341200D03*
%TD*%
D11*
%TO.P,D1,1*%
%TO.N,+BatV*%
X155194000Y-109728000D03*
D12*
%TO.P,D1,2*%
%TO.N,Net-(D1-Pad2)*%
X145034000Y-109728000D03*
%TD*%
D13*
%TO.P,Q1,2*%
%TO.N,Net-(J3-Pad2)*%
X147421600Y-105156000D03*
%TO.P,Q1,3*%
%TO.N,Net-(Q1-Pad3)*%
X148691600Y-105156000D03*
D14*
%TO.P,Q1,1*%
%TO.N,Net-(Q1-Pad1)*%
X146151600Y-105156000D03*
%TD*%
D15*
%TO.P,R1,1*%
%TO.N,+CrtV*%
X125780800Y-93218000D03*
%TO.P,R1,2*%
%TO.N,Net-(C1-Pad1)*%
X123240800Y-90678000D03*
%TO.P,R1,3*%
%TO.N,GND*%
X120700800Y-93218000D03*
%TD*%
%TO.P,R2,3*%
%TO.N,Net-(R2-Pad3)*%
X124307600Y-106730800D03*
%TO.P,R2,2*%
%TO.N,Net-(R2-Pad1)*%
X121767600Y-104190800D03*
%TO.P,R2,1*%
X124307600Y-101650800D03*
%TD*%
D16*
%TO.P,R3,1*%
%TO.N,Net-(R2-Pad1)*%
X114706400Y-102819200D03*
D17*
%TO.P,R3,2*%
%TO.N,Net-(C2-Pad1)*%
X114706400Y-110439200D03*
%TD*%
D15*
%TO.P,R4,1*%
%TO.N,Net-(C2-Pad2)*%
X124256800Y-112471200D03*
%TO.P,R4,2*%
X121716800Y-115011200D03*
%TO.P,R4,3*%
%TO.N,Net-(R2-Pad3)*%
X124256800Y-117551200D03*
%TD*%
%TO.P,R5,3*%
%TO.N,GND*%
X137769600Y-113131600D03*
%TO.P,R5,2*%
%TO.N,VCtl*%
X135229600Y-115671600D03*
%TO.P,R5,1*%
%TO.N,+CrtV*%
X132689600Y-113131600D03*
%TD*%
D17*
%TO.P,R6,2*%
%TO.N,VCtl*%
X131165600Y-106121200D03*
D16*
%TO.P,R6,1*%
%TO.N,Net-(R6-Pad1)*%
X138785600Y-106121200D03*
%TD*%
%TO.P,R7,1*%
%TO.N,+BatV*%
X158343600Y-109677200D03*
D17*
%TO.P,R7,2*%
%TO.N,Net-(Q1-Pad3)*%
X165963600Y-109677200D03*
%TD*%
D16*
%TO.P,R8,1*%
%TO.N,Net-(Q1-Pad1)*%
X141884400Y-102768400D03*
D17*
%TO.P,R8,2*%
%TO.N,GND*%
X141884400Y-110388400D03*
%TD*%
D18*
%TO.P,TP1,1*%
%TO.N,Net-(R2-Pad1)*%
X131419600Y-88392000D03*
%TD*%
%TO.P,TP2,1*%
%TO.N,Net-(C2-Pad2)*%
X142189200Y-88442800D03*
%TD*%
%TO.P,TP3,1*%
%TO.N,Net-(J3-Pad2)*%
X152450800Y-88442800D03*
%TD*%
D19*
%TO.P,U1,8*%
%TO.N,+CrtV*%
X139039600Y-92506800D03*
%TO.P,U1,4*%
%TO.N,GND*%
X131419600Y-100126800D03*
%TO.P,U1,7*%
%TO.N,Net-(C2-Pad2)*%
X139039600Y-95046800D03*
%TO.P,U1,3*%
%TO.N,Net-(R2-Pad3)*%
X131419600Y-97586800D03*
%TO.P,U1,6*%
%TO.N,Net-(C2-Pad1)*%
X139039600Y-97586800D03*
%TO.P,U1,2*%
%TO.N,Net-(C1-Pad1)*%
X131419600Y-95046800D03*
%TO.P,U1,5*%
X139039600Y-100126800D03*
D20*
%TO.P,U1,1*%
%TO.N,Net-(R2-Pad1)*%
X131419600Y-92506800D03*
%TD*%
%TO.P,U2,1*%
%TO.N,Net-(R6-Pad1)*%
X141986000Y-92506800D03*
D19*
%TO.P,U2,5*%
X149606000Y-100126800D03*
%TO.P,U2,2*%
%TO.N,Net-(C2-Pad2)*%
X141986000Y-95046800D03*
%TO.P,U2,6*%
%TO.N,Net-(C1-Pad1)*%
X149606000Y-97586800D03*
%TO.P,U2,3*%
%TO.N,VCtl*%
X141986000Y-97586800D03*
%TO.P,U2,7*%
%TO.N,Net-(J3-Pad2)*%
X149606000Y-95046800D03*
%TO.P,U2,4*%
%TO.N,GND*%
X141986000Y-100126800D03*
%TO.P,U2,8*%
%TO.N,+CrtV*%
X149606000Y-92506800D03*
%TD*%
D21*
%TO.P,Q2,1*%
%TO.N,Net-(Q1-Pad1)*%
X152806400Y-99060000D03*
D22*
%TO.P,Q2,2*%
%TO.N,Net-(D1-Pad2)*%
X152806400Y-101600000D03*
%TO.P,Q2,3*%
%TO.N,GND*%
X152806400Y-104140000D03*
%TD*%
D23*
%TO.P,J3,1*%
%TO.N,VCtl*%
X158496000Y-91389200D03*
D24*
%TO.P,J3,2*%
%TO.N,Net-(J3-Pad2)*%
X163496000Y-91389200D03*
%TD*%
D23*
%TO.P,J1,1*%
%TO.N,GND*%
X165150800Y-115976400D03*
D24*
%TO.P,J1,2*%
%TO.N,+CrtV*%
X160150800Y-115976400D03*
%TO.P,J1,3*%
%TO.N,+BatV*%
X155150800Y-115976400D03*
%TD*%
D23*
%TO.P,J2,1*%
%TO.N,+BatV*%
X148844000Y-115976400D03*
D24*
%TO.P,J2,2*%
%TO.N,Net-(D1-Pad2)*%
X143844000Y-115976400D03*
%TD*%
D25*
%TO.N,*%
X115300000Y-89300000D03*
X115300000Y-117700000D03*
X170700000Y-89300000D03*
X170700000Y-117700000D03*
D26*
%TO.N,Net-(D1-Pad2)*%
X157480000Y-97536000D03*
X159512000Y-97536000D03*
X161544000Y-97536000D03*
X163576000Y-97536000D03*
X165608000Y-97536000D03*
X167640000Y-97536000D03*
X169672000Y-97536000D03*
X171704000Y-97536000D03*
X171704000Y-99568000D03*
X167640000Y-99568000D03*
X165608000Y-99568000D03*
X163576000Y-99568000D03*
X161544000Y-99568000D03*
X159512000Y-99517200D03*
X157480000Y-99517200D03*
X157480000Y-101600000D03*
X157480000Y-103632000D03*
X157480000Y-105664000D03*
X159512000Y-101600000D03*
X161544000Y-101600000D03*
X163576000Y-101600000D03*
X165608000Y-101600000D03*
X159512000Y-103632000D03*
X159512000Y-105664000D03*
X161544000Y-103632000D03*
X161544000Y-105664000D03*
X163576000Y-103632000D03*
X165608000Y-103632000D03*
X167640000Y-103632000D03*
X171704000Y-103632000D03*
X163576000Y-105664000D03*
X165608000Y-105664000D03*
X167640000Y-105664000D03*
X169672000Y-105664000D03*
X171704000Y-105664000D03*
X169672000Y-104140000D03*
X169672000Y-99110800D03*
%TD*%
D27*
%TO.N,Net-(C1-Pad1)*%
X149606000Y-97586800D02*
X148031200Y-97586800D01*
X148031200Y-97586800D02*
X144018000Y-101600000D01*
X140512800Y-101600000D02*
X139039600Y-100126800D01*
X144018000Y-101600000D02*
X140512800Y-101600000D01*
X136499600Y-100126800D02*
X131419600Y-95046800D01*
X139039600Y-100126800D02*
X136499600Y-100126800D01*
%TO.N,Net-(C2-Pad1)*%
X134061200Y-113944400D02*
X134061200Y-103581200D01*
X133400800Y-114604800D02*
X134061200Y-113944400D01*
X130251200Y-114604800D02*
X133400800Y-114604800D01*
X114706400Y-110439200D02*
X126085600Y-110439200D01*
X134061200Y-103581200D02*
X133858000Y-103378000D01*
X126085600Y-110439200D02*
X130251200Y-114604800D01*
%TO.N,VCtl*%
X141986000Y-97586800D02*
X148793200Y-90779600D01*
X158496000Y-91389200D02*
X157886400Y-90779600D01*
X157886400Y-90779600D02*
X148793200Y-90779600D01*
%TO.N,Net-(Q1-Pad3)*%
X164033200Y-111607600D02*
X165963600Y-109677200D01*
X152146000Y-111607600D02*
X164033200Y-111607600D01*
X148691600Y-105156000D02*
X148691600Y-108153200D01*
X148691600Y-108153200D02*
X152146000Y-111607600D01*
%TO.N,Net-(R6-Pad1)*%
X148031200Y-100126800D02*
X149606000Y-100126800D01*
X138785600Y-106121200D02*
X142036800Y-106121200D01*
X142036800Y-106121200D02*
X148031200Y-100126800D01*
%TO.N,Net-(J3-Pad2)*%
X151130000Y-96570800D02*
X149606000Y-95046800D01*
X151130000Y-100787200D02*
X151130000Y-96570800D01*
X147421600Y-104495600D02*
X147421600Y-105156000D01*
X151130000Y-100787200D02*
X147421600Y-104495600D01*
%TO.N,+CrtV*%
X125780800Y-103784400D02*
X125780800Y-93218000D01*
X132689600Y-113131600D02*
X132689600Y-110693200D01*
X132689600Y-110693200D02*
X125780800Y-103784400D01*
X136144000Y-86512400D02*
X137972800Y-88341200D01*
X130149600Y-86512400D02*
X136144000Y-86512400D01*
X125780800Y-93218000D02*
X125780800Y-90881200D01*
X125780800Y-90881200D02*
X130149600Y-86512400D01*
%TD*%
D28*
%TO.N,GND*%
X125269798Y-90317401D02*
X125240800Y-90341199D01*
X125217002Y-90370197D01*
X125217001Y-90370198D01*
X125145826Y-90456924D01*
X125075254Y-90588954D01*
X125031798Y-90732215D01*
X125017124Y-90881200D01*
X125020801Y-90918532D01*
X125020800Y-92096171D01*
X124917038Y-92165503D01*
X124728303Y-92354238D01*
X124580015Y-92576167D01*
X124477872Y-92822761D01*
X124425800Y-93084544D01*
X124425800Y-93351456D01*
X124477872Y-93613239D01*
X124580015Y-93859833D01*
X124728303Y-94081762D01*
X124917038Y-94270497D01*
X125020801Y-94339829D01*
X125020800Y-100497701D01*
X124949433Y-100450015D01*
X124702839Y-100347872D01*
X124441056Y-100295800D01*
X124174144Y-100295800D01*
X123912361Y-100347872D01*
X123665767Y-100450015D01*
X123443838Y-100598303D01*
X123255103Y-100787038D01*
X123106815Y-101008967D01*
X123004672Y-101255561D01*
X122952600Y-101517344D01*
X122952600Y-101784256D01*
X123004672Y-102046039D01*
X123106815Y-102292633D01*
X123255103Y-102514562D01*
X123443838Y-102703297D01*
X123665767Y-102851585D01*
X123912361Y-102953728D01*
X124174144Y-103005800D01*
X124441056Y-103005800D01*
X124702839Y-102953728D01*
X124949433Y-102851585D01*
X125020800Y-102803899D01*
X125020800Y-103747078D01*
X125017124Y-103784400D01*
X125020800Y-103821722D01*
X125020800Y-103821732D01*
X125031797Y-103933385D01*
X125050273Y-103994292D01*
X125075254Y-104076646D01*
X125145826Y-104208676D01*
X125151979Y-104216173D01*
X125240799Y-104324401D01*
X125269803Y-104348204D01*
X131929601Y-111008003D01*
X131929600Y-112009771D01*
X131825838Y-112079103D01*
X131637103Y-112267838D01*
X131488815Y-112489767D01*
X131386672Y-112736361D01*
X131334600Y-112998144D01*
X131334600Y-113265056D01*
X131386672Y-113526839D01*
X131488815Y-113773433D01*
X131536501Y-113844800D01*
X130566002Y-113844800D01*
X126649404Y-109928203D01*
X126625601Y-109899199D01*
X126509876Y-109804226D01*
X126377847Y-109733654D01*
X126234586Y-109690197D01*
X126122933Y-109679200D01*
X126122922Y-109679200D01*
X126085600Y-109675524D01*
X126048278Y-109679200D01*
X115804175Y-109679200D01*
X115743362Y-109588187D01*
X115557413Y-109402238D01*
X115338759Y-109256139D01*
X115095805Y-109155504D01*
X114837886Y-109104200D01*
X114574914Y-109104200D01*
X114316995Y-109155504D01*
X114074041Y-109256139D01*
X113855387Y-109402238D01*
X113669438Y-109588187D01*
X113523339Y-109806841D01*
X113422704Y-110049795D01*
X113371400Y-110307714D01*
X113371400Y-110570686D01*
X113422704Y-110828605D01*
X113523339Y-111071559D01*
X113669438Y-111290213D01*
X113855387Y-111476162D01*
X114074041Y-111622261D01*
X114316995Y-111722896D01*
X114574914Y-111774200D01*
X114837886Y-111774200D01*
X115095805Y-111722896D01*
X115338759Y-111622261D01*
X115557413Y-111476162D01*
X115743362Y-111290213D01*
X115804175Y-111199200D01*
X123786895Y-111199200D01*
X123614967Y-111270415D01*
X123393038Y-111418703D01*
X123204303Y-111607438D01*
X123056015Y-111829367D01*
X122953872Y-112075961D01*
X122901800Y-112337744D01*
X122901800Y-112604656D01*
X122953872Y-112866439D01*
X123056015Y-113113033D01*
X123204303Y-113334962D01*
X123393038Y-113523697D01*
X123614967Y-113671985D01*
X123861561Y-113774128D01*
X124123344Y-113826200D01*
X124390256Y-113826200D01*
X124652039Y-113774128D01*
X124898633Y-113671985D01*
X125120562Y-113523697D01*
X125309297Y-113334962D01*
X125457585Y-113113033D01*
X125559728Y-112866439D01*
X125611800Y-112604656D01*
X125611800Y-112337744D01*
X125559728Y-112075961D01*
X125457585Y-111829367D01*
X125309297Y-111607438D01*
X125120562Y-111418703D01*
X124898633Y-111270415D01*
X124726705Y-111199200D01*
X125770799Y-111199200D01*
X129687401Y-115115803D01*
X129711199Y-115144801D01*
X129740197Y-115168599D01*
X129826923Y-115239774D01*
X129895372Y-115276361D01*
X129958953Y-115310346D01*
X130102214Y-115353803D01*
X130213867Y-115364800D01*
X130213877Y-115364800D01*
X130251199Y-115368476D01*
X130288522Y-115364800D01*
X133363478Y-115364800D01*
X133400800Y-115368476D01*
X133438122Y-115364800D01*
X133438133Y-115364800D01*
X133549786Y-115353803D01*
X133693047Y-115310346D01*
X133825076Y-115239774D01*
X133940801Y-115144801D01*
X133964603Y-115115798D01*
X134013386Y-115067015D01*
X133926672Y-115276361D01*
X133874600Y-115538144D01*
X133874600Y-115805056D01*
X133926672Y-116066839D01*
X134028815Y-116313433D01*
X134177103Y-116535362D01*
X134365838Y-116724097D01*
X134587767Y-116872385D01*
X134834361Y-116974528D01*
X135096144Y-117026600D01*
X135363056Y-117026600D01*
X135624839Y-116974528D01*
X135871433Y-116872385D01*
X136093362Y-116724097D01*
X136282097Y-116535362D01*
X136430385Y-116313433D01*
X136532528Y-116066839D01*
X136584600Y-115805056D01*
X136584600Y-115785819D01*
X141909000Y-115785819D01*
X141909000Y-116166981D01*
X141983361Y-116540819D01*
X142129225Y-116892966D01*
X142340987Y-117209891D01*
X142610509Y-117479413D01*
X142927434Y-117691175D01*
X143279581Y-117837039D01*
X143653419Y-117911400D01*
X144034581Y-117911400D01*
X144408419Y-117837039D01*
X144760566Y-117691175D01*
X145077491Y-117479413D01*
X145347013Y-117209891D01*
X145558775Y-116892966D01*
X145704639Y-116540819D01*
X145779000Y-116166981D01*
X145779000Y-115785819D01*
X145704639Y-115411981D01*
X145558775Y-115059834D01*
X145347013Y-114742909D01*
X145280504Y-114676400D01*
X146905928Y-114676400D01*
X146905928Y-117276400D01*
X146918188Y-117400882D01*
X146954498Y-117520580D01*
X147013463Y-117630894D01*
X147092815Y-117727585D01*
X147189506Y-117806937D01*
X147299820Y-117865902D01*
X147419518Y-117902212D01*
X147544000Y-117914472D01*
X150144000Y-117914472D01*
X150268482Y-117902212D01*
X150388180Y-117865902D01*
X150498494Y-117806937D01*
X150595185Y-117727585D01*
X150674537Y-117630894D01*
X150733502Y-117520580D01*
X150769812Y-117400882D01*
X150782072Y-117276400D01*
X150782072Y-115785819D01*
X153215800Y-115785819D01*
X153215800Y-116166981D01*
X153290161Y-116540819D01*
X153436025Y-116892966D01*
X153647787Y-117209891D01*
X153917309Y-117479413D01*
X154234234Y-117691175D01*
X154586381Y-117837039D01*
X154960219Y-117911400D01*
X155341381Y-117911400D01*
X155715219Y-117837039D01*
X156067366Y-117691175D01*
X156384291Y-117479413D01*
X156653813Y-117209891D01*
X156865575Y-116892966D01*
X157011439Y-116540819D01*
X157085800Y-116166981D01*
X157085800Y-115785819D01*
X158215800Y-115785819D01*
X158215800Y-116166981D01*
X158290161Y-116540819D01*
X158436025Y-116892966D01*
X158647787Y-117209891D01*
X158917309Y-117479413D01*
X159234234Y-117691175D01*
X159586381Y-117837039D01*
X159960219Y-117911400D01*
X160341381Y-117911400D01*
X160715219Y-117837039D01*
X161067366Y-117691175D01*
X161384291Y-117479413D01*
X161587304Y-117276400D01*
X163212728Y-117276400D01*
X163224988Y-117400882D01*
X163261298Y-117520580D01*
X163320263Y-117630894D01*
X163399615Y-117727585D01*
X163496306Y-117806937D01*
X163606620Y-117865902D01*
X163726318Y-117902212D01*
X163850800Y-117914472D01*
X164865050Y-117911400D01*
X165023800Y-117752650D01*
X165023800Y-116103400D01*
X165277800Y-116103400D01*
X165277800Y-117752650D01*
X165436550Y-117911400D01*
X166450800Y-117914472D01*
X166575282Y-117902212D01*
X166694980Y-117865902D01*
X166805294Y-117806937D01*
X166901985Y-117727585D01*
X166981337Y-117630894D01*
X167040302Y-117520580D01*
X167049662Y-117489721D01*
X168565000Y-117489721D01*
X168565000Y-117910279D01*
X168647047Y-118322756D01*
X168807988Y-118711302D01*
X169041637Y-119060983D01*
X169339017Y-119358363D01*
X169688698Y-119592012D01*
X170077244Y-119752953D01*
X170489721Y-119835000D01*
X170910279Y-119835000D01*
X171322756Y-119752953D01*
X171711302Y-119592012D01*
X172060983Y-119358363D01*
X172358363Y-119060983D01*
X172592012Y-118711302D01*
X172752953Y-118322756D01*
X172835000Y-117910279D01*
X172835000Y-117489721D01*
X172752953Y-117077244D01*
X172592012Y-116688698D01*
X172358363Y-116339017D01*
X172060983Y-116041637D01*
X171711302Y-115807988D01*
X171322756Y-115647047D01*
X170910279Y-115565000D01*
X170489721Y-115565000D01*
X170077244Y-115647047D01*
X169688698Y-115807988D01*
X169339017Y-116041637D01*
X169041637Y-116339017D01*
X168807988Y-116688698D01*
X168647047Y-117077244D01*
X168565000Y-117489721D01*
X167049662Y-117489721D01*
X167076612Y-117400882D01*
X167088872Y-117276400D01*
X167085800Y-116262150D01*
X166927050Y-116103400D01*
X165277800Y-116103400D01*
X165023800Y-116103400D01*
X163374550Y-116103400D01*
X163215800Y-116262150D01*
X163212728Y-117276400D01*
X161587304Y-117276400D01*
X161653813Y-117209891D01*
X161865575Y-116892966D01*
X162011439Y-116540819D01*
X162085800Y-116166981D01*
X162085800Y-115785819D01*
X162011439Y-115411981D01*
X161865575Y-115059834D01*
X161653813Y-114742909D01*
X161587304Y-114676400D01*
X163212728Y-114676400D01*
X163215800Y-115690650D01*
X163374550Y-115849400D01*
X165023800Y-115849400D01*
X165023800Y-114200150D01*
X165277800Y-114200150D01*
X165277800Y-115849400D01*
X166927050Y-115849400D01*
X167085800Y-115690650D01*
X167088872Y-114676400D01*
X167076612Y-114551918D01*
X167040302Y-114432220D01*
X166981337Y-114321906D01*
X166901985Y-114225215D01*
X166805294Y-114145863D01*
X166694980Y-114086898D01*
X166575282Y-114050588D01*
X166450800Y-114038328D01*
X165436550Y-114041400D01*
X165277800Y-114200150D01*
X165023800Y-114200150D01*
X164865050Y-114041400D01*
X163850800Y-114038328D01*
X163726318Y-114050588D01*
X163606620Y-114086898D01*
X163496306Y-114145863D01*
X163399615Y-114225215D01*
X163320263Y-114321906D01*
X163261298Y-114432220D01*
X163224988Y-114551918D01*
X163212728Y-114676400D01*
X161587304Y-114676400D01*
X161384291Y-114473387D01*
X161067366Y-114261625D01*
X160715219Y-114115761D01*
X160341381Y-114041400D01*
X159960219Y-114041400D01*
X159586381Y-114115761D01*
X159234234Y-114261625D01*
X158917309Y-114473387D01*
X158647787Y-114742909D01*
X158436025Y-115059834D01*
X158290161Y-115411981D01*
X158215800Y-115785819D01*
X157085800Y-115785819D01*
X157011439Y-115411981D01*
X156865575Y-115059834D01*
X156653813Y-114742909D01*
X156384291Y-114473387D01*
X156067366Y-114261625D01*
X155715219Y-114115761D01*
X155341381Y-114041400D01*
X154960219Y-114041400D01*
X154586381Y-114115761D01*
X154234234Y-114261625D01*
X153917309Y-114473387D01*
X153647787Y-114742909D01*
X153436025Y-115059834D01*
X153290161Y-115411981D01*
X153215800Y-115785819D01*
X150782072Y-115785819D01*
X150782072Y-114676400D01*
X150769812Y-114551918D01*
X150733502Y-114432220D01*
X150674537Y-114321906D01*
X150595185Y-114225215D01*
X150498494Y-114145863D01*
X150388180Y-114086898D01*
X150268482Y-114050588D01*
X150144000Y-114038328D01*
X147544000Y-114038328D01*
X147419518Y-114050588D01*
X147299820Y-114086898D01*
X147189506Y-114145863D01*
X147092815Y-114225215D01*
X147013463Y-114321906D01*
X146954498Y-114432220D01*
X146918188Y-114551918D01*
X146905928Y-114676400D01*
X145280504Y-114676400D01*
X145077491Y-114473387D01*
X144760566Y-114261625D01*
X144408419Y-114115761D01*
X144034581Y-114041400D01*
X143653419Y-114041400D01*
X143279581Y-114115761D01*
X142927434Y-114261625D01*
X142610509Y-114473387D01*
X142340987Y-114742909D01*
X142129225Y-115059834D01*
X141983361Y-115411981D01*
X141909000Y-115785819D01*
X136584600Y-115785819D01*
X136584600Y-115538144D01*
X136532528Y-115276361D01*
X136430385Y-115029767D01*
X136282097Y-114807838D01*
X136093362Y-114619103D01*
X135871433Y-114470815D01*
X135624839Y-114368672D01*
X135363056Y-114316600D01*
X135096144Y-114316600D01*
X134834361Y-114368672D01*
X134625012Y-114455388D01*
X134696174Y-114368676D01*
X134766746Y-114236647D01*
X134810203Y-114093386D01*
X134812786Y-114067160D01*
X137013645Y-114067160D01*
X137075532Y-114302968D01*
X137317390Y-114415866D01*
X137576627Y-114479411D01*
X137843280Y-114491161D01*
X138107101Y-114450663D01*
X138357953Y-114359475D01*
X138463668Y-114302968D01*
X138525555Y-114067160D01*
X137769600Y-113311205D01*
X137013645Y-114067160D01*
X134812786Y-114067160D01*
X134821200Y-113981733D01*
X134821200Y-113981725D01*
X134824876Y-113944400D01*
X134821200Y-113907075D01*
X134821200Y-113205280D01*
X136410039Y-113205280D01*
X136450537Y-113469101D01*
X136541725Y-113719953D01*
X136598232Y-113825668D01*
X136834040Y-113887555D01*
X137589995Y-113131600D01*
X137949205Y-113131600D01*
X138705160Y-113887555D01*
X138940968Y-113825668D01*
X139053866Y-113583810D01*
X139117411Y-113324573D01*
X139129161Y-113057920D01*
X139088663Y-112794099D01*
X138997475Y-112543247D01*
X138940968Y-112437532D01*
X138705160Y-112375645D01*
X137949205Y-113131600D01*
X137589995Y-113131600D01*
X136834040Y-112375645D01*
X136598232Y-112437532D01*
X136485334Y-112679390D01*
X136421789Y-112938627D01*
X136410039Y-113205280D01*
X134821200Y-113205280D01*
X134821200Y-112196040D01*
X137013645Y-112196040D01*
X137769600Y-112951995D01*
X138525555Y-112196040D01*
X138463668Y-111960232D01*
X138221810Y-111847334D01*
X137962573Y-111783789D01*
X137695920Y-111772039D01*
X137432099Y-111812537D01*
X137181247Y-111903725D01*
X137075532Y-111960232D01*
X137013645Y-112196040D01*
X134821200Y-112196040D01*
X134821200Y-110721730D01*
X140591678Y-110721730D01*
X140681547Y-110967523D01*
X140817641Y-111191060D01*
X140994730Y-111383751D01*
X141206008Y-111538192D01*
X141443356Y-111648447D01*
X141551071Y-111681116D01*
X141757400Y-111557774D01*
X141757400Y-110515400D01*
X142011400Y-110515400D01*
X142011400Y-111557774D01*
X142217729Y-111681116D01*
X142325444Y-111648447D01*
X142562792Y-111538192D01*
X142774070Y-111383751D01*
X142951159Y-111191060D01*
X143087253Y-110967523D01*
X143177122Y-110721730D01*
X143054601Y-110515400D01*
X142011400Y-110515400D01*
X141757400Y-110515400D01*
X140714199Y-110515400D01*
X140591678Y-110721730D01*
X134821200Y-110721730D01*
X134821200Y-110055070D01*
X140591678Y-110055070D01*
X140714199Y-110261400D01*
X141757400Y-110261400D01*
X141757400Y-109219026D01*
X142011400Y-109219026D01*
X142011400Y-110261400D01*
X143054601Y-110261400D01*
X143177122Y-110055070D01*
X143087253Y-109809277D01*
X142951159Y-109585740D01*
X142924854Y-109557117D01*
X143299000Y-109557117D01*
X143299000Y-109898883D01*
X143365675Y-110234081D01*
X143496463Y-110549831D01*
X143686337Y-110833998D01*
X143928002Y-111075663D01*
X144212169Y-111265537D01*
X144527919Y-111396325D01*
X144863117Y-111463000D01*
X145204883Y-111463000D01*
X145540081Y-111396325D01*
X145855831Y-111265537D01*
X146139998Y-111075663D01*
X146381663Y-110833998D01*
X146571537Y-110549831D01*
X146702325Y-110234081D01*
X146769000Y-109898883D01*
X146769000Y-109557117D01*
X146702325Y-109221919D01*
X146571537Y-108906169D01*
X146381663Y-108622002D01*
X146139998Y-108380337D01*
X145855831Y-108190463D01*
X145540081Y-108059675D01*
X145204883Y-107993000D01*
X144863117Y-107993000D01*
X144527919Y-108059675D01*
X144212169Y-108190463D01*
X143928002Y-108380337D01*
X143686337Y-108622002D01*
X143496463Y-108906169D01*
X143365675Y-109221919D01*
X143299000Y-109557117D01*
X142924854Y-109557117D01*
X142774070Y-109393049D01*
X142562792Y-109238608D01*
X142325444Y-109128353D01*
X142217729Y-109095684D01*
X142011400Y-109219026D01*
X141757400Y-109219026D01*
X141551071Y-109095684D01*
X141443356Y-109128353D01*
X141206008Y-109238608D01*
X140994730Y-109393049D01*
X140817641Y-109585740D01*
X140681547Y-109809277D01*
X140591678Y-110055070D01*
X134821200Y-110055070D01*
X134821200Y-104494213D01*
X134823559Y-104492637D01*
X135023437Y-104292759D01*
X135180480Y-104057727D01*
X135229600Y-103939141D01*
X135278720Y-104057727D01*
X135435763Y-104292759D01*
X135635641Y-104492637D01*
X135870673Y-104649680D01*
X136131826Y-104757853D01*
X136409065Y-104813000D01*
X136691735Y-104813000D01*
X136968974Y-104757853D01*
X137230127Y-104649680D01*
X137465159Y-104492637D01*
X137665037Y-104292759D01*
X137799092Y-104092131D01*
X137813729Y-104119514D01*
X138057698Y-104191097D01*
X138870795Y-103378000D01*
X139230005Y-103378000D01*
X140043102Y-104191097D01*
X140287071Y-104119514D01*
X140407971Y-103864004D01*
X140476700Y-103589816D01*
X140490617Y-103307488D01*
X140449187Y-103027870D01*
X140354003Y-102761708D01*
X140287071Y-102636486D01*
X140043102Y-102564903D01*
X139230005Y-103378000D01*
X138870795Y-103378000D01*
X138057698Y-102564903D01*
X137813729Y-102636486D01*
X137800076Y-102665341D01*
X137665037Y-102463241D01*
X137587094Y-102385298D01*
X138237303Y-102385298D01*
X139050400Y-103198395D01*
X139863497Y-102385298D01*
X139791914Y-102141329D01*
X139536404Y-102020429D01*
X139262216Y-101951700D01*
X138979888Y-101937783D01*
X138700270Y-101979213D01*
X138434108Y-102074397D01*
X138308886Y-102141329D01*
X138237303Y-102385298D01*
X137587094Y-102385298D01*
X137465159Y-102263363D01*
X137230127Y-102106320D01*
X136968974Y-101998147D01*
X136691735Y-101943000D01*
X136409065Y-101943000D01*
X136131826Y-101998147D01*
X135870673Y-102106320D01*
X135635641Y-102263363D01*
X135435763Y-102463241D01*
X135278720Y-102698273D01*
X135229600Y-102816859D01*
X135180480Y-102698273D01*
X135023437Y-102463241D01*
X134823559Y-102263363D01*
X134588527Y-102106320D01*
X134327374Y-101998147D01*
X134050135Y-101943000D01*
X133767465Y-101943000D01*
X133490226Y-101998147D01*
X133229073Y-102106320D01*
X132994041Y-102263363D01*
X132794163Y-102463241D01*
X132658800Y-102665827D01*
X132523437Y-102463241D01*
X132323559Y-102263363D01*
X132088527Y-102106320D01*
X131827374Y-101998147D01*
X131550135Y-101943000D01*
X131267465Y-101943000D01*
X130990226Y-101998147D01*
X130729073Y-102106320D01*
X130494041Y-102263363D01*
X130294163Y-102463241D01*
X130137120Y-102698273D01*
X130028947Y-102959426D01*
X129973800Y-103236665D01*
X129973800Y-103519335D01*
X130028947Y-103796574D01*
X130137120Y-104057727D01*
X130294163Y-104292759D01*
X130494041Y-104492637D01*
X130729073Y-104649680D01*
X130990226Y-104757853D01*
X131132734Y-104786200D01*
X131034114Y-104786200D01*
X130776195Y-104837504D01*
X130533241Y-104938139D01*
X130314587Y-105084238D01*
X130128638Y-105270187D01*
X129982539Y-105488841D01*
X129881904Y-105731795D01*
X129830600Y-105989714D01*
X129830600Y-106252686D01*
X129881904Y-106510605D01*
X129982539Y-106753559D01*
X130128638Y-106972213D01*
X130314587Y-107158162D01*
X130533241Y-107304261D01*
X130776195Y-107404896D01*
X131034114Y-107456200D01*
X131297086Y-107456200D01*
X131555005Y-107404896D01*
X131797959Y-107304261D01*
X132016613Y-107158162D01*
X132202562Y-106972213D01*
X132348661Y-106753559D01*
X132449296Y-106510605D01*
X132500600Y-106252686D01*
X132500600Y-105989714D01*
X132449296Y-105731795D01*
X132348661Y-105488841D01*
X132202562Y-105270187D01*
X132016613Y-105084238D01*
X131797959Y-104938139D01*
X131555005Y-104837504D01*
X131431817Y-104813000D01*
X131550135Y-104813000D01*
X131827374Y-104757853D01*
X132088527Y-104649680D01*
X132323559Y-104492637D01*
X132523437Y-104292759D01*
X132658800Y-104090173D01*
X132794163Y-104292759D01*
X132994041Y-104492637D01*
X133229073Y-104649680D01*
X133301201Y-104679556D01*
X133301200Y-110240443D01*
X133229601Y-110153199D01*
X133200603Y-110129401D01*
X126540800Y-103469599D01*
X126540800Y-100475839D01*
X130027696Y-100475839D01*
X130068354Y-100609887D01*
X130188563Y-100864220D01*
X130356081Y-101090214D01*
X130564469Y-101279185D01*
X130805719Y-101423870D01*
X131070560Y-101518709D01*
X131292600Y-101397424D01*
X131292600Y-100253800D01*
X131546600Y-100253800D01*
X131546600Y-101397424D01*
X131768640Y-101518709D01*
X132033481Y-101423870D01*
X132274731Y-101279185D01*
X132483119Y-101090214D01*
X132650637Y-100864220D01*
X132770846Y-100609887D01*
X132811504Y-100475839D01*
X132689515Y-100253800D01*
X131546600Y-100253800D01*
X131292600Y-100253800D01*
X130149685Y-100253800D01*
X130027696Y-100475839D01*
X126540800Y-100475839D01*
X126540800Y-94339828D01*
X126644562Y-94270497D01*
X126833297Y-94081762D01*
X126981585Y-93859833D01*
X127083728Y-93613239D01*
X127135800Y-93351456D01*
X127135800Y-93084544D01*
X127083728Y-92822761D01*
X126981585Y-92576167D01*
X126833297Y-92354238D01*
X126644562Y-92165503D01*
X126540800Y-92096172D01*
X126540800Y-91706800D01*
X129981528Y-91706800D01*
X129981528Y-93306800D01*
X129993788Y-93431282D01*
X130030098Y-93550980D01*
X130089063Y-93661294D01*
X130168415Y-93757985D01*
X130265106Y-93837337D01*
X130375420Y-93896302D01*
X130495118Y-93932612D01*
X130503561Y-93933443D01*
X130304963Y-94132041D01*
X130147920Y-94367073D01*
X130039747Y-94628226D01*
X129984600Y-94905465D01*
X129984600Y-95188135D01*
X130039747Y-95465374D01*
X130147920Y-95726527D01*
X130304963Y-95961559D01*
X130504841Y-96161437D01*
X130737359Y-96316800D01*
X130504841Y-96472163D01*
X130304963Y-96672041D01*
X130147920Y-96907073D01*
X130039747Y-97168226D01*
X129984600Y-97445465D01*
X129984600Y-97728135D01*
X130039747Y-98005374D01*
X130147920Y-98266527D01*
X130304963Y-98501559D01*
X130504841Y-98701437D01*
X130739873Y-98858480D01*
X130750465Y-98862867D01*
X130564469Y-98974415D01*
X130356081Y-99163386D01*
X130188563Y-99389380D01*
X130068354Y-99643713D01*
X130027696Y-99777761D01*
X130149685Y-99999800D01*
X131292600Y-99999800D01*
X131292600Y-99979800D01*
X131546600Y-99979800D01*
X131546600Y-99999800D01*
X132689515Y-99999800D01*
X132811504Y-99777761D01*
X132770846Y-99643713D01*
X132650637Y-99389380D01*
X132483119Y-99163386D01*
X132274731Y-98974415D01*
X132088735Y-98862867D01*
X132099327Y-98858480D01*
X132334359Y-98701437D01*
X132534237Y-98501559D01*
X132691280Y-98266527D01*
X132799453Y-98005374D01*
X132854600Y-97728135D01*
X132854600Y-97556601D01*
X135935800Y-100637802D01*
X135959599Y-100666801D01*
X135988597Y-100690599D01*
X136075323Y-100761774D01*
X136192734Y-100824532D01*
X136207353Y-100832346D01*
X136350614Y-100875803D01*
X136462267Y-100886800D01*
X136462277Y-100886800D01*
X136499600Y-100890476D01*
X136536923Y-100886800D01*
X137821557Y-100886800D01*
X137924963Y-101041559D01*
X138124841Y-101241437D01*
X138359873Y-101398480D01*
X138621026Y-101506653D01*
X138898265Y-101561800D01*
X139180935Y-101561800D01*
X139363486Y-101525488D01*
X139949005Y-102111008D01*
X139972799Y-102140001D01*
X140001792Y-102163795D01*
X140001796Y-102163799D01*
X140058640Y-102210449D01*
X140088524Y-102234974D01*
X140220553Y-102305546D01*
X140363814Y-102349003D01*
X140475467Y-102360000D01*
X140475476Y-102360000D01*
X140512799Y-102363676D01*
X140550122Y-102360000D01*
X140608572Y-102360000D01*
X140600704Y-102378995D01*
X140549400Y-102636914D01*
X140549400Y-102899886D01*
X140600704Y-103157805D01*
X140701339Y-103400759D01*
X140847438Y-103619413D01*
X141033387Y-103805362D01*
X141252041Y-103951461D01*
X141494995Y-104052096D01*
X141752914Y-104103400D01*
X142015886Y-104103400D01*
X142273805Y-104052096D01*
X142516759Y-103951461D01*
X142735413Y-103805362D01*
X142921362Y-103619413D01*
X143067461Y-103400759D01*
X143168096Y-103157805D01*
X143219400Y-102899886D01*
X143219400Y-102636914D01*
X143168096Y-102378995D01*
X143160228Y-102360000D01*
X143980678Y-102360000D01*
X144018000Y-102363676D01*
X144055322Y-102360000D01*
X144055333Y-102360000D01*
X144166986Y-102349003D01*
X144310247Y-102305546D01*
X144442276Y-102234974D01*
X144558001Y-102140001D01*
X144581804Y-102110997D01*
X148346002Y-98346800D01*
X148387957Y-98346800D01*
X148491363Y-98501559D01*
X148691241Y-98701437D01*
X148923759Y-98856800D01*
X148691241Y-99012163D01*
X148491363Y-99212041D01*
X148387957Y-99366800D01*
X148068525Y-99366800D01*
X148031200Y-99363124D01*
X147993875Y-99366800D01*
X147993867Y-99366800D01*
X147882214Y-99377797D01*
X147738953Y-99421254D01*
X147606924Y-99491826D01*
X147491199Y-99586799D01*
X147467401Y-99615797D01*
X141721999Y-105361200D01*
X139883375Y-105361200D01*
X139822562Y-105270187D01*
X139636613Y-105084238D01*
X139417959Y-104938139D01*
X139175005Y-104837504D01*
X139063921Y-104815408D01*
X139120912Y-104818217D01*
X139400530Y-104776787D01*
X139666692Y-104681603D01*
X139791914Y-104614671D01*
X139863497Y-104370702D01*
X139050400Y-103557605D01*
X138237303Y-104370702D01*
X138308886Y-104614671D01*
X138564396Y-104735571D01*
X138766376Y-104786200D01*
X138654114Y-104786200D01*
X138396195Y-104837504D01*
X138153241Y-104938139D01*
X137934587Y-105084238D01*
X137748638Y-105270187D01*
X137602539Y-105488841D01*
X137501904Y-105731795D01*
X137450600Y-105989714D01*
X137450600Y-106252686D01*
X137501904Y-106510605D01*
X137602539Y-106753559D01*
X137748638Y-106972213D01*
X137934587Y-107158162D01*
X138153241Y-107304261D01*
X138396195Y-107404896D01*
X138654114Y-107456200D01*
X138917086Y-107456200D01*
X139175005Y-107404896D01*
X139417959Y-107304261D01*
X139636613Y-107158162D01*
X139822562Y-106972213D01*
X139883375Y-106881200D01*
X141999478Y-106881200D01*
X142036800Y-106884876D01*
X142074122Y-106881200D01*
X142074133Y-106881200D01*
X142185786Y-106870203D01*
X142329047Y-106826746D01*
X142461076Y-106756174D01*
X142576801Y-106661201D01*
X142600604Y-106632197D01*
X145022344Y-104210457D01*
X145000788Y-104281518D01*
X144988528Y-104406000D01*
X144988528Y-105906000D01*
X145000788Y-106030482D01*
X145037098Y-106150180D01*
X145096063Y-106260494D01*
X145175415Y-106357185D01*
X145272106Y-106436537D01*
X145382420Y-106495502D01*
X145502118Y-106531812D01*
X145626600Y-106544072D01*
X146676600Y-106544072D01*
X146801082Y-106531812D01*
X146920780Y-106495502D01*
X146985502Y-106460907D01*
X147194201Y-106524215D01*
X147421600Y-106546612D01*
X147649000Y-106524215D01*
X147867660Y-106457885D01*
X147931600Y-106423708D01*
X147931601Y-108115868D01*
X147927924Y-108153200D01*
X147942598Y-108302185D01*
X147986054Y-108445446D01*
X148056626Y-108577476D01*
X148108134Y-108640238D01*
X148151600Y-108693201D01*
X148180598Y-108716999D01*
X151582201Y-112118603D01*
X151605999Y-112147601D01*
X151721724Y-112242574D01*
X151853753Y-112313146D01*
X151997014Y-112356603D01*
X152108667Y-112367600D01*
X152108676Y-112367600D01*
X152145999Y-112371276D01*
X152183322Y-112367600D01*
X163995878Y-112367600D01*
X164033200Y-112371276D01*
X164070522Y-112367600D01*
X164070533Y-112367600D01*
X164182186Y-112356603D01*
X164325447Y-112313146D01*
X164457476Y-112242574D01*
X164573201Y-112147601D01*
X164597004Y-112118597D01*
X165724757Y-110990845D01*
X165832114Y-111012200D01*
X166095086Y-111012200D01*
X166353005Y-110960896D01*
X166595959Y-110860261D01*
X166814613Y-110714162D01*
X167000562Y-110528213D01*
X167146661Y-110309559D01*
X167247296Y-110066605D01*
X167298600Y-109808686D01*
X167298600Y-109545714D01*
X167247296Y-109287795D01*
X167146661Y-109044841D01*
X167000562Y-108826187D01*
X166814613Y-108640238D01*
X166595959Y-108494139D01*
X166353005Y-108393504D01*
X166095086Y-108342200D01*
X165832114Y-108342200D01*
X165574195Y-108393504D01*
X165331241Y-108494139D01*
X165112587Y-108640238D01*
X164926638Y-108826187D01*
X164780539Y-109044841D01*
X164679904Y-109287795D01*
X164628600Y-109545714D01*
X164628600Y-109808686D01*
X164649955Y-109916043D01*
X163718399Y-110847600D01*
X158994908Y-110847600D01*
X159194613Y-110714162D01*
X159380562Y-110528213D01*
X159526661Y-110309559D01*
X159627296Y-110066605D01*
X159678600Y-109808686D01*
X159678600Y-109545714D01*
X159627296Y-109287795D01*
X159526661Y-109044841D01*
X159380562Y-108826187D01*
X159194613Y-108640238D01*
X158975959Y-108494139D01*
X158733005Y-108393504D01*
X158475086Y-108342200D01*
X158212114Y-108342200D01*
X157954195Y-108393504D01*
X157711241Y-108494139D01*
X157492587Y-108640238D01*
X157306638Y-108826187D01*
X157160539Y-109044841D01*
X157059904Y-109287795D01*
X157008600Y-109545714D01*
X157008600Y-109808686D01*
X157059904Y-110066605D01*
X157160539Y-110309559D01*
X157306638Y-110528213D01*
X157492587Y-110714162D01*
X157692292Y-110847600D01*
X156930142Y-110847600D01*
X156932072Y-110828000D01*
X156932072Y-108628000D01*
X156919812Y-108503518D01*
X156883502Y-108383820D01*
X156824537Y-108273506D01*
X156745185Y-108176815D01*
X156648494Y-108097463D01*
X156538180Y-108038498D01*
X156418482Y-108002188D01*
X156294000Y-107989928D01*
X154094000Y-107989928D01*
X153969518Y-108002188D01*
X153849820Y-108038498D01*
X153739506Y-108097463D01*
X153642815Y-108176815D01*
X153563463Y-108273506D01*
X153504498Y-108383820D01*
X153468188Y-108503518D01*
X153455928Y-108628000D01*
X153455928Y-110828000D01*
X153457858Y-110847600D01*
X152460802Y-110847600D01*
X149451600Y-107838399D01*
X149451600Y-106257909D01*
X149515812Y-106205212D01*
X149660771Y-106028579D01*
X149768485Y-105827059D01*
X149834815Y-105608399D01*
X149851600Y-105437978D01*
X149851600Y-104874021D01*
X149834815Y-104703600D01*
X149776991Y-104512980D01*
X151215837Y-104512980D01*
X151286829Y-104731094D01*
X151430431Y-105006923D01*
X151625085Y-105249437D01*
X151863311Y-105449316D01*
X152135954Y-105598879D01*
X152432537Y-105692378D01*
X152679400Y-105565570D01*
X152679400Y-104267000D01*
X152933400Y-104267000D01*
X152933400Y-105565570D01*
X153180263Y-105692378D01*
X153476846Y-105598879D01*
X153749489Y-105449316D01*
X153987715Y-105249437D01*
X154182369Y-105006923D01*
X154325971Y-104731094D01*
X154396963Y-104512980D01*
X154276994Y-104267000D01*
X152933400Y-104267000D01*
X152679400Y-104267000D01*
X151335806Y-104267000D01*
X151215837Y-104512980D01*
X149776991Y-104512980D01*
X149768485Y-104484940D01*
X149660771Y-104283421D01*
X149515812Y-104106788D01*
X149339178Y-103961829D01*
X149137807Y-103854194D01*
X151184187Y-101807815D01*
X151194370Y-101911204D01*
X151285145Y-102210449D01*
X151432555Y-102486235D01*
X151630937Y-102727963D01*
X151810299Y-102875163D01*
X151625085Y-103030563D01*
X151430431Y-103273077D01*
X151286829Y-103548906D01*
X151215837Y-103767020D01*
X151335806Y-104013000D01*
X152679400Y-104013000D01*
X152679400Y-103993000D01*
X152933400Y-103993000D01*
X152933400Y-104013000D01*
X154276994Y-104013000D01*
X154396963Y-103767020D01*
X154325971Y-103548906D01*
X154182369Y-103273077D01*
X153987715Y-103030563D01*
X153802501Y-102875163D01*
X153981863Y-102727963D01*
X154180245Y-102486235D01*
X154327655Y-102210449D01*
X154418430Y-101911204D01*
X154449081Y-101600000D01*
X154418430Y-101288796D01*
X154327655Y-100989551D01*
X154180245Y-100713765D01*
X154076954Y-100587905D01*
X154160894Y-100543037D01*
X154257585Y-100463685D01*
X154336937Y-100366994D01*
X154395902Y-100256680D01*
X154432212Y-100136982D01*
X154444472Y-100012500D01*
X154444472Y-98107500D01*
X154432212Y-97983018D01*
X154395902Y-97863320D01*
X154336937Y-97753006D01*
X154257585Y-97656315D01*
X154160894Y-97576963D01*
X154050580Y-97517998D01*
X153930882Y-97481688D01*
X153806400Y-97469428D01*
X151890000Y-97469428D01*
X151890000Y-96608122D01*
X151893676Y-96570799D01*
X151890000Y-96533476D01*
X151890000Y-96533467D01*
X151883671Y-96469200D01*
X155879800Y-96469200D01*
X155879800Y-106730800D01*
X155892001Y-106854682D01*
X155928136Y-106973804D01*
X155986817Y-107083587D01*
X156065787Y-107179813D01*
X156162013Y-107258783D01*
X156271796Y-107317464D01*
X156390918Y-107353599D01*
X156514800Y-107365800D01*
X172364400Y-107365800D01*
X172488282Y-107353599D01*
X172607404Y-107317464D01*
X172717187Y-107258783D01*
X172813413Y-107179813D01*
X172892383Y-107083587D01*
X172951064Y-106973804D01*
X172987199Y-106854682D01*
X172999400Y-106730800D01*
X172999400Y-96469200D01*
X172987199Y-96345318D01*
X172951064Y-96226196D01*
X172892383Y-96116413D01*
X172813413Y-96020187D01*
X172717187Y-95941217D01*
X172607404Y-95882536D01*
X172488282Y-95846401D01*
X172364400Y-95834200D01*
X156514800Y-95834200D01*
X156390918Y-95846401D01*
X156271796Y-95882536D01*
X156162013Y-95941217D01*
X156065787Y-96020187D01*
X155986817Y-96116413D01*
X155928136Y-96226196D01*
X155892001Y-96345318D01*
X155879800Y-96469200D01*
X151883671Y-96469200D01*
X151879003Y-96421814D01*
X151835546Y-96278553D01*
X151764974Y-96146524D01*
X151740263Y-96116413D01*
X151693799Y-96059796D01*
X151693795Y-96059792D01*
X151670001Y-96030799D01*
X151641008Y-96007005D01*
X151004688Y-95370686D01*
X151041000Y-95188135D01*
X151041000Y-94905465D01*
X150985853Y-94628226D01*
X150877680Y-94367073D01*
X150720637Y-94132041D01*
X150520759Y-93932163D01*
X150288241Y-93776800D01*
X150520759Y-93621437D01*
X150720637Y-93421559D01*
X150877680Y-93186527D01*
X150985853Y-92925374D01*
X151041000Y-92648135D01*
X151041000Y-92365465D01*
X150985853Y-92088226D01*
X150877680Y-91827073D01*
X150720637Y-91592041D01*
X150668196Y-91539600D01*
X156557928Y-91539600D01*
X156557928Y-92689200D01*
X156570188Y-92813682D01*
X156606498Y-92933380D01*
X156665463Y-93043694D01*
X156744815Y-93140385D01*
X156841506Y-93219737D01*
X156951820Y-93278702D01*
X157071518Y-93315012D01*
X157196000Y-93327272D01*
X159796000Y-93327272D01*
X159920482Y-93315012D01*
X160040180Y-93278702D01*
X160150494Y-93219737D01*
X160247185Y-93140385D01*
X160326537Y-93043694D01*
X160385502Y-92933380D01*
X160421812Y-92813682D01*
X160434072Y-92689200D01*
X160434072Y-91198619D01*
X161561000Y-91198619D01*
X161561000Y-91579781D01*
X161635361Y-91953619D01*
X161781225Y-92305766D01*
X161992987Y-92622691D01*
X162262509Y-92892213D01*
X162579434Y-93103975D01*
X162931581Y-93249839D01*
X163305419Y-93324200D01*
X163686581Y-93324200D01*
X164060419Y-93249839D01*
X164412566Y-93103975D01*
X164729491Y-92892213D01*
X164999013Y-92622691D01*
X165210775Y-92305766D01*
X165356639Y-91953619D01*
X165431000Y-91579781D01*
X165431000Y-91198619D01*
X165356639Y-90824781D01*
X165210775Y-90472634D01*
X164999013Y-90155709D01*
X164729491Y-89886187D01*
X164412566Y-89674425D01*
X164060419Y-89528561D01*
X163686581Y-89454200D01*
X163305419Y-89454200D01*
X162931581Y-89528561D01*
X162579434Y-89674425D01*
X162262509Y-89886187D01*
X161992987Y-90155709D01*
X161781225Y-90472634D01*
X161635361Y-90824781D01*
X161561000Y-91198619D01*
X160434072Y-91198619D01*
X160434072Y-90089200D01*
X160421812Y-89964718D01*
X160385502Y-89845020D01*
X160326537Y-89734706D01*
X160247185Y-89638015D01*
X160150494Y-89558663D01*
X160040180Y-89499698D01*
X159920482Y-89463388D01*
X159796000Y-89451128D01*
X157196000Y-89451128D01*
X157071518Y-89463388D01*
X156951820Y-89499698D01*
X156841506Y-89558663D01*
X156744815Y-89638015D01*
X156665463Y-89734706D01*
X156606498Y-89845020D01*
X156570188Y-89964718D01*
X156564783Y-90019600D01*
X152904425Y-90019600D01*
X152927712Y-90014968D01*
X153225263Y-89891718D01*
X153493052Y-89712787D01*
X153720787Y-89485052D01*
X153899718Y-89217263D01*
X153952547Y-89089721D01*
X168565000Y-89089721D01*
X168565000Y-89510279D01*
X168647047Y-89922756D01*
X168807988Y-90311302D01*
X169041637Y-90660983D01*
X169339017Y-90958363D01*
X169688698Y-91192012D01*
X170077244Y-91352953D01*
X170489721Y-91435000D01*
X170910279Y-91435000D01*
X171322756Y-91352953D01*
X171711302Y-91192012D01*
X172060983Y-90958363D01*
X172358363Y-90660983D01*
X172592012Y-90311302D01*
X172752953Y-89922756D01*
X172835000Y-89510279D01*
X172835000Y-89089721D01*
X172752953Y-88677244D01*
X172592012Y-88288698D01*
X172358363Y-87939017D01*
X172060983Y-87641637D01*
X171711302Y-87407988D01*
X171322756Y-87247047D01*
X170910279Y-87165000D01*
X170489721Y-87165000D01*
X170077244Y-87247047D01*
X169688698Y-87407988D01*
X169339017Y-87641637D01*
X169041637Y-87939017D01*
X168807988Y-88288698D01*
X168647047Y-88677244D01*
X168565000Y-89089721D01*
X153952547Y-89089721D01*
X154022968Y-88919712D01*
X154085800Y-88603833D01*
X154085800Y-88281767D01*
X154022968Y-87965888D01*
X153899718Y-87668337D01*
X153720787Y-87400548D01*
X153493052Y-87172813D01*
X153225263Y-86993882D01*
X152927712Y-86870632D01*
X152611833Y-86807800D01*
X152289767Y-86807800D01*
X151973888Y-86870632D01*
X151676337Y-86993882D01*
X151408548Y-87172813D01*
X151180813Y-87400548D01*
X151001882Y-87668337D01*
X150878632Y-87965888D01*
X150815800Y-88281767D01*
X150815800Y-88603833D01*
X150878632Y-88919712D01*
X151001882Y-89217263D01*
X151180813Y-89485052D01*
X151408548Y-89712787D01*
X151676337Y-89891718D01*
X151973888Y-90014968D01*
X151997175Y-90019600D01*
X148830533Y-90019600D01*
X148793200Y-90015923D01*
X148755867Y-90019600D01*
X148644214Y-90030597D01*
X148500953Y-90074054D01*
X148368924Y-90144626D01*
X148253199Y-90239599D01*
X148229401Y-90268597D01*
X143421000Y-95076999D01*
X143421000Y-94905465D01*
X143365853Y-94628226D01*
X143257680Y-94367073D01*
X143100637Y-94132041D01*
X142902039Y-93933443D01*
X142910482Y-93932612D01*
X143030180Y-93896302D01*
X143140494Y-93837337D01*
X143237185Y-93757985D01*
X143316537Y-93661294D01*
X143375502Y-93550980D01*
X143411812Y-93431282D01*
X143424072Y-93306800D01*
X143424072Y-91706800D01*
X143411812Y-91582318D01*
X143375502Y-91462620D01*
X143316537Y-91352306D01*
X143237185Y-91255615D01*
X143140494Y-91176263D01*
X143030180Y-91117298D01*
X142910482Y-91080988D01*
X142786000Y-91068728D01*
X141186000Y-91068728D01*
X141061518Y-91080988D01*
X140941820Y-91117298D01*
X140831506Y-91176263D01*
X140734815Y-91255615D01*
X140655463Y-91352306D01*
X140596498Y-91462620D01*
X140560188Y-91582318D01*
X140547928Y-91706800D01*
X140547928Y-93306800D01*
X140560188Y-93431282D01*
X140596498Y-93550980D01*
X140655463Y-93661294D01*
X140734815Y-93757985D01*
X140831506Y-93837337D01*
X140941820Y-93896302D01*
X141061518Y-93932612D01*
X141069961Y-93933443D01*
X140871363Y-94132041D01*
X140714320Y-94367073D01*
X140606147Y-94628226D01*
X140551000Y-94905465D01*
X140551000Y-95188135D01*
X140606147Y-95465374D01*
X140714320Y-95726527D01*
X140871363Y-95961559D01*
X141071241Y-96161437D01*
X141303759Y-96316800D01*
X141071241Y-96472163D01*
X140871363Y-96672041D01*
X140714320Y-96907073D01*
X140606147Y-97168226D01*
X140551000Y-97445465D01*
X140551000Y-97728135D01*
X140606147Y-98005374D01*
X140714320Y-98266527D01*
X140871363Y-98501559D01*
X141071241Y-98701437D01*
X141306273Y-98858480D01*
X141316865Y-98862867D01*
X141130869Y-98974415D01*
X140922481Y-99163386D01*
X140754963Y-99389380D01*
X140634754Y-99643713D01*
X140594096Y-99777761D01*
X140716085Y-99999800D01*
X141859000Y-99999800D01*
X141859000Y-99979800D01*
X142113000Y-99979800D01*
X142113000Y-99999800D01*
X143255915Y-99999800D01*
X143377904Y-99777761D01*
X143337246Y-99643713D01*
X143217037Y-99389380D01*
X143049519Y-99163386D01*
X142841131Y-98974415D01*
X142655135Y-98862867D01*
X142665727Y-98858480D01*
X142900759Y-98701437D01*
X143100637Y-98501559D01*
X143257680Y-98266527D01*
X143365853Y-98005374D01*
X143421000Y-97728135D01*
X143421000Y-97445465D01*
X143384688Y-97262913D01*
X148171000Y-92476602D01*
X148171000Y-92648135D01*
X148226147Y-92925374D01*
X148334320Y-93186527D01*
X148491363Y-93421559D01*
X148691241Y-93621437D01*
X148923759Y-93776800D01*
X148691241Y-93932163D01*
X148491363Y-94132041D01*
X148334320Y-94367073D01*
X148226147Y-94628226D01*
X148171000Y-94905465D01*
X148171000Y-95188135D01*
X148226147Y-95465374D01*
X148334320Y-95726527D01*
X148491363Y-95961559D01*
X148691241Y-96161437D01*
X148923759Y-96316800D01*
X148691241Y-96472163D01*
X148491363Y-96672041D01*
X148387957Y-96826800D01*
X148068523Y-96826800D01*
X148031200Y-96823124D01*
X147993877Y-96826800D01*
X147993867Y-96826800D01*
X147882214Y-96837797D01*
X147738953Y-96881254D01*
X147606924Y-96951826D01*
X147491199Y-97046799D01*
X147467401Y-97075797D01*
X143703199Y-100840000D01*
X143228484Y-100840000D01*
X143337246Y-100609887D01*
X143377904Y-100475839D01*
X143255915Y-100253800D01*
X142113000Y-100253800D01*
X142113000Y-100273800D01*
X141859000Y-100273800D01*
X141859000Y-100253800D01*
X140716085Y-100253800D01*
X140594096Y-100475839D01*
X140634754Y-100609887D01*
X140668152Y-100680550D01*
X140438288Y-100450686D01*
X140474600Y-100268135D01*
X140474600Y-99985465D01*
X140419453Y-99708226D01*
X140311280Y-99447073D01*
X140154237Y-99212041D01*
X139954359Y-99012163D01*
X139721841Y-98856800D01*
X139954359Y-98701437D01*
X140154237Y-98501559D01*
X140311280Y-98266527D01*
X140419453Y-98005374D01*
X140474600Y-97728135D01*
X140474600Y-97445465D01*
X140419453Y-97168226D01*
X140311280Y-96907073D01*
X140154237Y-96672041D01*
X139954359Y-96472163D01*
X139721841Y-96316800D01*
X139954359Y-96161437D01*
X140154237Y-95961559D01*
X140311280Y-95726527D01*
X140419453Y-95465374D01*
X140474600Y-95188135D01*
X140474600Y-94905465D01*
X140419453Y-94628226D01*
X140311280Y-94367073D01*
X140154237Y-94132041D01*
X139954359Y-93932163D01*
X139721841Y-93776800D01*
X139954359Y-93621437D01*
X140154237Y-93421559D01*
X140311280Y-93186527D01*
X140419453Y-92925374D01*
X140474600Y-92648135D01*
X140474600Y-92365465D01*
X140419453Y-92088226D01*
X140311280Y-91827073D01*
X140154237Y-91592041D01*
X139954359Y-91392163D01*
X139719327Y-91235120D01*
X139458174Y-91126947D01*
X139180935Y-91071800D01*
X138898265Y-91071800D01*
X138621026Y-91126947D01*
X138359873Y-91235120D01*
X138124841Y-91392163D01*
X137924963Y-91592041D01*
X137767920Y-91827073D01*
X137659747Y-92088226D01*
X137604600Y-92365465D01*
X137604600Y-92648135D01*
X137659747Y-92925374D01*
X137767920Y-93186527D01*
X137924963Y-93421559D01*
X138124841Y-93621437D01*
X138357359Y-93776800D01*
X138124841Y-93932163D01*
X137924963Y-94132041D01*
X137767920Y-94367073D01*
X137659747Y-94628226D01*
X137604600Y-94905465D01*
X137604600Y-95188135D01*
X137659747Y-95465374D01*
X137767920Y-95726527D01*
X137924963Y-95961559D01*
X138124841Y-96161437D01*
X138357359Y-96316800D01*
X138124841Y-96472163D01*
X137924963Y-96672041D01*
X137767920Y-96907073D01*
X137659747Y-97168226D01*
X137604600Y-97445465D01*
X137604600Y-97728135D01*
X137659747Y-98005374D01*
X137767920Y-98266527D01*
X137924963Y-98501559D01*
X138124841Y-98701437D01*
X138357359Y-98856800D01*
X138124841Y-99012163D01*
X137924963Y-99212041D01*
X137821557Y-99366800D01*
X136814402Y-99366800D01*
X132818288Y-95370687D01*
X132854600Y-95188135D01*
X132854600Y-94905465D01*
X132799453Y-94628226D01*
X132691280Y-94367073D01*
X132534237Y-94132041D01*
X132335639Y-93933443D01*
X132344082Y-93932612D01*
X132463780Y-93896302D01*
X132574094Y-93837337D01*
X132670785Y-93757985D01*
X132750137Y-93661294D01*
X132809102Y-93550980D01*
X132845412Y-93431282D01*
X132857672Y-93306800D01*
X132857672Y-91706800D01*
X132845412Y-91582318D01*
X132809102Y-91462620D01*
X132750137Y-91352306D01*
X132670785Y-91255615D01*
X132574094Y-91176263D01*
X132463780Y-91117298D01*
X132344082Y-91080988D01*
X132219600Y-91068728D01*
X130619600Y-91068728D01*
X130495118Y-91080988D01*
X130375420Y-91117298D01*
X130265106Y-91176263D01*
X130168415Y-91255615D01*
X130089063Y-91352306D01*
X130030098Y-91462620D01*
X129993788Y-91582318D01*
X129981528Y-91706800D01*
X126540800Y-91706800D01*
X126540800Y-91196001D01*
X129865618Y-87871184D01*
X129847432Y-87915088D01*
X129784600Y-88230967D01*
X129784600Y-88553033D01*
X129847432Y-88868912D01*
X129970682Y-89166463D01*
X130149613Y-89434252D01*
X130377348Y-89661987D01*
X130645137Y-89840918D01*
X130942688Y-89964168D01*
X131258567Y-90027000D01*
X131580633Y-90027000D01*
X131896512Y-89964168D01*
X132194063Y-89840918D01*
X132461852Y-89661987D01*
X132689587Y-89434252D01*
X132756638Y-89333902D01*
X134659703Y-89333902D01*
X134731286Y-89577871D01*
X134986796Y-89698771D01*
X135260984Y-89767500D01*
X135543312Y-89781417D01*
X135822930Y-89739987D01*
X136089092Y-89644803D01*
X136214314Y-89577871D01*
X136285897Y-89333902D01*
X135472800Y-88520805D01*
X134659703Y-89333902D01*
X132756638Y-89333902D01*
X132868518Y-89166463D01*
X132991768Y-88868912D01*
X133054600Y-88553033D01*
X133054600Y-88411712D01*
X134032583Y-88411712D01*
X134074013Y-88691330D01*
X134169197Y-88957492D01*
X134236129Y-89082714D01*
X134480098Y-89154297D01*
X135293195Y-88341200D01*
X134480098Y-87528103D01*
X134236129Y-87599686D01*
X134115229Y-87855196D01*
X134046500Y-88129384D01*
X134032583Y-88411712D01*
X133054600Y-88411712D01*
X133054600Y-88230967D01*
X132991768Y-87915088D01*
X132868518Y-87617537D01*
X132689587Y-87349748D01*
X132612239Y-87272400D01*
X134682031Y-87272400D01*
X134659703Y-87348498D01*
X135472800Y-88161595D01*
X135486943Y-88147453D01*
X135666548Y-88327058D01*
X135652405Y-88341200D01*
X136465502Y-89154297D01*
X136709471Y-89082714D01*
X136723124Y-89053859D01*
X136858163Y-89255959D01*
X137058041Y-89455837D01*
X137293073Y-89612880D01*
X137554226Y-89721053D01*
X137831465Y-89776200D01*
X138114135Y-89776200D01*
X138391374Y-89721053D01*
X138652527Y-89612880D01*
X138887559Y-89455837D01*
X139087437Y-89255959D01*
X139244480Y-89020927D01*
X139352653Y-88759774D01*
X139407800Y-88482535D01*
X139407800Y-88281767D01*
X140554200Y-88281767D01*
X140554200Y-88603833D01*
X140617032Y-88919712D01*
X140740282Y-89217263D01*
X140919213Y-89485052D01*
X141146948Y-89712787D01*
X141414737Y-89891718D01*
X141712288Y-90014968D01*
X142028167Y-90077800D01*
X142350233Y-90077800D01*
X142666112Y-90014968D01*
X142963663Y-89891718D01*
X143231452Y-89712787D01*
X143459187Y-89485052D01*
X143560182Y-89333902D01*
X145226103Y-89333902D01*
X145297686Y-89577871D01*
X145553196Y-89698771D01*
X145827384Y-89767500D01*
X146109712Y-89781417D01*
X146389330Y-89739987D01*
X146655492Y-89644803D01*
X146780714Y-89577871D01*
X146852297Y-89333902D01*
X146039200Y-88520805D01*
X145226103Y-89333902D01*
X143560182Y-89333902D01*
X143638118Y-89217263D01*
X143761368Y-88919712D01*
X143824200Y-88603833D01*
X143824200Y-88411712D01*
X144598983Y-88411712D01*
X144640413Y-88691330D01*
X144735597Y-88957492D01*
X144802529Y-89082714D01*
X145046498Y-89154297D01*
X145859595Y-88341200D01*
X146218805Y-88341200D01*
X147031902Y-89154297D01*
X147275871Y-89082714D01*
X147289524Y-89053859D01*
X147424563Y-89255959D01*
X147624441Y-89455837D01*
X147859473Y-89612880D01*
X148120626Y-89721053D01*
X148397865Y-89776200D01*
X148680535Y-89776200D01*
X148957774Y-89721053D01*
X149218927Y-89612880D01*
X149453959Y-89455837D01*
X149653837Y-89255959D01*
X149810880Y-89020927D01*
X149919053Y-88759774D01*
X149974200Y-88482535D01*
X149974200Y-88199865D01*
X149919053Y-87922626D01*
X149810880Y-87661473D01*
X149653837Y-87426441D01*
X149453959Y-87226563D01*
X149218927Y-87069520D01*
X148957774Y-86961347D01*
X148680535Y-86906200D01*
X148397865Y-86906200D01*
X148120626Y-86961347D01*
X147859473Y-87069520D01*
X147624441Y-87226563D01*
X147424563Y-87426441D01*
X147290508Y-87627069D01*
X147275871Y-87599686D01*
X147031902Y-87528103D01*
X146218805Y-88341200D01*
X145859595Y-88341200D01*
X145046498Y-87528103D01*
X144802529Y-87599686D01*
X144681629Y-87855196D01*
X144612900Y-88129384D01*
X144598983Y-88411712D01*
X143824200Y-88411712D01*
X143824200Y-88281767D01*
X143761368Y-87965888D01*
X143638118Y-87668337D01*
X143459187Y-87400548D01*
X143407137Y-87348498D01*
X145226103Y-87348498D01*
X146039200Y-88161595D01*
X146852297Y-87348498D01*
X146780714Y-87104529D01*
X146525204Y-86983629D01*
X146251016Y-86914900D01*
X145968688Y-86900983D01*
X145689070Y-86942413D01*
X145422908Y-87037597D01*
X145297686Y-87104529D01*
X145226103Y-87348498D01*
X143407137Y-87348498D01*
X143231452Y-87172813D01*
X142963663Y-86993882D01*
X142666112Y-86870632D01*
X142350233Y-86807800D01*
X142028167Y-86807800D01*
X141712288Y-86870632D01*
X141414737Y-86993882D01*
X141146948Y-87172813D01*
X140919213Y-87400548D01*
X140740282Y-87668337D01*
X140617032Y-87965888D01*
X140554200Y-88281767D01*
X139407800Y-88281767D01*
X139407800Y-88199865D01*
X139352653Y-87922626D01*
X139244480Y-87661473D01*
X139087437Y-87426441D01*
X138887559Y-87226563D01*
X138652527Y-87069520D01*
X138391374Y-86961347D01*
X138114135Y-86906200D01*
X137831465Y-86906200D01*
X137648914Y-86942512D01*
X137391401Y-86685000D01*
X173315000Y-86685000D01*
X173315001Y-120315000D01*
X112685000Y-120315000D01*
X112685000Y-117489721D01*
X113165000Y-117489721D01*
X113165000Y-117910279D01*
X113247047Y-118322756D01*
X113407988Y-118711302D01*
X113641637Y-119060983D01*
X113939017Y-119358363D01*
X114288698Y-119592012D01*
X114677244Y-119752953D01*
X115089721Y-119835000D01*
X115510279Y-119835000D01*
X115922756Y-119752953D01*
X116311302Y-119592012D01*
X116660983Y-119358363D01*
X116958363Y-119060983D01*
X117192012Y-118711302D01*
X117352953Y-118322756D01*
X117435000Y-117910279D01*
X117435000Y-117489721D01*
X117420683Y-117417744D01*
X122901800Y-117417744D01*
X122901800Y-117684656D01*
X122953872Y-117946439D01*
X123056015Y-118193033D01*
X123204303Y-118414962D01*
X123393038Y-118603697D01*
X123614967Y-118751985D01*
X123861561Y-118854128D01*
X124123344Y-118906200D01*
X124390256Y-118906200D01*
X124652039Y-118854128D01*
X124898633Y-118751985D01*
X125120562Y-118603697D01*
X125309297Y-118414962D01*
X125457585Y-118193033D01*
X125559728Y-117946439D01*
X125611800Y-117684656D01*
X125611800Y-117417744D01*
X125559728Y-117155961D01*
X125457585Y-116909367D01*
X125309297Y-116687438D01*
X125120562Y-116498703D01*
X124898633Y-116350415D01*
X124652039Y-116248272D01*
X124390256Y-116196200D01*
X124123344Y-116196200D01*
X123861561Y-116248272D01*
X123614967Y-116350415D01*
X123393038Y-116498703D01*
X123204303Y-116687438D01*
X123056015Y-116909367D01*
X122953872Y-117155961D01*
X122901800Y-117417744D01*
X117420683Y-117417744D01*
X117352953Y-117077244D01*
X117192012Y-116688698D01*
X116958363Y-116339017D01*
X116660983Y-116041637D01*
X116311302Y-115807988D01*
X115922756Y-115647047D01*
X115510279Y-115565000D01*
X115089721Y-115565000D01*
X114677244Y-115647047D01*
X114288698Y-115807988D01*
X113939017Y-116041637D01*
X113641637Y-116339017D01*
X113407988Y-116688698D01*
X113247047Y-117077244D01*
X113165000Y-117489721D01*
X112685000Y-117489721D01*
X112685000Y-114877744D01*
X120361800Y-114877744D01*
X120361800Y-115144656D01*
X120413872Y-115406439D01*
X120516015Y-115653033D01*
X120664303Y-115874962D01*
X120853038Y-116063697D01*
X121074967Y-116211985D01*
X121321561Y-116314128D01*
X121583344Y-116366200D01*
X121850256Y-116366200D01*
X122112039Y-116314128D01*
X122358633Y-116211985D01*
X122580562Y-116063697D01*
X122769297Y-115874962D01*
X122917585Y-115653033D01*
X123019728Y-115406439D01*
X123071800Y-115144656D01*
X123071800Y-114877744D01*
X123019728Y-114615961D01*
X122917585Y-114369367D01*
X122769297Y-114147438D01*
X122580562Y-113958703D01*
X122358633Y-113810415D01*
X122112039Y-113708272D01*
X121850256Y-113656200D01*
X121583344Y-113656200D01*
X121321561Y-113708272D01*
X121074967Y-113810415D01*
X120853038Y-113958703D01*
X120664303Y-114147438D01*
X120516015Y-114369367D01*
X120413872Y-114615961D01*
X120361800Y-114877744D01*
X112685000Y-114877744D01*
X112685000Y-106597344D01*
X122952600Y-106597344D01*
X122952600Y-106864256D01*
X123004672Y-107126039D01*
X123106815Y-107372633D01*
X123255103Y-107594562D01*
X123443838Y-107783297D01*
X123665767Y-107931585D01*
X123912361Y-108033728D01*
X124174144Y-108085800D01*
X124441056Y-108085800D01*
X124702839Y-108033728D01*
X124949433Y-107931585D01*
X125171362Y-107783297D01*
X125360097Y-107594562D01*
X125508385Y-107372633D01*
X125610528Y-107126039D01*
X125662600Y-106864256D01*
X125662600Y-106597344D01*
X125610528Y-106335561D01*
X125508385Y-106088967D01*
X125360097Y-105867038D01*
X125171362Y-105678303D01*
X124949433Y-105530015D01*
X124702839Y-105427872D01*
X124441056Y-105375800D01*
X124174144Y-105375800D01*
X123912361Y-105427872D01*
X123665767Y-105530015D01*
X123443838Y-105678303D01*
X123255103Y-105867038D01*
X123106815Y-106088967D01*
X123004672Y-106335561D01*
X122952600Y-106597344D01*
X112685000Y-106597344D01*
X112685000Y-102687714D01*
X113371400Y-102687714D01*
X113371400Y-102950686D01*
X113422704Y-103208605D01*
X113523339Y-103451559D01*
X113669438Y-103670213D01*
X113855387Y-103856162D01*
X114074041Y-104002261D01*
X114316995Y-104102896D01*
X114574914Y-104154200D01*
X114837886Y-104154200D01*
X115095805Y-104102896D01*
X115205777Y-104057344D01*
X120412600Y-104057344D01*
X120412600Y-104324256D01*
X120464672Y-104586039D01*
X120566815Y-104832633D01*
X120715103Y-105054562D01*
X120903838Y-105243297D01*
X121125767Y-105391585D01*
X121372361Y-105493728D01*
X121634144Y-105545800D01*
X121901056Y-105545800D01*
X122162839Y-105493728D01*
X122409433Y-105391585D01*
X122631362Y-105243297D01*
X122820097Y-105054562D01*
X122968385Y-104832633D01*
X123070528Y-104586039D01*
X123122600Y-104324256D01*
X123122600Y-104057344D01*
X123070528Y-103795561D01*
X122968385Y-103548967D01*
X122820097Y-103327038D01*
X122631362Y-103138303D01*
X122409433Y-102990015D01*
X122162839Y-102887872D01*
X121901056Y-102835800D01*
X121634144Y-102835800D01*
X121372361Y-102887872D01*
X121125767Y-102990015D01*
X120903838Y-103138303D01*
X120715103Y-103327038D01*
X120566815Y-103548967D01*
X120464672Y-103795561D01*
X120412600Y-104057344D01*
X115205777Y-104057344D01*
X115338759Y-104002261D01*
X115557413Y-103856162D01*
X115743362Y-103670213D01*
X115889461Y-103451559D01*
X115990096Y-103208605D01*
X116041400Y-102950686D01*
X116041400Y-102687714D01*
X115990096Y-102429795D01*
X115889461Y-102186841D01*
X115743362Y-101968187D01*
X115557413Y-101782238D01*
X115338759Y-101636139D01*
X115095805Y-101535504D01*
X114837886Y-101484200D01*
X114574914Y-101484200D01*
X114316995Y-101535504D01*
X114074041Y-101636139D01*
X113855387Y-101782238D01*
X113669438Y-101968187D01*
X113523339Y-102186841D01*
X113422704Y-102429795D01*
X113371400Y-102687714D01*
X112685000Y-102687714D01*
X112685000Y-98641102D01*
X115214103Y-98641102D01*
X115285686Y-98885071D01*
X115541196Y-99005971D01*
X115815384Y-99074700D01*
X116097712Y-99088617D01*
X116377330Y-99047187D01*
X116643492Y-98952003D01*
X116768714Y-98885071D01*
X116840297Y-98641102D01*
X116027200Y-97828005D01*
X115214103Y-98641102D01*
X112685000Y-98641102D01*
X112685000Y-97718912D01*
X114586983Y-97718912D01*
X114628413Y-97998530D01*
X114723597Y-98264692D01*
X114790529Y-98389914D01*
X115034498Y-98461497D01*
X115847595Y-97648400D01*
X116206805Y-97648400D01*
X117019902Y-98461497D01*
X117263871Y-98389914D01*
X117384771Y-98134404D01*
X117453500Y-97860216D01*
X117467417Y-97577888D01*
X117425987Y-97298270D01*
X117330803Y-97032108D01*
X117263871Y-96906886D01*
X117019902Y-96835303D01*
X116206805Y-97648400D01*
X115847595Y-97648400D01*
X115034498Y-96835303D01*
X114790529Y-96906886D01*
X114669629Y-97162396D01*
X114600900Y-97436584D01*
X114586983Y-97718912D01*
X112685000Y-97718912D01*
X112685000Y-95007065D01*
X114592200Y-95007065D01*
X114592200Y-95289735D01*
X114647347Y-95566974D01*
X114755520Y-95828127D01*
X114912563Y-96063159D01*
X115112441Y-96263037D01*
X115313069Y-96397092D01*
X115285686Y-96411729D01*
X115214103Y-96655698D01*
X116027200Y-97468795D01*
X116840297Y-96655698D01*
X116768714Y-96411729D01*
X116739859Y-96398076D01*
X116941959Y-96263037D01*
X117141837Y-96063159D01*
X117298880Y-95828127D01*
X117407053Y-95566974D01*
X117462200Y-95289735D01*
X117462200Y-95007065D01*
X117407053Y-94729826D01*
X117298880Y-94468673D01*
X117141837Y-94233641D01*
X117061756Y-94153560D01*
X119944845Y-94153560D01*
X120006732Y-94389368D01*
X120248590Y-94502266D01*
X120507827Y-94565811D01*
X120774480Y-94577561D01*
X121038301Y-94537063D01*
X121289153Y-94445875D01*
X121394868Y-94389368D01*
X121456755Y-94153560D01*
X120700800Y-93397605D01*
X119944845Y-94153560D01*
X117061756Y-94153560D01*
X116941959Y-94033763D01*
X116706927Y-93876720D01*
X116445774Y-93768547D01*
X116168535Y-93713400D01*
X115885865Y-93713400D01*
X115608626Y-93768547D01*
X115347473Y-93876720D01*
X115112441Y-94033763D01*
X114912563Y-94233641D01*
X114755520Y-94468673D01*
X114647347Y-94729826D01*
X114592200Y-95007065D01*
X112685000Y-95007065D01*
X112685000Y-93291680D01*
X119341239Y-93291680D01*
X119381737Y-93555501D01*
X119472925Y-93806353D01*
X119529432Y-93912068D01*
X119765240Y-93973955D01*
X120521195Y-93218000D01*
X120880405Y-93218000D01*
X121636360Y-93973955D01*
X121872168Y-93912068D01*
X121985066Y-93670210D01*
X122048611Y-93410973D01*
X122060361Y-93144320D01*
X122019863Y-92880499D01*
X121928675Y-92629647D01*
X121872168Y-92523932D01*
X121636360Y-92462045D01*
X120880405Y-93218000D01*
X120521195Y-93218000D01*
X119765240Y-92462045D01*
X119529432Y-92523932D01*
X119416534Y-92765790D01*
X119352989Y-93025027D01*
X119341239Y-93291680D01*
X112685000Y-93291680D01*
X112685000Y-92282440D01*
X119944845Y-92282440D01*
X120700800Y-93038395D01*
X121456755Y-92282440D01*
X121394868Y-92046632D01*
X121153010Y-91933734D01*
X120893773Y-91870189D01*
X120627120Y-91858439D01*
X120363299Y-91898937D01*
X120112447Y-91990125D01*
X120006732Y-92046632D01*
X119944845Y-92282440D01*
X112685000Y-92282440D01*
X112685000Y-89089721D01*
X113165000Y-89089721D01*
X113165000Y-89510279D01*
X113247047Y-89922756D01*
X113407988Y-90311302D01*
X113641637Y-90660983D01*
X113939017Y-90958363D01*
X114288698Y-91192012D01*
X114677244Y-91352953D01*
X115089721Y-91435000D01*
X115510279Y-91435000D01*
X115922756Y-91352953D01*
X116311302Y-91192012D01*
X116660983Y-90958363D01*
X116958363Y-90660983D01*
X117036164Y-90544544D01*
X121885800Y-90544544D01*
X121885800Y-90811456D01*
X121937872Y-91073239D01*
X122040015Y-91319833D01*
X122188303Y-91541762D01*
X122377038Y-91730497D01*
X122598967Y-91878785D01*
X122845561Y-91980928D01*
X123107344Y-92033000D01*
X123374256Y-92033000D01*
X123636039Y-91980928D01*
X123882633Y-91878785D01*
X124104562Y-91730497D01*
X124293297Y-91541762D01*
X124441585Y-91319833D01*
X124543728Y-91073239D01*
X124595800Y-90811456D01*
X124595800Y-90544544D01*
X124543728Y-90282761D01*
X124441585Y-90036167D01*
X124293297Y-89814238D01*
X124104562Y-89625503D01*
X123882633Y-89477215D01*
X123636039Y-89375072D01*
X123374256Y-89323000D01*
X123107344Y-89323000D01*
X122845561Y-89375072D01*
X122598967Y-89477215D01*
X122377038Y-89625503D01*
X122188303Y-89814238D01*
X122040015Y-90036167D01*
X121937872Y-90282761D01*
X121885800Y-90544544D01*
X117036164Y-90544544D01*
X117192012Y-90311302D01*
X117352953Y-89922756D01*
X117435000Y-89510279D01*
X117435000Y-89089721D01*
X117352953Y-88677244D01*
X117192012Y-88288698D01*
X116958363Y-87939017D01*
X116660983Y-87641637D01*
X116311302Y-87407988D01*
X115922756Y-87247047D01*
X115510279Y-87165000D01*
X115089721Y-87165000D01*
X114677244Y-87247047D01*
X114288698Y-87407988D01*
X113939017Y-87641637D01*
X113641637Y-87939017D01*
X113407988Y-88288698D01*
X113247047Y-88677244D01*
X113165000Y-89089721D01*
X112685000Y-89089721D01*
X112685000Y-86685000D01*
X128902198Y-86685000D01*
X125269798Y-90317401D01*
%TA.AperFunction,Conductor*%
D29*
G36*
X125269798Y-90317401D02*
G01*
X125240800Y-90341199D01*
X125217002Y-90370197D01*
X125217001Y-90370198D01*
X125145826Y-90456924D01*
X125075254Y-90588954D01*
X125031798Y-90732215D01*
X125017124Y-90881200D01*
X125020801Y-90918532D01*
X125020800Y-92096171D01*
X124917038Y-92165503D01*
X124728303Y-92354238D01*
X124580015Y-92576167D01*
X124477872Y-92822761D01*
X124425800Y-93084544D01*
X124425800Y-93351456D01*
X124477872Y-93613239D01*
X124580015Y-93859833D01*
X124728303Y-94081762D01*
X124917038Y-94270497D01*
X125020801Y-94339829D01*
X125020800Y-100497701D01*
X124949433Y-100450015D01*
X124702839Y-100347872D01*
X124441056Y-100295800D01*
X124174144Y-100295800D01*
X123912361Y-100347872D01*
X123665767Y-100450015D01*
X123443838Y-100598303D01*
X123255103Y-100787038D01*
X123106815Y-101008967D01*
X123004672Y-101255561D01*
X122952600Y-101517344D01*
X122952600Y-101784256D01*
X123004672Y-102046039D01*
X123106815Y-102292633D01*
X123255103Y-102514562D01*
X123443838Y-102703297D01*
X123665767Y-102851585D01*
X123912361Y-102953728D01*
X124174144Y-103005800D01*
X124441056Y-103005800D01*
X124702839Y-102953728D01*
X124949433Y-102851585D01*
X125020800Y-102803899D01*
X125020800Y-103747078D01*
X125017124Y-103784400D01*
X125020800Y-103821722D01*
X125020800Y-103821732D01*
X125031797Y-103933385D01*
X125050273Y-103994292D01*
X125075254Y-104076646D01*
X125145826Y-104208676D01*
X125151979Y-104216173D01*
X125240799Y-104324401D01*
X125269803Y-104348204D01*
X131929601Y-111008003D01*
X131929600Y-112009771D01*
X131825838Y-112079103D01*
X131637103Y-112267838D01*
X131488815Y-112489767D01*
X131386672Y-112736361D01*
X131334600Y-112998144D01*
X131334600Y-113265056D01*
X131386672Y-113526839D01*
X131488815Y-113773433D01*
X131536501Y-113844800D01*
X130566002Y-113844800D01*
X126649404Y-109928203D01*
X126625601Y-109899199D01*
X126509876Y-109804226D01*
X126377847Y-109733654D01*
X126234586Y-109690197D01*
X126122933Y-109679200D01*
X126122922Y-109679200D01*
X126085600Y-109675524D01*
X126048278Y-109679200D01*
X115804175Y-109679200D01*
X115743362Y-109588187D01*
X115557413Y-109402238D01*
X115338759Y-109256139D01*
X115095805Y-109155504D01*
X114837886Y-109104200D01*
X114574914Y-109104200D01*
X114316995Y-109155504D01*
X114074041Y-109256139D01*
X113855387Y-109402238D01*
X113669438Y-109588187D01*
X113523339Y-109806841D01*
X113422704Y-110049795D01*
X113371400Y-110307714D01*
X113371400Y-110570686D01*
X113422704Y-110828605D01*
X113523339Y-111071559D01*
X113669438Y-111290213D01*
X113855387Y-111476162D01*
X114074041Y-111622261D01*
X114316995Y-111722896D01*
X114574914Y-111774200D01*
X114837886Y-111774200D01*
X115095805Y-111722896D01*
X115338759Y-111622261D01*
X115557413Y-111476162D01*
X115743362Y-111290213D01*
X115804175Y-111199200D01*
X123786895Y-111199200D01*
X123614967Y-111270415D01*
X123393038Y-111418703D01*
X123204303Y-111607438D01*
X123056015Y-111829367D01*
X122953872Y-112075961D01*
X122901800Y-112337744D01*
X122901800Y-112604656D01*
X122953872Y-112866439D01*
X123056015Y-113113033D01*
X123204303Y-113334962D01*
X123393038Y-113523697D01*
X123614967Y-113671985D01*
X123861561Y-113774128D01*
X124123344Y-113826200D01*
X124390256Y-113826200D01*
X124652039Y-113774128D01*
X124898633Y-113671985D01*
X125120562Y-113523697D01*
X125309297Y-113334962D01*
X125457585Y-113113033D01*
X125559728Y-112866439D01*
X125611800Y-112604656D01*
X125611800Y-112337744D01*
X125559728Y-112075961D01*
X125457585Y-111829367D01*
X125309297Y-111607438D01*
X125120562Y-111418703D01*
X124898633Y-111270415D01*
X124726705Y-111199200D01*
X125770799Y-111199200D01*
X129687401Y-115115803D01*
X129711199Y-115144801D01*
X129740197Y-115168599D01*
X129826923Y-115239774D01*
X129895372Y-115276361D01*
X129958953Y-115310346D01*
X130102214Y-115353803D01*
X130213867Y-115364800D01*
X130213877Y-115364800D01*
X130251199Y-115368476D01*
X130288522Y-115364800D01*
X133363478Y-115364800D01*
X133400800Y-115368476D01*
X133438122Y-115364800D01*
X133438133Y-115364800D01*
X133549786Y-115353803D01*
X133693047Y-115310346D01*
X133825076Y-115239774D01*
X133940801Y-115144801D01*
X133964603Y-115115798D01*
X134013386Y-115067015D01*
X133926672Y-115276361D01*
X133874600Y-115538144D01*
X133874600Y-115805056D01*
X133926672Y-116066839D01*
X134028815Y-116313433D01*
X134177103Y-116535362D01*
X134365838Y-116724097D01*
X134587767Y-116872385D01*
X134834361Y-116974528D01*
X135096144Y-117026600D01*
X135363056Y-117026600D01*
X135624839Y-116974528D01*
X135871433Y-116872385D01*
X136093362Y-116724097D01*
X136282097Y-116535362D01*
X136430385Y-116313433D01*
X136532528Y-116066839D01*
X136584600Y-115805056D01*
X136584600Y-115785819D01*
X141909000Y-115785819D01*
X141909000Y-116166981D01*
X141983361Y-116540819D01*
X142129225Y-116892966D01*
X142340987Y-117209891D01*
X142610509Y-117479413D01*
X142927434Y-117691175D01*
X143279581Y-117837039D01*
X143653419Y-117911400D01*
X144034581Y-117911400D01*
X144408419Y-117837039D01*
X144760566Y-117691175D01*
X145077491Y-117479413D01*
X145347013Y-117209891D01*
X145558775Y-116892966D01*
X145704639Y-116540819D01*
X145779000Y-116166981D01*
X145779000Y-115785819D01*
X145704639Y-115411981D01*
X145558775Y-115059834D01*
X145347013Y-114742909D01*
X145280504Y-114676400D01*
X146905928Y-114676400D01*
X146905928Y-117276400D01*
X146918188Y-117400882D01*
X146954498Y-117520580D01*
X147013463Y-117630894D01*
X147092815Y-117727585D01*
X147189506Y-117806937D01*
X147299820Y-117865902D01*
X147419518Y-117902212D01*
X147544000Y-117914472D01*
X150144000Y-117914472D01*
X150268482Y-117902212D01*
X150388180Y-117865902D01*
X150498494Y-117806937D01*
X150595185Y-117727585D01*
X150674537Y-117630894D01*
X150733502Y-117520580D01*
X150769812Y-117400882D01*
X150782072Y-117276400D01*
X150782072Y-115785819D01*
X153215800Y-115785819D01*
X153215800Y-116166981D01*
X153290161Y-116540819D01*
X153436025Y-116892966D01*
X153647787Y-117209891D01*
X153917309Y-117479413D01*
X154234234Y-117691175D01*
X154586381Y-117837039D01*
X154960219Y-117911400D01*
X155341381Y-117911400D01*
X155715219Y-117837039D01*
X156067366Y-117691175D01*
X156384291Y-117479413D01*
X156653813Y-117209891D01*
X156865575Y-116892966D01*
X157011439Y-116540819D01*
X157085800Y-116166981D01*
X157085800Y-115785819D01*
X158215800Y-115785819D01*
X158215800Y-116166981D01*
X158290161Y-116540819D01*
X158436025Y-116892966D01*
X158647787Y-117209891D01*
X158917309Y-117479413D01*
X159234234Y-117691175D01*
X159586381Y-117837039D01*
X159960219Y-117911400D01*
X160341381Y-117911400D01*
X160715219Y-117837039D01*
X161067366Y-117691175D01*
X161384291Y-117479413D01*
X161587304Y-117276400D01*
X163212728Y-117276400D01*
X163224988Y-117400882D01*
X163261298Y-117520580D01*
X163320263Y-117630894D01*
X163399615Y-117727585D01*
X163496306Y-117806937D01*
X163606620Y-117865902D01*
X163726318Y-117902212D01*
X163850800Y-117914472D01*
X164865050Y-117911400D01*
X165023800Y-117752650D01*
X165023800Y-116103400D01*
X165277800Y-116103400D01*
X165277800Y-117752650D01*
X165436550Y-117911400D01*
X166450800Y-117914472D01*
X166575282Y-117902212D01*
X166694980Y-117865902D01*
X166805294Y-117806937D01*
X166901985Y-117727585D01*
X166981337Y-117630894D01*
X167040302Y-117520580D01*
X167049662Y-117489721D01*
X168565000Y-117489721D01*
X168565000Y-117910279D01*
X168647047Y-118322756D01*
X168807988Y-118711302D01*
X169041637Y-119060983D01*
X169339017Y-119358363D01*
X169688698Y-119592012D01*
X170077244Y-119752953D01*
X170489721Y-119835000D01*
X170910279Y-119835000D01*
X171322756Y-119752953D01*
X171711302Y-119592012D01*
X172060983Y-119358363D01*
X172358363Y-119060983D01*
X172592012Y-118711302D01*
X172752953Y-118322756D01*
X172835000Y-117910279D01*
X172835000Y-117489721D01*
X172752953Y-117077244D01*
X172592012Y-116688698D01*
X172358363Y-116339017D01*
X172060983Y-116041637D01*
X171711302Y-115807988D01*
X171322756Y-115647047D01*
X170910279Y-115565000D01*
X170489721Y-115565000D01*
X170077244Y-115647047D01*
X169688698Y-115807988D01*
X169339017Y-116041637D01*
X169041637Y-116339017D01*
X168807988Y-116688698D01*
X168647047Y-117077244D01*
X168565000Y-117489721D01*
X167049662Y-117489721D01*
X167076612Y-117400882D01*
X167088872Y-117276400D01*
X167085800Y-116262150D01*
X166927050Y-116103400D01*
X165277800Y-116103400D01*
X165023800Y-116103400D01*
X163374550Y-116103400D01*
X163215800Y-116262150D01*
X163212728Y-117276400D01*
X161587304Y-117276400D01*
X161653813Y-117209891D01*
X161865575Y-116892966D01*
X162011439Y-116540819D01*
X162085800Y-116166981D01*
X162085800Y-115785819D01*
X162011439Y-115411981D01*
X161865575Y-115059834D01*
X161653813Y-114742909D01*
X161587304Y-114676400D01*
X163212728Y-114676400D01*
X163215800Y-115690650D01*
X163374550Y-115849400D01*
X165023800Y-115849400D01*
X165023800Y-114200150D01*
X165277800Y-114200150D01*
X165277800Y-115849400D01*
X166927050Y-115849400D01*
X167085800Y-115690650D01*
X167088872Y-114676400D01*
X167076612Y-114551918D01*
X167040302Y-114432220D01*
X166981337Y-114321906D01*
X166901985Y-114225215D01*
X166805294Y-114145863D01*
X166694980Y-114086898D01*
X166575282Y-114050588D01*
X166450800Y-114038328D01*
X165436550Y-114041400D01*
X165277800Y-114200150D01*
X165023800Y-114200150D01*
X164865050Y-114041400D01*
X163850800Y-114038328D01*
X163726318Y-114050588D01*
X163606620Y-114086898D01*
X163496306Y-114145863D01*
X163399615Y-114225215D01*
X163320263Y-114321906D01*
X163261298Y-114432220D01*
X163224988Y-114551918D01*
X163212728Y-114676400D01*
X161587304Y-114676400D01*
X161384291Y-114473387D01*
X161067366Y-114261625D01*
X160715219Y-114115761D01*
X160341381Y-114041400D01*
X159960219Y-114041400D01*
X159586381Y-114115761D01*
X159234234Y-114261625D01*
X158917309Y-114473387D01*
X158647787Y-114742909D01*
X158436025Y-115059834D01*
X158290161Y-115411981D01*
X158215800Y-115785819D01*
X157085800Y-115785819D01*
X157011439Y-115411981D01*
X156865575Y-115059834D01*
X156653813Y-114742909D01*
X156384291Y-114473387D01*
X156067366Y-114261625D01*
X155715219Y-114115761D01*
X155341381Y-114041400D01*
X154960219Y-114041400D01*
X154586381Y-114115761D01*
X154234234Y-114261625D01*
X153917309Y-114473387D01*
X153647787Y-114742909D01*
X153436025Y-115059834D01*
X153290161Y-115411981D01*
X153215800Y-115785819D01*
X150782072Y-115785819D01*
X150782072Y-114676400D01*
X150769812Y-114551918D01*
X150733502Y-114432220D01*
X150674537Y-114321906D01*
X150595185Y-114225215D01*
X150498494Y-114145863D01*
X150388180Y-114086898D01*
X150268482Y-114050588D01*
X150144000Y-114038328D01*
X147544000Y-114038328D01*
X147419518Y-114050588D01*
X147299820Y-114086898D01*
X147189506Y-114145863D01*
X147092815Y-114225215D01*
X147013463Y-114321906D01*
X146954498Y-114432220D01*
X146918188Y-114551918D01*
X146905928Y-114676400D01*
X145280504Y-114676400D01*
X145077491Y-114473387D01*
X144760566Y-114261625D01*
X144408419Y-114115761D01*
X144034581Y-114041400D01*
X143653419Y-114041400D01*
X143279581Y-114115761D01*
X142927434Y-114261625D01*
X142610509Y-114473387D01*
X142340987Y-114742909D01*
X142129225Y-115059834D01*
X141983361Y-115411981D01*
X141909000Y-115785819D01*
X136584600Y-115785819D01*
X136584600Y-115538144D01*
X136532528Y-115276361D01*
X136430385Y-115029767D01*
X136282097Y-114807838D01*
X136093362Y-114619103D01*
X135871433Y-114470815D01*
X135624839Y-114368672D01*
X135363056Y-114316600D01*
X135096144Y-114316600D01*
X134834361Y-114368672D01*
X134625012Y-114455388D01*
X134696174Y-114368676D01*
X134766746Y-114236647D01*
X134810203Y-114093386D01*
X134812786Y-114067160D01*
X137013645Y-114067160D01*
X137075532Y-114302968D01*
X137317390Y-114415866D01*
X137576627Y-114479411D01*
X137843280Y-114491161D01*
X138107101Y-114450663D01*
X138357953Y-114359475D01*
X138463668Y-114302968D01*
X138525555Y-114067160D01*
X137769600Y-113311205D01*
X137013645Y-114067160D01*
X134812786Y-114067160D01*
X134821200Y-113981733D01*
X134821200Y-113981725D01*
X134824876Y-113944400D01*
X134821200Y-113907075D01*
X134821200Y-113205280D01*
X136410039Y-113205280D01*
X136450537Y-113469101D01*
X136541725Y-113719953D01*
X136598232Y-113825668D01*
X136834040Y-113887555D01*
X137589995Y-113131600D01*
X137949205Y-113131600D01*
X138705160Y-113887555D01*
X138940968Y-113825668D01*
X139053866Y-113583810D01*
X139117411Y-113324573D01*
X139129161Y-113057920D01*
X139088663Y-112794099D01*
X138997475Y-112543247D01*
X138940968Y-112437532D01*
X138705160Y-112375645D01*
X137949205Y-113131600D01*
X137589995Y-113131600D01*
X136834040Y-112375645D01*
X136598232Y-112437532D01*
X136485334Y-112679390D01*
X136421789Y-112938627D01*
X136410039Y-113205280D01*
X134821200Y-113205280D01*
X134821200Y-112196040D01*
X137013645Y-112196040D01*
X137769600Y-112951995D01*
X138525555Y-112196040D01*
X138463668Y-111960232D01*
X138221810Y-111847334D01*
X137962573Y-111783789D01*
X137695920Y-111772039D01*
X137432099Y-111812537D01*
X137181247Y-111903725D01*
X137075532Y-111960232D01*
X137013645Y-112196040D01*
X134821200Y-112196040D01*
X134821200Y-110721730D01*
X140591678Y-110721730D01*
X140681547Y-110967523D01*
X140817641Y-111191060D01*
X140994730Y-111383751D01*
X141206008Y-111538192D01*
X141443356Y-111648447D01*
X141551071Y-111681116D01*
X141757400Y-111557774D01*
X141757400Y-110515400D01*
X142011400Y-110515400D01*
X142011400Y-111557774D01*
X142217729Y-111681116D01*
X142325444Y-111648447D01*
X142562792Y-111538192D01*
X142774070Y-111383751D01*
X142951159Y-111191060D01*
X143087253Y-110967523D01*
X143177122Y-110721730D01*
X143054601Y-110515400D01*
X142011400Y-110515400D01*
X141757400Y-110515400D01*
X140714199Y-110515400D01*
X140591678Y-110721730D01*
X134821200Y-110721730D01*
X134821200Y-110055070D01*
X140591678Y-110055070D01*
X140714199Y-110261400D01*
X141757400Y-110261400D01*
X141757400Y-109219026D01*
X142011400Y-109219026D01*
X142011400Y-110261400D01*
X143054601Y-110261400D01*
X143177122Y-110055070D01*
X143087253Y-109809277D01*
X142951159Y-109585740D01*
X142924854Y-109557117D01*
X143299000Y-109557117D01*
X143299000Y-109898883D01*
X143365675Y-110234081D01*
X143496463Y-110549831D01*
X143686337Y-110833998D01*
X143928002Y-111075663D01*
X144212169Y-111265537D01*
X144527919Y-111396325D01*
X144863117Y-111463000D01*
X145204883Y-111463000D01*
X145540081Y-111396325D01*
X145855831Y-111265537D01*
X146139998Y-111075663D01*
X146381663Y-110833998D01*
X146571537Y-110549831D01*
X146702325Y-110234081D01*
X146769000Y-109898883D01*
X146769000Y-109557117D01*
X146702325Y-109221919D01*
X146571537Y-108906169D01*
X146381663Y-108622002D01*
X146139998Y-108380337D01*
X145855831Y-108190463D01*
X145540081Y-108059675D01*
X145204883Y-107993000D01*
X144863117Y-107993000D01*
X144527919Y-108059675D01*
X144212169Y-108190463D01*
X143928002Y-108380337D01*
X143686337Y-108622002D01*
X143496463Y-108906169D01*
X143365675Y-109221919D01*
X143299000Y-109557117D01*
X142924854Y-109557117D01*
X142774070Y-109393049D01*
X142562792Y-109238608D01*
X142325444Y-109128353D01*
X142217729Y-109095684D01*
X142011400Y-109219026D01*
X141757400Y-109219026D01*
X141551071Y-109095684D01*
X141443356Y-109128353D01*
X141206008Y-109238608D01*
X140994730Y-109393049D01*
X140817641Y-109585740D01*
X140681547Y-109809277D01*
X140591678Y-110055070D01*
X134821200Y-110055070D01*
X134821200Y-104494213D01*
X134823559Y-104492637D01*
X135023437Y-104292759D01*
X135180480Y-104057727D01*
X135229600Y-103939141D01*
X135278720Y-104057727D01*
X135435763Y-104292759D01*
X135635641Y-104492637D01*
X135870673Y-104649680D01*
X136131826Y-104757853D01*
X136409065Y-104813000D01*
X136691735Y-104813000D01*
X136968974Y-104757853D01*
X137230127Y-104649680D01*
X137465159Y-104492637D01*
X137665037Y-104292759D01*
X137799092Y-104092131D01*
X137813729Y-104119514D01*
X138057698Y-104191097D01*
X138870795Y-103378000D01*
X139230005Y-103378000D01*
X140043102Y-104191097D01*
X140287071Y-104119514D01*
X140407971Y-103864004D01*
X140476700Y-103589816D01*
X140490617Y-103307488D01*
X140449187Y-103027870D01*
X140354003Y-102761708D01*
X140287071Y-102636486D01*
X140043102Y-102564903D01*
X139230005Y-103378000D01*
X138870795Y-103378000D01*
X138057698Y-102564903D01*
X137813729Y-102636486D01*
X137800076Y-102665341D01*
X137665037Y-102463241D01*
X137587094Y-102385298D01*
X138237303Y-102385298D01*
X139050400Y-103198395D01*
X139863497Y-102385298D01*
X139791914Y-102141329D01*
X139536404Y-102020429D01*
X139262216Y-101951700D01*
X138979888Y-101937783D01*
X138700270Y-101979213D01*
X138434108Y-102074397D01*
X138308886Y-102141329D01*
X138237303Y-102385298D01*
X137587094Y-102385298D01*
X137465159Y-102263363D01*
X137230127Y-102106320D01*
X136968974Y-101998147D01*
X136691735Y-101943000D01*
X136409065Y-101943000D01*
X136131826Y-101998147D01*
X135870673Y-102106320D01*
X135635641Y-102263363D01*
X135435763Y-102463241D01*
X135278720Y-102698273D01*
X135229600Y-102816859D01*
X135180480Y-102698273D01*
X135023437Y-102463241D01*
X134823559Y-102263363D01*
X134588527Y-102106320D01*
X134327374Y-101998147D01*
X134050135Y-101943000D01*
X133767465Y-101943000D01*
X133490226Y-101998147D01*
X133229073Y-102106320D01*
X132994041Y-102263363D01*
X132794163Y-102463241D01*
X132658800Y-102665827D01*
X132523437Y-102463241D01*
X132323559Y-102263363D01*
X132088527Y-102106320D01*
X131827374Y-101998147D01*
X131550135Y-101943000D01*
X131267465Y-101943000D01*
X130990226Y-101998147D01*
X130729073Y-102106320D01*
X130494041Y-102263363D01*
X130294163Y-102463241D01*
X130137120Y-102698273D01*
X130028947Y-102959426D01*
X129973800Y-103236665D01*
X129973800Y-103519335D01*
X130028947Y-103796574D01*
X130137120Y-104057727D01*
X130294163Y-104292759D01*
X130494041Y-104492637D01*
X130729073Y-104649680D01*
X130990226Y-104757853D01*
X131132734Y-104786200D01*
X131034114Y-104786200D01*
X130776195Y-104837504D01*
X130533241Y-104938139D01*
X130314587Y-105084238D01*
X130128638Y-105270187D01*
X129982539Y-105488841D01*
X129881904Y-105731795D01*
X129830600Y-105989714D01*
X129830600Y-106252686D01*
X129881904Y-106510605D01*
X129982539Y-106753559D01*
X130128638Y-106972213D01*
X130314587Y-107158162D01*
X130533241Y-107304261D01*
X130776195Y-107404896D01*
X131034114Y-107456200D01*
X131297086Y-107456200D01*
X131555005Y-107404896D01*
X131797959Y-107304261D01*
X132016613Y-107158162D01*
X132202562Y-106972213D01*
X132348661Y-106753559D01*
X132449296Y-106510605D01*
X132500600Y-106252686D01*
X132500600Y-105989714D01*
X132449296Y-105731795D01*
X132348661Y-105488841D01*
X132202562Y-105270187D01*
X132016613Y-105084238D01*
X131797959Y-104938139D01*
X131555005Y-104837504D01*
X131431817Y-104813000D01*
X131550135Y-104813000D01*
X131827374Y-104757853D01*
X132088527Y-104649680D01*
X132323559Y-104492637D01*
X132523437Y-104292759D01*
X132658800Y-104090173D01*
X132794163Y-104292759D01*
X132994041Y-104492637D01*
X133229073Y-104649680D01*
X133301201Y-104679556D01*
X133301200Y-110240443D01*
X133229601Y-110153199D01*
X133200603Y-110129401D01*
X126540800Y-103469599D01*
X126540800Y-100475839D01*
X130027696Y-100475839D01*
X130068354Y-100609887D01*
X130188563Y-100864220D01*
X130356081Y-101090214D01*
X130564469Y-101279185D01*
X130805719Y-101423870D01*
X131070560Y-101518709D01*
X131292600Y-101397424D01*
X131292600Y-100253800D01*
X131546600Y-100253800D01*
X131546600Y-101397424D01*
X131768640Y-101518709D01*
X132033481Y-101423870D01*
X132274731Y-101279185D01*
X132483119Y-101090214D01*
X132650637Y-100864220D01*
X132770846Y-100609887D01*
X132811504Y-100475839D01*
X132689515Y-100253800D01*
X131546600Y-100253800D01*
X131292600Y-100253800D01*
X130149685Y-100253800D01*
X130027696Y-100475839D01*
X126540800Y-100475839D01*
X126540800Y-94339828D01*
X126644562Y-94270497D01*
X126833297Y-94081762D01*
X126981585Y-93859833D01*
X127083728Y-93613239D01*
X127135800Y-93351456D01*
X127135800Y-93084544D01*
X127083728Y-92822761D01*
X126981585Y-92576167D01*
X126833297Y-92354238D01*
X126644562Y-92165503D01*
X126540800Y-92096172D01*
X126540800Y-91706800D01*
X129981528Y-91706800D01*
X129981528Y-93306800D01*
X129993788Y-93431282D01*
X130030098Y-93550980D01*
X130089063Y-93661294D01*
X130168415Y-93757985D01*
X130265106Y-93837337D01*
X130375420Y-93896302D01*
X130495118Y-93932612D01*
X130503561Y-93933443D01*
X130304963Y-94132041D01*
X130147920Y-94367073D01*
X130039747Y-94628226D01*
X129984600Y-94905465D01*
X129984600Y-95188135D01*
X130039747Y-95465374D01*
X130147920Y-95726527D01*
X130304963Y-95961559D01*
X130504841Y-96161437D01*
X130737359Y-96316800D01*
X130504841Y-96472163D01*
X130304963Y-96672041D01*
X130147920Y-96907073D01*
X130039747Y-97168226D01*
X129984600Y-97445465D01*
X129984600Y-97728135D01*
X130039747Y-98005374D01*
X130147920Y-98266527D01*
X130304963Y-98501559D01*
X130504841Y-98701437D01*
X130739873Y-98858480D01*
X130750465Y-98862867D01*
X130564469Y-98974415D01*
X130356081Y-99163386D01*
X130188563Y-99389380D01*
X130068354Y-99643713D01*
X130027696Y-99777761D01*
X130149685Y-99999800D01*
X131292600Y-99999800D01*
X131292600Y-99979800D01*
X131546600Y-99979800D01*
X131546600Y-99999800D01*
X132689515Y-99999800D01*
X132811504Y-99777761D01*
X132770846Y-99643713D01*
X132650637Y-99389380D01*
X132483119Y-99163386D01*
X132274731Y-98974415D01*
X132088735Y-98862867D01*
X132099327Y-98858480D01*
X132334359Y-98701437D01*
X132534237Y-98501559D01*
X132691280Y-98266527D01*
X132799453Y-98005374D01*
X132854600Y-97728135D01*
X132854600Y-97556601D01*
X135935800Y-100637802D01*
X135959599Y-100666801D01*
X135988597Y-100690599D01*
X136075323Y-100761774D01*
X136192734Y-100824532D01*
X136207353Y-100832346D01*
X136350614Y-100875803D01*
X136462267Y-100886800D01*
X136462277Y-100886800D01*
X136499600Y-100890476D01*
X136536923Y-100886800D01*
X137821557Y-100886800D01*
X137924963Y-101041559D01*
X138124841Y-101241437D01*
X138359873Y-101398480D01*
X138621026Y-101506653D01*
X138898265Y-101561800D01*
X139180935Y-101561800D01*
X139363486Y-101525488D01*
X139949005Y-102111008D01*
X139972799Y-102140001D01*
X140001792Y-102163795D01*
X140001796Y-102163799D01*
X140058640Y-102210449D01*
X140088524Y-102234974D01*
X140220553Y-102305546D01*
X140363814Y-102349003D01*
X140475467Y-102360000D01*
X140475476Y-102360000D01*
X140512799Y-102363676D01*
X140550122Y-102360000D01*
X140608572Y-102360000D01*
X140600704Y-102378995D01*
X140549400Y-102636914D01*
X140549400Y-102899886D01*
X140600704Y-103157805D01*
X140701339Y-103400759D01*
X140847438Y-103619413D01*
X141033387Y-103805362D01*
X141252041Y-103951461D01*
X141494995Y-104052096D01*
X141752914Y-104103400D01*
X142015886Y-104103400D01*
X142273805Y-104052096D01*
X142516759Y-103951461D01*
X142735413Y-103805362D01*
X142921362Y-103619413D01*
X143067461Y-103400759D01*
X143168096Y-103157805D01*
X143219400Y-102899886D01*
X143219400Y-102636914D01*
X143168096Y-102378995D01*
X143160228Y-102360000D01*
X143980678Y-102360000D01*
X144018000Y-102363676D01*
X144055322Y-102360000D01*
X144055333Y-102360000D01*
X144166986Y-102349003D01*
X144310247Y-102305546D01*
X144442276Y-102234974D01*
X144558001Y-102140001D01*
X144581804Y-102110997D01*
X148346002Y-98346800D01*
X148387957Y-98346800D01*
X148491363Y-98501559D01*
X148691241Y-98701437D01*
X148923759Y-98856800D01*
X148691241Y-99012163D01*
X148491363Y-99212041D01*
X148387957Y-99366800D01*
X148068525Y-99366800D01*
X148031200Y-99363124D01*
X147993875Y-99366800D01*
X147993867Y-99366800D01*
X147882214Y-99377797D01*
X147738953Y-99421254D01*
X147606924Y-99491826D01*
X147491199Y-99586799D01*
X147467401Y-99615797D01*
X141721999Y-105361200D01*
X139883375Y-105361200D01*
X139822562Y-105270187D01*
X139636613Y-105084238D01*
X139417959Y-104938139D01*
X139175005Y-104837504D01*
X139063921Y-104815408D01*
X139120912Y-104818217D01*
X139400530Y-104776787D01*
X139666692Y-104681603D01*
X139791914Y-104614671D01*
X139863497Y-104370702D01*
X139050400Y-103557605D01*
X138237303Y-104370702D01*
X138308886Y-104614671D01*
X138564396Y-104735571D01*
X138766376Y-104786200D01*
X138654114Y-104786200D01*
X138396195Y-104837504D01*
X138153241Y-104938139D01*
X137934587Y-105084238D01*
X137748638Y-105270187D01*
X137602539Y-105488841D01*
X137501904Y-105731795D01*
X137450600Y-105989714D01*
X137450600Y-106252686D01*
X137501904Y-106510605D01*
X137602539Y-106753559D01*
X137748638Y-106972213D01*
X137934587Y-107158162D01*
X138153241Y-107304261D01*
X138396195Y-107404896D01*
X138654114Y-107456200D01*
X138917086Y-107456200D01*
X139175005Y-107404896D01*
X139417959Y-107304261D01*
X139636613Y-107158162D01*
X139822562Y-106972213D01*
X139883375Y-106881200D01*
X141999478Y-106881200D01*
X142036800Y-106884876D01*
X142074122Y-106881200D01*
X142074133Y-106881200D01*
X142185786Y-106870203D01*
X142329047Y-106826746D01*
X142461076Y-106756174D01*
X142576801Y-106661201D01*
X142600604Y-106632197D01*
X145022344Y-104210457D01*
X145000788Y-104281518D01*
X144988528Y-104406000D01*
X144988528Y-105906000D01*
X145000788Y-106030482D01*
X145037098Y-106150180D01*
X145096063Y-106260494D01*
X145175415Y-106357185D01*
X145272106Y-106436537D01*
X145382420Y-106495502D01*
X145502118Y-106531812D01*
X145626600Y-106544072D01*
X146676600Y-106544072D01*
X146801082Y-106531812D01*
X146920780Y-106495502D01*
X146985502Y-106460907D01*
X147194201Y-106524215D01*
X147421600Y-106546612D01*
X147649000Y-106524215D01*
X147867660Y-106457885D01*
X147931600Y-106423708D01*
X147931601Y-108115868D01*
X147927924Y-108153200D01*
X147942598Y-108302185D01*
X147986054Y-108445446D01*
X148056626Y-108577476D01*
X148108134Y-108640238D01*
X148151600Y-108693201D01*
X148180598Y-108716999D01*
X151582201Y-112118603D01*
X151605999Y-112147601D01*
X151721724Y-112242574D01*
X151853753Y-112313146D01*
X151997014Y-112356603D01*
X152108667Y-112367600D01*
X152108676Y-112367600D01*
X152145999Y-112371276D01*
X152183322Y-112367600D01*
X163995878Y-112367600D01*
X164033200Y-112371276D01*
X164070522Y-112367600D01*
X164070533Y-112367600D01*
X164182186Y-112356603D01*
X164325447Y-112313146D01*
X164457476Y-112242574D01*
X164573201Y-112147601D01*
X164597004Y-112118597D01*
X165724757Y-110990845D01*
X165832114Y-111012200D01*
X166095086Y-111012200D01*
X166353005Y-110960896D01*
X166595959Y-110860261D01*
X166814613Y-110714162D01*
X167000562Y-110528213D01*
X167146661Y-110309559D01*
X167247296Y-110066605D01*
X167298600Y-109808686D01*
X167298600Y-109545714D01*
X167247296Y-109287795D01*
X167146661Y-109044841D01*
X167000562Y-108826187D01*
X166814613Y-108640238D01*
X166595959Y-108494139D01*
X166353005Y-108393504D01*
X166095086Y-108342200D01*
X165832114Y-108342200D01*
X165574195Y-108393504D01*
X165331241Y-108494139D01*
X165112587Y-108640238D01*
X164926638Y-108826187D01*
X164780539Y-109044841D01*
X164679904Y-109287795D01*
X164628600Y-109545714D01*
X164628600Y-109808686D01*
X164649955Y-109916043D01*
X163718399Y-110847600D01*
X158994908Y-110847600D01*
X159194613Y-110714162D01*
X159380562Y-110528213D01*
X159526661Y-110309559D01*
X159627296Y-110066605D01*
X159678600Y-109808686D01*
X159678600Y-109545714D01*
X159627296Y-109287795D01*
X159526661Y-109044841D01*
X159380562Y-108826187D01*
X159194613Y-108640238D01*
X158975959Y-108494139D01*
X158733005Y-108393504D01*
X158475086Y-108342200D01*
X158212114Y-108342200D01*
X157954195Y-108393504D01*
X157711241Y-108494139D01*
X157492587Y-108640238D01*
X157306638Y-108826187D01*
X157160539Y-109044841D01*
X157059904Y-109287795D01*
X157008600Y-109545714D01*
X157008600Y-109808686D01*
X157059904Y-110066605D01*
X157160539Y-110309559D01*
X157306638Y-110528213D01*
X157492587Y-110714162D01*
X157692292Y-110847600D01*
X156930142Y-110847600D01*
X156932072Y-110828000D01*
X156932072Y-108628000D01*
X156919812Y-108503518D01*
X156883502Y-108383820D01*
X156824537Y-108273506D01*
X156745185Y-108176815D01*
X156648494Y-108097463D01*
X156538180Y-108038498D01*
X156418482Y-108002188D01*
X156294000Y-107989928D01*
X154094000Y-107989928D01*
X153969518Y-108002188D01*
X153849820Y-108038498D01*
X153739506Y-108097463D01*
X153642815Y-108176815D01*
X153563463Y-108273506D01*
X153504498Y-108383820D01*
X153468188Y-108503518D01*
X153455928Y-108628000D01*
X153455928Y-110828000D01*
X153457858Y-110847600D01*
X152460802Y-110847600D01*
X149451600Y-107838399D01*
X149451600Y-106257909D01*
X149515812Y-106205212D01*
X149660771Y-106028579D01*
X149768485Y-105827059D01*
X149834815Y-105608399D01*
X149851600Y-105437978D01*
X149851600Y-104874021D01*
X149834815Y-104703600D01*
X149776991Y-104512980D01*
X151215837Y-104512980D01*
X151286829Y-104731094D01*
X151430431Y-105006923D01*
X151625085Y-105249437D01*
X151863311Y-105449316D01*
X152135954Y-105598879D01*
X152432537Y-105692378D01*
X152679400Y-105565570D01*
X152679400Y-104267000D01*
X152933400Y-104267000D01*
X152933400Y-105565570D01*
X153180263Y-105692378D01*
X153476846Y-105598879D01*
X153749489Y-105449316D01*
X153987715Y-105249437D01*
X154182369Y-105006923D01*
X154325971Y-104731094D01*
X154396963Y-104512980D01*
X154276994Y-104267000D01*
X152933400Y-104267000D01*
X152679400Y-104267000D01*
X151335806Y-104267000D01*
X151215837Y-104512980D01*
X149776991Y-104512980D01*
X149768485Y-104484940D01*
X149660771Y-104283421D01*
X149515812Y-104106788D01*
X149339178Y-103961829D01*
X149137807Y-103854194D01*
X151184187Y-101807815D01*
X151194370Y-101911204D01*
X151285145Y-102210449D01*
X151432555Y-102486235D01*
X151630937Y-102727963D01*
X151810299Y-102875163D01*
X151625085Y-103030563D01*
X151430431Y-103273077D01*
X151286829Y-103548906D01*
X151215837Y-103767020D01*
X151335806Y-104013000D01*
X152679400Y-104013000D01*
X152679400Y-103993000D01*
X152933400Y-103993000D01*
X152933400Y-104013000D01*
X154276994Y-104013000D01*
X154396963Y-103767020D01*
X154325971Y-103548906D01*
X154182369Y-103273077D01*
X153987715Y-103030563D01*
X153802501Y-102875163D01*
X153981863Y-102727963D01*
X154180245Y-102486235D01*
X154327655Y-102210449D01*
X154418430Y-101911204D01*
X154449081Y-101600000D01*
X154418430Y-101288796D01*
X154327655Y-100989551D01*
X154180245Y-100713765D01*
X154076954Y-100587905D01*
X154160894Y-100543037D01*
X154257585Y-100463685D01*
X154336937Y-100366994D01*
X154395902Y-100256680D01*
X154432212Y-100136982D01*
X154444472Y-100012500D01*
X154444472Y-98107500D01*
X154432212Y-97983018D01*
X154395902Y-97863320D01*
X154336937Y-97753006D01*
X154257585Y-97656315D01*
X154160894Y-97576963D01*
X154050580Y-97517998D01*
X153930882Y-97481688D01*
X153806400Y-97469428D01*
X151890000Y-97469428D01*
X151890000Y-96608122D01*
X151893676Y-96570799D01*
X151890000Y-96533476D01*
X151890000Y-96533467D01*
X151883671Y-96469200D01*
X155879800Y-96469200D01*
X155879800Y-106730800D01*
X155892001Y-106854682D01*
X155928136Y-106973804D01*
X155986817Y-107083587D01*
X156065787Y-107179813D01*
X156162013Y-107258783D01*
X156271796Y-107317464D01*
X156390918Y-107353599D01*
X156514800Y-107365800D01*
X172364400Y-107365800D01*
X172488282Y-107353599D01*
X172607404Y-107317464D01*
X172717187Y-107258783D01*
X172813413Y-107179813D01*
X172892383Y-107083587D01*
X172951064Y-106973804D01*
X172987199Y-106854682D01*
X172999400Y-106730800D01*
X172999400Y-96469200D01*
X172987199Y-96345318D01*
X172951064Y-96226196D01*
X172892383Y-96116413D01*
X172813413Y-96020187D01*
X172717187Y-95941217D01*
X172607404Y-95882536D01*
X172488282Y-95846401D01*
X172364400Y-95834200D01*
X156514800Y-95834200D01*
X156390918Y-95846401D01*
X156271796Y-95882536D01*
X156162013Y-95941217D01*
X156065787Y-96020187D01*
X155986817Y-96116413D01*
X155928136Y-96226196D01*
X155892001Y-96345318D01*
X155879800Y-96469200D01*
X151883671Y-96469200D01*
X151879003Y-96421814D01*
X151835546Y-96278553D01*
X151764974Y-96146524D01*
X151740263Y-96116413D01*
X151693799Y-96059796D01*
X151693795Y-96059792D01*
X151670001Y-96030799D01*
X151641008Y-96007005D01*
X151004688Y-95370686D01*
X151041000Y-95188135D01*
X151041000Y-94905465D01*
X150985853Y-94628226D01*
X150877680Y-94367073D01*
X150720637Y-94132041D01*
X150520759Y-93932163D01*
X150288241Y-93776800D01*
X150520759Y-93621437D01*
X150720637Y-93421559D01*
X150877680Y-93186527D01*
X150985853Y-92925374D01*
X151041000Y-92648135D01*
X151041000Y-92365465D01*
X150985853Y-92088226D01*
X150877680Y-91827073D01*
X150720637Y-91592041D01*
X150668196Y-91539600D01*
X156557928Y-91539600D01*
X156557928Y-92689200D01*
X156570188Y-92813682D01*
X156606498Y-92933380D01*
X156665463Y-93043694D01*
X156744815Y-93140385D01*
X156841506Y-93219737D01*
X156951820Y-93278702D01*
X157071518Y-93315012D01*
X157196000Y-93327272D01*
X159796000Y-93327272D01*
X159920482Y-93315012D01*
X160040180Y-93278702D01*
X160150494Y-93219737D01*
X160247185Y-93140385D01*
X160326537Y-93043694D01*
X160385502Y-92933380D01*
X160421812Y-92813682D01*
X160434072Y-92689200D01*
X160434072Y-91198619D01*
X161561000Y-91198619D01*
X161561000Y-91579781D01*
X161635361Y-91953619D01*
X161781225Y-92305766D01*
X161992987Y-92622691D01*
X162262509Y-92892213D01*
X162579434Y-93103975D01*
X162931581Y-93249839D01*
X163305419Y-93324200D01*
X163686581Y-93324200D01*
X164060419Y-93249839D01*
X164412566Y-93103975D01*
X164729491Y-92892213D01*
X164999013Y-92622691D01*
X165210775Y-92305766D01*
X165356639Y-91953619D01*
X165431000Y-91579781D01*
X165431000Y-91198619D01*
X165356639Y-90824781D01*
X165210775Y-90472634D01*
X164999013Y-90155709D01*
X164729491Y-89886187D01*
X164412566Y-89674425D01*
X164060419Y-89528561D01*
X163686581Y-89454200D01*
X163305419Y-89454200D01*
X162931581Y-89528561D01*
X162579434Y-89674425D01*
X162262509Y-89886187D01*
X161992987Y-90155709D01*
X161781225Y-90472634D01*
X161635361Y-90824781D01*
X161561000Y-91198619D01*
X160434072Y-91198619D01*
X160434072Y-90089200D01*
X160421812Y-89964718D01*
X160385502Y-89845020D01*
X160326537Y-89734706D01*
X160247185Y-89638015D01*
X160150494Y-89558663D01*
X160040180Y-89499698D01*
X159920482Y-89463388D01*
X159796000Y-89451128D01*
X157196000Y-89451128D01*
X157071518Y-89463388D01*
X156951820Y-89499698D01*
X156841506Y-89558663D01*
X156744815Y-89638015D01*
X156665463Y-89734706D01*
X156606498Y-89845020D01*
X156570188Y-89964718D01*
X156564783Y-90019600D01*
X152904425Y-90019600D01*
X152927712Y-90014968D01*
X153225263Y-89891718D01*
X153493052Y-89712787D01*
X153720787Y-89485052D01*
X153899718Y-89217263D01*
X153952547Y-89089721D01*
X168565000Y-89089721D01*
X168565000Y-89510279D01*
X168647047Y-89922756D01*
X168807988Y-90311302D01*
X169041637Y-90660983D01*
X169339017Y-90958363D01*
X169688698Y-91192012D01*
X170077244Y-91352953D01*
X170489721Y-91435000D01*
X170910279Y-91435000D01*
X171322756Y-91352953D01*
X171711302Y-91192012D01*
X172060983Y-90958363D01*
X172358363Y-90660983D01*
X172592012Y-90311302D01*
X172752953Y-89922756D01*
X172835000Y-89510279D01*
X172835000Y-89089721D01*
X172752953Y-88677244D01*
X172592012Y-88288698D01*
X172358363Y-87939017D01*
X172060983Y-87641637D01*
X171711302Y-87407988D01*
X171322756Y-87247047D01*
X170910279Y-87165000D01*
X170489721Y-87165000D01*
X170077244Y-87247047D01*
X169688698Y-87407988D01*
X169339017Y-87641637D01*
X169041637Y-87939017D01*
X168807988Y-88288698D01*
X168647047Y-88677244D01*
X168565000Y-89089721D01*
X153952547Y-89089721D01*
X154022968Y-88919712D01*
X154085800Y-88603833D01*
X154085800Y-88281767D01*
X154022968Y-87965888D01*
X153899718Y-87668337D01*
X153720787Y-87400548D01*
X153493052Y-87172813D01*
X153225263Y-86993882D01*
X152927712Y-86870632D01*
X152611833Y-86807800D01*
X152289767Y-86807800D01*
X151973888Y-86870632D01*
X151676337Y-86993882D01*
X151408548Y-87172813D01*
X151180813Y-87400548D01*
X151001882Y-87668337D01*
X150878632Y-87965888D01*
X150815800Y-88281767D01*
X150815800Y-88603833D01*
X150878632Y-88919712D01*
X151001882Y-89217263D01*
X151180813Y-89485052D01*
X151408548Y-89712787D01*
X151676337Y-89891718D01*
X151973888Y-90014968D01*
X151997175Y-90019600D01*
X148830533Y-90019600D01*
X148793200Y-90015923D01*
X148755867Y-90019600D01*
X148644214Y-90030597D01*
X148500953Y-90074054D01*
X148368924Y-90144626D01*
X148253199Y-90239599D01*
X148229401Y-90268597D01*
X143421000Y-95076999D01*
X143421000Y-94905465D01*
X143365853Y-94628226D01*
X143257680Y-94367073D01*
X143100637Y-94132041D01*
X142902039Y-93933443D01*
X142910482Y-93932612D01*
X143030180Y-93896302D01*
X143140494Y-93837337D01*
X143237185Y-93757985D01*
X143316537Y-93661294D01*
X143375502Y-93550980D01*
X143411812Y-93431282D01*
X143424072Y-93306800D01*
X143424072Y-91706800D01*
X143411812Y-91582318D01*
X143375502Y-91462620D01*
X143316537Y-91352306D01*
X143237185Y-91255615D01*
X143140494Y-91176263D01*
X143030180Y-91117298D01*
X142910482Y-91080988D01*
X142786000Y-91068728D01*
X141186000Y-91068728D01*
X141061518Y-91080988D01*
X140941820Y-91117298D01*
X140831506Y-91176263D01*
X140734815Y-91255615D01*
X140655463Y-91352306D01*
X140596498Y-91462620D01*
X140560188Y-91582318D01*
X140547928Y-91706800D01*
X140547928Y-93306800D01*
X140560188Y-93431282D01*
X140596498Y-93550980D01*
X140655463Y-93661294D01*
X140734815Y-93757985D01*
X140831506Y-93837337D01*
X140941820Y-93896302D01*
X141061518Y-93932612D01*
X141069961Y-93933443D01*
X140871363Y-94132041D01*
X140714320Y-94367073D01*
X140606147Y-94628226D01*
X140551000Y-94905465D01*
X140551000Y-95188135D01*
X140606147Y-95465374D01*
X140714320Y-95726527D01*
X140871363Y-95961559D01*
X141071241Y-96161437D01*
X141303759Y-96316800D01*
X141071241Y-96472163D01*
X140871363Y-96672041D01*
X140714320Y-96907073D01*
X140606147Y-97168226D01*
X140551000Y-97445465D01*
X140551000Y-97728135D01*
X140606147Y-98005374D01*
X140714320Y-98266527D01*
X140871363Y-98501559D01*
X141071241Y-98701437D01*
X141306273Y-98858480D01*
X141316865Y-98862867D01*
X141130869Y-98974415D01*
X140922481Y-99163386D01*
X140754963Y-99389380D01*
X140634754Y-99643713D01*
X140594096Y-99777761D01*
X140716085Y-99999800D01*
X141859000Y-99999800D01*
X141859000Y-99979800D01*
X142113000Y-99979800D01*
X142113000Y-99999800D01*
X143255915Y-99999800D01*
X143377904Y-99777761D01*
X143337246Y-99643713D01*
X143217037Y-99389380D01*
X143049519Y-99163386D01*
X142841131Y-98974415D01*
X142655135Y-98862867D01*
X142665727Y-98858480D01*
X142900759Y-98701437D01*
X143100637Y-98501559D01*
X143257680Y-98266527D01*
X143365853Y-98005374D01*
X143421000Y-97728135D01*
X143421000Y-97445465D01*
X143384688Y-97262913D01*
X148171000Y-92476602D01*
X148171000Y-92648135D01*
X148226147Y-92925374D01*
X148334320Y-93186527D01*
X148491363Y-93421559D01*
X148691241Y-93621437D01*
X148923759Y-93776800D01*
X148691241Y-93932163D01*
X148491363Y-94132041D01*
X148334320Y-94367073D01*
X148226147Y-94628226D01*
X148171000Y-94905465D01*
X148171000Y-95188135D01*
X148226147Y-95465374D01*
X148334320Y-95726527D01*
X148491363Y-95961559D01*
X148691241Y-96161437D01*
X148923759Y-96316800D01*
X148691241Y-96472163D01*
X148491363Y-96672041D01*
X148387957Y-96826800D01*
X148068523Y-96826800D01*
X148031200Y-96823124D01*
X147993877Y-96826800D01*
X147993867Y-96826800D01*
X147882214Y-96837797D01*
X147738953Y-96881254D01*
X147606924Y-96951826D01*
X147491199Y-97046799D01*
X147467401Y-97075797D01*
X143703199Y-100840000D01*
X143228484Y-100840000D01*
X143337246Y-100609887D01*
X143377904Y-100475839D01*
X143255915Y-100253800D01*
X142113000Y-100253800D01*
X142113000Y-100273800D01*
X141859000Y-100273800D01*
X141859000Y-100253800D01*
X140716085Y-100253800D01*
X140594096Y-100475839D01*
X140634754Y-100609887D01*
X140668152Y-100680550D01*
X140438288Y-100450686D01*
X140474600Y-100268135D01*
X140474600Y-99985465D01*
X140419453Y-99708226D01*
X140311280Y-99447073D01*
X140154237Y-99212041D01*
X139954359Y-99012163D01*
X139721841Y-98856800D01*
X139954359Y-98701437D01*
X140154237Y-98501559D01*
X140311280Y-98266527D01*
X140419453Y-98005374D01*
X140474600Y-97728135D01*
X140474600Y-97445465D01*
X140419453Y-97168226D01*
X140311280Y-96907073D01*
X140154237Y-96672041D01*
X139954359Y-96472163D01*
X139721841Y-96316800D01*
X139954359Y-96161437D01*
X140154237Y-95961559D01*
X140311280Y-95726527D01*
X140419453Y-95465374D01*
X140474600Y-95188135D01*
X140474600Y-94905465D01*
X140419453Y-94628226D01*
X140311280Y-94367073D01*
X140154237Y-94132041D01*
X139954359Y-93932163D01*
X139721841Y-93776800D01*
X139954359Y-93621437D01*
X140154237Y-93421559D01*
X140311280Y-93186527D01*
X140419453Y-92925374D01*
X140474600Y-92648135D01*
X140474600Y-92365465D01*
X140419453Y-92088226D01*
X140311280Y-91827073D01*
X140154237Y-91592041D01*
X139954359Y-91392163D01*
X139719327Y-91235120D01*
X139458174Y-91126947D01*
X139180935Y-91071800D01*
X138898265Y-91071800D01*
X138621026Y-91126947D01*
X138359873Y-91235120D01*
X138124841Y-91392163D01*
X137924963Y-91592041D01*
X137767920Y-91827073D01*
X137659747Y-92088226D01*
X137604600Y-92365465D01*
X137604600Y-92648135D01*
X137659747Y-92925374D01*
X137767920Y-93186527D01*
X137924963Y-93421559D01*
X138124841Y-93621437D01*
X138357359Y-93776800D01*
X138124841Y-93932163D01*
X137924963Y-94132041D01*
X137767920Y-94367073D01*
X137659747Y-94628226D01*
X137604600Y-94905465D01*
X137604600Y-95188135D01*
X137659747Y-95465374D01*
X137767920Y-95726527D01*
X137924963Y-95961559D01*
X138124841Y-96161437D01*
X138357359Y-96316800D01*
X138124841Y-96472163D01*
X137924963Y-96672041D01*
X137767920Y-96907073D01*
X137659747Y-97168226D01*
X137604600Y-97445465D01*
X137604600Y-97728135D01*
X137659747Y-98005374D01*
X137767920Y-98266527D01*
X137924963Y-98501559D01*
X138124841Y-98701437D01*
X138357359Y-98856800D01*
X138124841Y-99012163D01*
X137924963Y-99212041D01*
X137821557Y-99366800D01*
X136814402Y-99366800D01*
X132818288Y-95370687D01*
X132854600Y-95188135D01*
X132854600Y-94905465D01*
X132799453Y-94628226D01*
X132691280Y-94367073D01*
X132534237Y-94132041D01*
X132335639Y-93933443D01*
X132344082Y-93932612D01*
X132463780Y-93896302D01*
X132574094Y-93837337D01*
X132670785Y-93757985D01*
X132750137Y-93661294D01*
X132809102Y-93550980D01*
X132845412Y-93431282D01*
X132857672Y-93306800D01*
X132857672Y-91706800D01*
X132845412Y-91582318D01*
X132809102Y-91462620D01*
X132750137Y-91352306D01*
X132670785Y-91255615D01*
X132574094Y-91176263D01*
X132463780Y-91117298D01*
X132344082Y-91080988D01*
X132219600Y-91068728D01*
X130619600Y-91068728D01*
X130495118Y-91080988D01*
X130375420Y-91117298D01*
X130265106Y-91176263D01*
X130168415Y-91255615D01*
X130089063Y-91352306D01*
X130030098Y-91462620D01*
X129993788Y-91582318D01*
X129981528Y-91706800D01*
X126540800Y-91706800D01*
X126540800Y-91196001D01*
X129865618Y-87871184D01*
X129847432Y-87915088D01*
X129784600Y-88230967D01*
X129784600Y-88553033D01*
X129847432Y-88868912D01*
X129970682Y-89166463D01*
X130149613Y-89434252D01*
X130377348Y-89661987D01*
X130645137Y-89840918D01*
X130942688Y-89964168D01*
X131258567Y-90027000D01*
X131580633Y-90027000D01*
X131896512Y-89964168D01*
X132194063Y-89840918D01*
X132461852Y-89661987D01*
X132689587Y-89434252D01*
X132756638Y-89333902D01*
X134659703Y-89333902D01*
X134731286Y-89577871D01*
X134986796Y-89698771D01*
X135260984Y-89767500D01*
X135543312Y-89781417D01*
X135822930Y-89739987D01*
X136089092Y-89644803D01*
X136214314Y-89577871D01*
X136285897Y-89333902D01*
X135472800Y-88520805D01*
X134659703Y-89333902D01*
X132756638Y-89333902D01*
X132868518Y-89166463D01*
X132991768Y-88868912D01*
X133054600Y-88553033D01*
X133054600Y-88411712D01*
X134032583Y-88411712D01*
X134074013Y-88691330D01*
X134169197Y-88957492D01*
X134236129Y-89082714D01*
X134480098Y-89154297D01*
X135293195Y-88341200D01*
X134480098Y-87528103D01*
X134236129Y-87599686D01*
X134115229Y-87855196D01*
X134046500Y-88129384D01*
X134032583Y-88411712D01*
X133054600Y-88411712D01*
X133054600Y-88230967D01*
X132991768Y-87915088D01*
X132868518Y-87617537D01*
X132689587Y-87349748D01*
X132612239Y-87272400D01*
X134682031Y-87272400D01*
X134659703Y-87348498D01*
X135472800Y-88161595D01*
X135486943Y-88147453D01*
X135666548Y-88327058D01*
X135652405Y-88341200D01*
X136465502Y-89154297D01*
X136709471Y-89082714D01*
X136723124Y-89053859D01*
X136858163Y-89255959D01*
X137058041Y-89455837D01*
X137293073Y-89612880D01*
X137554226Y-89721053D01*
X137831465Y-89776200D01*
X138114135Y-89776200D01*
X138391374Y-89721053D01*
X138652527Y-89612880D01*
X138887559Y-89455837D01*
X139087437Y-89255959D01*
X139244480Y-89020927D01*
X139352653Y-88759774D01*
X139407800Y-88482535D01*
X139407800Y-88281767D01*
X140554200Y-88281767D01*
X140554200Y-88603833D01*
X140617032Y-88919712D01*
X140740282Y-89217263D01*
X140919213Y-89485052D01*
X141146948Y-89712787D01*
X141414737Y-89891718D01*
X141712288Y-90014968D01*
X142028167Y-90077800D01*
X142350233Y-90077800D01*
X142666112Y-90014968D01*
X142963663Y-89891718D01*
X143231452Y-89712787D01*
X143459187Y-89485052D01*
X143560182Y-89333902D01*
X145226103Y-89333902D01*
X145297686Y-89577871D01*
X145553196Y-89698771D01*
X145827384Y-89767500D01*
X146109712Y-89781417D01*
X146389330Y-89739987D01*
X146655492Y-89644803D01*
X146780714Y-89577871D01*
X146852297Y-89333902D01*
X146039200Y-88520805D01*
X145226103Y-89333902D01*
X143560182Y-89333902D01*
X143638118Y-89217263D01*
X143761368Y-88919712D01*
X143824200Y-88603833D01*
X143824200Y-88411712D01*
X144598983Y-88411712D01*
X144640413Y-88691330D01*
X144735597Y-88957492D01*
X144802529Y-89082714D01*
X145046498Y-89154297D01*
X145859595Y-88341200D01*
X146218805Y-88341200D01*
X147031902Y-89154297D01*
X147275871Y-89082714D01*
X147289524Y-89053859D01*
X147424563Y-89255959D01*
X147624441Y-89455837D01*
X147859473Y-89612880D01*
X148120626Y-89721053D01*
X148397865Y-89776200D01*
X148680535Y-89776200D01*
X148957774Y-89721053D01*
X149218927Y-89612880D01*
X149453959Y-89455837D01*
X149653837Y-89255959D01*
X149810880Y-89020927D01*
X149919053Y-88759774D01*
X149974200Y-88482535D01*
X149974200Y-88199865D01*
X149919053Y-87922626D01*
X149810880Y-87661473D01*
X149653837Y-87426441D01*
X149453959Y-87226563D01*
X149218927Y-87069520D01*
X148957774Y-86961347D01*
X148680535Y-86906200D01*
X148397865Y-86906200D01*
X148120626Y-86961347D01*
X147859473Y-87069520D01*
X147624441Y-87226563D01*
X147424563Y-87426441D01*
X147290508Y-87627069D01*
X147275871Y-87599686D01*
X147031902Y-87528103D01*
X146218805Y-88341200D01*
X145859595Y-88341200D01*
X145046498Y-87528103D01*
X144802529Y-87599686D01*
X144681629Y-87855196D01*
X144612900Y-88129384D01*
X144598983Y-88411712D01*
X143824200Y-88411712D01*
X143824200Y-88281767D01*
X143761368Y-87965888D01*
X143638118Y-87668337D01*
X143459187Y-87400548D01*
X143407137Y-87348498D01*
X145226103Y-87348498D01*
X146039200Y-88161595D01*
X146852297Y-87348498D01*
X146780714Y-87104529D01*
X146525204Y-86983629D01*
X146251016Y-86914900D01*
X145968688Y-86900983D01*
X145689070Y-86942413D01*
X145422908Y-87037597D01*
X145297686Y-87104529D01*
X145226103Y-87348498D01*
X143407137Y-87348498D01*
X143231452Y-87172813D01*
X142963663Y-86993882D01*
X142666112Y-86870632D01*
X142350233Y-86807800D01*
X142028167Y-86807800D01*
X141712288Y-86870632D01*
X141414737Y-86993882D01*
X141146948Y-87172813D01*
X140919213Y-87400548D01*
X140740282Y-87668337D01*
X140617032Y-87965888D01*
X140554200Y-88281767D01*
X139407800Y-88281767D01*
X139407800Y-88199865D01*
X139352653Y-87922626D01*
X139244480Y-87661473D01*
X139087437Y-87426441D01*
X138887559Y-87226563D01*
X138652527Y-87069520D01*
X138391374Y-86961347D01*
X138114135Y-86906200D01*
X137831465Y-86906200D01*
X137648914Y-86942512D01*
X137391401Y-86685000D01*
X173315000Y-86685000D01*
X173315001Y-120315000D01*
X112685000Y-120315000D01*
X112685000Y-117489721D01*
X113165000Y-117489721D01*
X113165000Y-117910279D01*
X113247047Y-118322756D01*
X113407988Y-118711302D01*
X113641637Y-119060983D01*
X113939017Y-119358363D01*
X114288698Y-119592012D01*
X114677244Y-119752953D01*
X115089721Y-119835000D01*
X115510279Y-119835000D01*
X115922756Y-119752953D01*
X116311302Y-119592012D01*
X116660983Y-119358363D01*
X116958363Y-119060983D01*
X117192012Y-118711302D01*
X117352953Y-118322756D01*
X117435000Y-117910279D01*
X117435000Y-117489721D01*
X117420683Y-117417744D01*
X122901800Y-117417744D01*
X122901800Y-117684656D01*
X122953872Y-117946439D01*
X123056015Y-118193033D01*
X123204303Y-118414962D01*
X123393038Y-118603697D01*
X123614967Y-118751985D01*
X123861561Y-118854128D01*
X124123344Y-118906200D01*
X124390256Y-118906200D01*
X124652039Y-118854128D01*
X124898633Y-118751985D01*
X125120562Y-118603697D01*
X125309297Y-118414962D01*
X125457585Y-118193033D01*
X125559728Y-117946439D01*
X125611800Y-117684656D01*
X125611800Y-117417744D01*
X125559728Y-117155961D01*
X125457585Y-116909367D01*
X125309297Y-116687438D01*
X125120562Y-116498703D01*
X124898633Y-116350415D01*
X124652039Y-116248272D01*
X124390256Y-116196200D01*
X124123344Y-116196200D01*
X123861561Y-116248272D01*
X123614967Y-116350415D01*
X123393038Y-116498703D01*
X123204303Y-116687438D01*
X123056015Y-116909367D01*
X122953872Y-117155961D01*
X122901800Y-117417744D01*
X117420683Y-117417744D01*
X117352953Y-117077244D01*
X117192012Y-116688698D01*
X116958363Y-116339017D01*
X116660983Y-116041637D01*
X116311302Y-115807988D01*
X115922756Y-115647047D01*
X115510279Y-115565000D01*
X115089721Y-115565000D01*
X114677244Y-115647047D01*
X114288698Y-115807988D01*
X113939017Y-116041637D01*
X113641637Y-116339017D01*
X113407988Y-116688698D01*
X113247047Y-117077244D01*
X113165000Y-117489721D01*
X112685000Y-117489721D01*
X112685000Y-114877744D01*
X120361800Y-114877744D01*
X120361800Y-115144656D01*
X120413872Y-115406439D01*
X120516015Y-115653033D01*
X120664303Y-115874962D01*
X120853038Y-116063697D01*
X121074967Y-116211985D01*
X121321561Y-116314128D01*
X121583344Y-116366200D01*
X121850256Y-116366200D01*
X122112039Y-116314128D01*
X122358633Y-116211985D01*
X122580562Y-116063697D01*
X122769297Y-115874962D01*
X122917585Y-115653033D01*
X123019728Y-115406439D01*
X123071800Y-115144656D01*
X123071800Y-114877744D01*
X123019728Y-114615961D01*
X122917585Y-114369367D01*
X122769297Y-114147438D01*
X122580562Y-113958703D01*
X122358633Y-113810415D01*
X122112039Y-113708272D01*
X121850256Y-113656200D01*
X121583344Y-113656200D01*
X121321561Y-113708272D01*
X121074967Y-113810415D01*
X120853038Y-113958703D01*
X120664303Y-114147438D01*
X120516015Y-114369367D01*
X120413872Y-114615961D01*
X120361800Y-114877744D01*
X112685000Y-114877744D01*
X112685000Y-106597344D01*
X122952600Y-106597344D01*
X122952600Y-106864256D01*
X123004672Y-107126039D01*
X123106815Y-107372633D01*
X123255103Y-107594562D01*
X123443838Y-107783297D01*
X123665767Y-107931585D01*
X123912361Y-108033728D01*
X124174144Y-108085800D01*
X124441056Y-108085800D01*
X124702839Y-108033728D01*
X124949433Y-107931585D01*
X125171362Y-107783297D01*
X125360097Y-107594562D01*
X125508385Y-107372633D01*
X125610528Y-107126039D01*
X125662600Y-106864256D01*
X125662600Y-106597344D01*
X125610528Y-106335561D01*
X125508385Y-106088967D01*
X125360097Y-105867038D01*
X125171362Y-105678303D01*
X124949433Y-105530015D01*
X124702839Y-105427872D01*
X124441056Y-105375800D01*
X124174144Y-105375800D01*
X123912361Y-105427872D01*
X123665767Y-105530015D01*
X123443838Y-105678303D01*
X123255103Y-105867038D01*
X123106815Y-106088967D01*
X123004672Y-106335561D01*
X122952600Y-106597344D01*
X112685000Y-106597344D01*
X112685000Y-102687714D01*
X113371400Y-102687714D01*
X113371400Y-102950686D01*
X113422704Y-103208605D01*
X113523339Y-103451559D01*
X113669438Y-103670213D01*
X113855387Y-103856162D01*
X114074041Y-104002261D01*
X114316995Y-104102896D01*
X114574914Y-104154200D01*
X114837886Y-104154200D01*
X115095805Y-104102896D01*
X115205777Y-104057344D01*
X120412600Y-104057344D01*
X120412600Y-104324256D01*
X120464672Y-104586039D01*
X120566815Y-104832633D01*
X120715103Y-105054562D01*
X120903838Y-105243297D01*
X121125767Y-105391585D01*
X121372361Y-105493728D01*
X121634144Y-105545800D01*
X121901056Y-105545800D01*
X122162839Y-105493728D01*
X122409433Y-105391585D01*
X122631362Y-105243297D01*
X122820097Y-105054562D01*
X122968385Y-104832633D01*
X123070528Y-104586039D01*
X123122600Y-104324256D01*
X123122600Y-104057344D01*
X123070528Y-103795561D01*
X122968385Y-103548967D01*
X122820097Y-103327038D01*
X122631362Y-103138303D01*
X122409433Y-102990015D01*
X122162839Y-102887872D01*
X121901056Y-102835800D01*
X121634144Y-102835800D01*
X121372361Y-102887872D01*
X121125767Y-102990015D01*
X120903838Y-103138303D01*
X120715103Y-103327038D01*
X120566815Y-103548967D01*
X120464672Y-103795561D01*
X120412600Y-104057344D01*
X115205777Y-104057344D01*
X115338759Y-104002261D01*
X115557413Y-103856162D01*
X115743362Y-103670213D01*
X115889461Y-103451559D01*
X115990096Y-103208605D01*
X116041400Y-102950686D01*
X116041400Y-102687714D01*
X115990096Y-102429795D01*
X115889461Y-102186841D01*
X115743362Y-101968187D01*
X115557413Y-101782238D01*
X115338759Y-101636139D01*
X115095805Y-101535504D01*
X114837886Y-101484200D01*
X114574914Y-101484200D01*
X114316995Y-101535504D01*
X114074041Y-101636139D01*
X113855387Y-101782238D01*
X113669438Y-101968187D01*
X113523339Y-102186841D01*
X113422704Y-102429795D01*
X113371400Y-102687714D01*
X112685000Y-102687714D01*
X112685000Y-98641102D01*
X115214103Y-98641102D01*
X115285686Y-98885071D01*
X115541196Y-99005971D01*
X115815384Y-99074700D01*
X116097712Y-99088617D01*
X116377330Y-99047187D01*
X116643492Y-98952003D01*
X116768714Y-98885071D01*
X116840297Y-98641102D01*
X116027200Y-97828005D01*
X115214103Y-98641102D01*
X112685000Y-98641102D01*
X112685000Y-97718912D01*
X114586983Y-97718912D01*
X114628413Y-97998530D01*
X114723597Y-98264692D01*
X114790529Y-98389914D01*
X115034498Y-98461497D01*
X115847595Y-97648400D01*
X116206805Y-97648400D01*
X117019902Y-98461497D01*
X117263871Y-98389914D01*
X117384771Y-98134404D01*
X117453500Y-97860216D01*
X117467417Y-97577888D01*
X117425987Y-97298270D01*
X117330803Y-97032108D01*
X117263871Y-96906886D01*
X117019902Y-96835303D01*
X116206805Y-97648400D01*
X115847595Y-97648400D01*
X115034498Y-96835303D01*
X114790529Y-96906886D01*
X114669629Y-97162396D01*
X114600900Y-97436584D01*
X114586983Y-97718912D01*
X112685000Y-97718912D01*
X112685000Y-95007065D01*
X114592200Y-95007065D01*
X114592200Y-95289735D01*
X114647347Y-95566974D01*
X114755520Y-95828127D01*
X114912563Y-96063159D01*
X115112441Y-96263037D01*
X115313069Y-96397092D01*
X115285686Y-96411729D01*
X115214103Y-96655698D01*
X116027200Y-97468795D01*
X116840297Y-96655698D01*
X116768714Y-96411729D01*
X116739859Y-96398076D01*
X116941959Y-96263037D01*
X117141837Y-96063159D01*
X117298880Y-95828127D01*
X117407053Y-95566974D01*
X117462200Y-95289735D01*
X117462200Y-95007065D01*
X117407053Y-94729826D01*
X117298880Y-94468673D01*
X117141837Y-94233641D01*
X117061756Y-94153560D01*
X119944845Y-94153560D01*
X120006732Y-94389368D01*
X120248590Y-94502266D01*
X120507827Y-94565811D01*
X120774480Y-94577561D01*
X121038301Y-94537063D01*
X121289153Y-94445875D01*
X121394868Y-94389368D01*
X121456755Y-94153560D01*
X120700800Y-93397605D01*
X119944845Y-94153560D01*
X117061756Y-94153560D01*
X116941959Y-94033763D01*
X116706927Y-93876720D01*
X116445774Y-93768547D01*
X116168535Y-93713400D01*
X115885865Y-93713400D01*
X115608626Y-93768547D01*
X115347473Y-93876720D01*
X115112441Y-94033763D01*
X114912563Y-94233641D01*
X114755520Y-94468673D01*
X114647347Y-94729826D01*
X114592200Y-95007065D01*
X112685000Y-95007065D01*
X112685000Y-93291680D01*
X119341239Y-93291680D01*
X119381737Y-93555501D01*
X119472925Y-93806353D01*
X119529432Y-93912068D01*
X119765240Y-93973955D01*
X120521195Y-93218000D01*
X120880405Y-93218000D01*
X121636360Y-93973955D01*
X121872168Y-93912068D01*
X121985066Y-93670210D01*
X122048611Y-93410973D01*
X122060361Y-93144320D01*
X122019863Y-92880499D01*
X121928675Y-92629647D01*
X121872168Y-92523932D01*
X121636360Y-92462045D01*
X120880405Y-93218000D01*
X120521195Y-93218000D01*
X119765240Y-92462045D01*
X119529432Y-92523932D01*
X119416534Y-92765790D01*
X119352989Y-93025027D01*
X119341239Y-93291680D01*
X112685000Y-93291680D01*
X112685000Y-92282440D01*
X119944845Y-92282440D01*
X120700800Y-93038395D01*
X121456755Y-92282440D01*
X121394868Y-92046632D01*
X121153010Y-91933734D01*
X120893773Y-91870189D01*
X120627120Y-91858439D01*
X120363299Y-91898937D01*
X120112447Y-91990125D01*
X120006732Y-92046632D01*
X119944845Y-92282440D01*
X112685000Y-92282440D01*
X112685000Y-89089721D01*
X113165000Y-89089721D01*
X113165000Y-89510279D01*
X113247047Y-89922756D01*
X113407988Y-90311302D01*
X113641637Y-90660983D01*
X113939017Y-90958363D01*
X114288698Y-91192012D01*
X114677244Y-91352953D01*
X115089721Y-91435000D01*
X115510279Y-91435000D01*
X115922756Y-91352953D01*
X116311302Y-91192012D01*
X116660983Y-90958363D01*
X116958363Y-90660983D01*
X117036164Y-90544544D01*
X121885800Y-90544544D01*
X121885800Y-90811456D01*
X121937872Y-91073239D01*
X122040015Y-91319833D01*
X122188303Y-91541762D01*
X122377038Y-91730497D01*
X122598967Y-91878785D01*
X122845561Y-91980928D01*
X123107344Y-92033000D01*
X123374256Y-92033000D01*
X123636039Y-91980928D01*
X123882633Y-91878785D01*
X124104562Y-91730497D01*
X124293297Y-91541762D01*
X124441585Y-91319833D01*
X124543728Y-91073239D01*
X124595800Y-90811456D01*
X124595800Y-90544544D01*
X124543728Y-90282761D01*
X124441585Y-90036167D01*
X124293297Y-89814238D01*
X124104562Y-89625503D01*
X123882633Y-89477215D01*
X123636039Y-89375072D01*
X123374256Y-89323000D01*
X123107344Y-89323000D01*
X122845561Y-89375072D01*
X122598967Y-89477215D01*
X122377038Y-89625503D01*
X122188303Y-89814238D01*
X122040015Y-90036167D01*
X121937872Y-90282761D01*
X121885800Y-90544544D01*
X117036164Y-90544544D01*
X117192012Y-90311302D01*
X117352953Y-89922756D01*
X117435000Y-89510279D01*
X117435000Y-89089721D01*
X117352953Y-88677244D01*
X117192012Y-88288698D01*
X116958363Y-87939017D01*
X116660983Y-87641637D01*
X116311302Y-87407988D01*
X115922756Y-87247047D01*
X115510279Y-87165000D01*
X115089721Y-87165000D01*
X114677244Y-87247047D01*
X114288698Y-87407988D01*
X113939017Y-87641637D01*
X113641637Y-87939017D01*
X113407988Y-88288698D01*
X113247047Y-88677244D01*
X113165000Y-89089721D01*
X112685000Y-89089721D01*
X112685000Y-86685000D01*
X128902198Y-86685000D01*
X125269798Y-90317401D01*
G37*
%TD.AperFunction*%
%TD*%
D28*
%TO.N,Net-(D1-Pad2)*%
X172237400Y-106603800D02*
X156641800Y-106603800D01*
X156641800Y-101365098D01*
X167081400Y-101365098D01*
X167081400Y-101834902D01*
X167173054Y-102295679D01*
X167352840Y-102729721D01*
X167613850Y-103120349D01*
X167946051Y-103452550D01*
X168336679Y-103713560D01*
X168770721Y-103893346D01*
X169231498Y-103985000D01*
X169701302Y-103985000D01*
X170162079Y-103893346D01*
X170596121Y-103713560D01*
X170986749Y-103452550D01*
X171318950Y-103120349D01*
X171579960Y-102729721D01*
X171759746Y-102295679D01*
X171851400Y-101834902D01*
X171851400Y-101365098D01*
X171759746Y-100904321D01*
X171579960Y-100470279D01*
X171318950Y-100079651D01*
X170986749Y-99747450D01*
X170596121Y-99486440D01*
X170162079Y-99306654D01*
X169701302Y-99215000D01*
X169231498Y-99215000D01*
X168770721Y-99306654D01*
X168336679Y-99486440D01*
X167946051Y-99747450D01*
X167613850Y-100079651D01*
X167352840Y-100470279D01*
X167173054Y-100904321D01*
X167081400Y-101365098D01*
X156641800Y-101365098D01*
X156641800Y-96596200D01*
X172237400Y-96596200D01*
X172237400Y-106603800D01*
%TA.AperFunction,Conductor*%
D29*
G36*
X172237400Y-106603800D02*
G01*
X156641800Y-106603800D01*
X156641800Y-101365098D01*
X167081400Y-101365098D01*
X167081400Y-101834902D01*
X167173054Y-102295679D01*
X167352840Y-102729721D01*
X167613850Y-103120349D01*
X167946051Y-103452550D01*
X168336679Y-103713560D01*
X168770721Y-103893346D01*
X169231498Y-103985000D01*
X169701302Y-103985000D01*
X170162079Y-103893346D01*
X170596121Y-103713560D01*
X170986749Y-103452550D01*
X171318950Y-103120349D01*
X171579960Y-102729721D01*
X171759746Y-102295679D01*
X171851400Y-101834902D01*
X171851400Y-101365098D01*
X171759746Y-100904321D01*
X171579960Y-100470279D01*
X171318950Y-100079651D01*
X170986749Y-99747450D01*
X170596121Y-99486440D01*
X170162079Y-99306654D01*
X169701302Y-99215000D01*
X169231498Y-99215000D01*
X168770721Y-99306654D01*
X168336679Y-99486440D01*
X167946051Y-99747450D01*
X167613850Y-100079651D01*
X167352840Y-100470279D01*
X167173054Y-100904321D01*
X167081400Y-101365098D01*
X156641800Y-101365098D01*
X156641800Y-96596200D01*
X172237400Y-96596200D01*
X172237400Y-106603800D01*
G37*
%TD.AperFunction*%
%TD*%
M02*
