M48
METRIC,TZ
T1C0.400
T2C0.700
T3C0.750
T4C0.800
T5C1.000
T6C1.100
T7C1.300
T8C2.600
%
G90
G05
T1
X157480Y-97536
X157480Y-99517
X157480Y-101600
X157480Y-103632
X157480Y-105664
X159512Y-97536
X159512Y-99517
X159512Y-101600
X159512Y-103632
X159512Y-105664
X161544Y-97536
X161544Y-99568
X161544Y-101600
X161544Y-103632
X161544Y-105664
X163576Y-97536
X163576Y-99568
X163576Y-101600
X163576Y-103632
X163576Y-105664
X165608Y-97536
X165608Y-99568
X165608Y-101600
X165608Y-103632
X165608Y-105664
X167640Y-97536
X167640Y-99568
X167640Y-103632
X167640Y-105664
X169672Y-97536
X169672Y-99111
X169672Y-104140
X169672Y-105664
X171704Y-97536
X171704Y-99568
X171704Y-103632
X171704Y-105664
T2
X131166Y-106121
X138786Y-106121
X114706Y-102819
X114706Y-110439
X141884Y-102768
X141884Y-110388
X158344Y-109677
X165964Y-109677
T3
X146152Y-105156
X147422Y-105156
X148692Y-105156
T4
X131409Y-103378
X133909Y-103378
X136550Y-103378
X139050Y-103378
X146039Y-88341
X148539Y-88341
X116027Y-95148
X116027Y-97648
X141986Y-92507
X141986Y-95047
X141986Y-97587
X141986Y-100127
X149606Y-92507
X149606Y-95047
X149606Y-97587
X149606Y-100127
X132690Y-113132
X135230Y-115672
X137770Y-113132
X121768Y-104191
X124308Y-101651
X124308Y-106731
X121717Y-115011
X124257Y-112471
X124257Y-117551
X135473Y-88341
X137973Y-88341
X131420Y-92507
X131420Y-95047
X131420Y-97587
X131420Y-100127
X139040Y-92507
X139040Y-95047
X139040Y-97587
X139040Y-100127
X120701Y-93218
X123241Y-90678
X125781Y-93218
T5
X152451Y-88443
X131420Y-88392
X142189Y-88443
T6
X152806Y-99060
X152806Y-101600
X152806Y-104140
X145034Y-109728
X155194Y-109728
T7
X158496Y-91389
X163496Y-91389
X143844Y-115976
X148844Y-115976
X155151Y-115976
X160151Y-115976
X165151Y-115976
T8
X115300Y-89300
X115300Y-117700
X170700Y-89300
X170700Y-117700
T0
M30
