%TF.GenerationSoftware,KiCad,Pcbnew,5.1.8-db9833491~88~ubuntu18.04.1*%
%TF.CreationDate,2020-12-20T18:34:58-05:00*%
%TF.ProjectId,PWMMotorController,50574d4d-6f74-46f7-9243-6f6e74726f6c,rev?*%
%TF.SameCoordinates,Original*%
%TF.FileFunction,Legend,Top*%
%TF.FilePolarity,Positive*%
%FSLAX46Y46*%
G04 Gerber Fmt 4.6, Leading zero omitted, Abs format (unit mm)*
G04 Created by KiCad (PCBNEW 5.1.8-db9833491~88~ubuntu18.04.1) date 2020-12-20 18:34:58*
%MOMM*%
%LPD*%
G01*
G04 APERTURE LIST*
%ADD10C,0.120000*%
%ADD11C,0.150000*%
%ADD12C,0.125000*%
G04 APERTURE END LIST*
D10*
%TO.C,C1*%
X115102200Y-98218400D02*
X114857200Y-98218400D01*
X117197200Y-98218400D02*
X116952200Y-98218400D01*
X115102200Y-94578400D02*
X114857200Y-94578400D01*
X117197200Y-94578400D02*
X116952200Y-94578400D01*
X114857200Y-94578400D02*
X114857200Y-98218400D01*
X117197200Y-94578400D02*
X117197200Y-98218400D01*
%TO.C,C2*%
X134478800Y-104548000D02*
X130838800Y-104548000D01*
X134478800Y-102208000D02*
X130838800Y-102208000D01*
X134478800Y-104548000D02*
X134478800Y-104303000D01*
X134478800Y-102453000D02*
X134478800Y-102208000D01*
X130838800Y-104548000D02*
X130838800Y-104303000D01*
X130838800Y-102453000D02*
X130838800Y-102208000D01*
%TO.C,C3*%
X139620400Y-104303000D02*
X139620400Y-104548000D01*
X139620400Y-102208000D02*
X139620400Y-102453000D01*
X135980400Y-104303000D02*
X135980400Y-104548000D01*
X135980400Y-102208000D02*
X135980400Y-102453000D01*
X135980400Y-104548000D02*
X139620400Y-104548000D01*
X135980400Y-102208000D02*
X139620400Y-102208000D01*
%TO.C,C4*%
X134902800Y-87416200D02*
X134902800Y-87171200D01*
X134902800Y-89511200D02*
X134902800Y-89266200D01*
X138542800Y-87416200D02*
X138542800Y-87171200D01*
X138542800Y-89511200D02*
X138542800Y-89266200D01*
X138542800Y-87171200D02*
X134902800Y-87171200D01*
X138542800Y-89511200D02*
X134902800Y-89511200D01*
%TO.C,C5*%
X149109200Y-89511200D02*
X145469200Y-89511200D01*
X149109200Y-87171200D02*
X145469200Y-87171200D01*
X149109200Y-89511200D02*
X149109200Y-89266200D01*
X149109200Y-87416200D02*
X149109200Y-87171200D01*
X145469200Y-89511200D02*
X145469200Y-89266200D01*
X145469200Y-87416200D02*
X145469200Y-87171200D01*
%TO.C,D1*%
X152054000Y-111198000D02*
X152054000Y-108258000D01*
X151814000Y-111198000D02*
X151814000Y-108258000D01*
X151934000Y-111198000D02*
X151934000Y-108258000D01*
X146374000Y-109728000D02*
X147394000Y-109728000D01*
X153854000Y-109728000D02*
X152834000Y-109728000D01*
X147394000Y-111198000D02*
X152834000Y-111198000D01*
X147394000Y-108258000D02*
X147394000Y-111198000D01*
X152834000Y-108258000D02*
X147394000Y-108258000D01*
X152834000Y-111198000D02*
X152834000Y-108258000D01*
%TO.C,Q1*%
X145621600Y-107006000D02*
X149221600Y-107006000D01*
X145583122Y-106994478D02*
G75*
G02*
X147421600Y-102556000I1838478J1838478D01*
G01*
X149260078Y-106994478D02*
G75*
G03*
X147421600Y-102556000I-1838478J1838478D01*
G01*
%TO.C,R1*%
X126735800Y-86563000D02*
X126735800Y-87322000D01*
X127949800Y-88082000D02*
X125520800Y-88082000D01*
X127949800Y-86563000D02*
X125520800Y-86563000D01*
X125520800Y-86563000D02*
X125520800Y-88082000D01*
X127949800Y-86563000D02*
X127949800Y-88082000D01*
X128125800Y-98353000D02*
X118355800Y-98353000D01*
X128125800Y-88083000D02*
X118355800Y-88083000D01*
X118355800Y-88083000D02*
X118355800Y-98353000D01*
X128125800Y-88083000D02*
X128125800Y-98353000D01*
%TO.C,R2*%
X119172600Y-99305800D02*
X129442600Y-99305800D01*
X119172600Y-109075800D02*
X129442600Y-109075800D01*
X119172600Y-99305800D02*
X119172600Y-109075800D01*
X129442600Y-99305800D02*
X129442600Y-109075800D01*
X117652600Y-99481800D02*
X119171600Y-99481800D01*
X117652600Y-101910800D02*
X119171600Y-101910800D01*
X117652600Y-99481800D02*
X117652600Y-101910800D01*
X119171600Y-99481800D02*
X119171600Y-101910800D01*
X117652600Y-100695800D02*
X118411600Y-100695800D01*
%TO.C,R3*%
X114706400Y-109499200D02*
X114706400Y-108549200D01*
X114706400Y-103759200D02*
X114706400Y-104709200D01*
X115626400Y-108549200D02*
X115626400Y-104709200D01*
X113786400Y-108549200D02*
X115626400Y-108549200D01*
X113786400Y-104709200D02*
X113786400Y-108549200D01*
X115626400Y-104709200D02*
X113786400Y-104709200D01*
%TO.C,R4*%
X117601800Y-111516200D02*
X118360800Y-111516200D01*
X119120800Y-110302200D02*
X119120800Y-112731200D01*
X117601800Y-110302200D02*
X117601800Y-112731200D01*
X117601800Y-112731200D02*
X119120800Y-112731200D01*
X117601800Y-110302200D02*
X119120800Y-110302200D01*
X129391800Y-110126200D02*
X129391800Y-119896200D01*
X119121800Y-110126200D02*
X119121800Y-119896200D01*
X119121800Y-119896200D02*
X129391800Y-119896200D01*
X119121800Y-110126200D02*
X129391800Y-110126200D01*
%TO.C,R5*%
X130344600Y-118266600D02*
X130344600Y-107996600D01*
X140114600Y-118266600D02*
X140114600Y-107996600D01*
X130344600Y-118266600D02*
X140114600Y-118266600D01*
X130344600Y-107996600D02*
X140114600Y-107996600D01*
X130520600Y-119786600D02*
X130520600Y-118267600D01*
X132949600Y-119786600D02*
X132949600Y-118267600D01*
X130520600Y-119786600D02*
X132949600Y-119786600D01*
X130520600Y-118267600D02*
X132949600Y-118267600D01*
X131734600Y-119786600D02*
X131734600Y-119027600D01*
%TO.C,R6*%
X136895600Y-107041200D02*
X136895600Y-105201200D01*
X136895600Y-105201200D02*
X133055600Y-105201200D01*
X133055600Y-105201200D02*
X133055600Y-107041200D01*
X133055600Y-107041200D02*
X136895600Y-107041200D01*
X137845600Y-106121200D02*
X136895600Y-106121200D01*
X132105600Y-106121200D02*
X133055600Y-106121200D01*
%TO.C,R7*%
X165023600Y-109677200D02*
X164073600Y-109677200D01*
X159283600Y-109677200D02*
X160233600Y-109677200D01*
X164073600Y-108757200D02*
X160233600Y-108757200D01*
X164073600Y-110597200D02*
X164073600Y-108757200D01*
X160233600Y-110597200D02*
X164073600Y-110597200D01*
X160233600Y-108757200D02*
X160233600Y-110597200D01*
%TO.C,R8*%
X141884400Y-109448400D02*
X141884400Y-108498400D01*
X141884400Y-103708400D02*
X141884400Y-104658400D01*
X142804400Y-108498400D02*
X142804400Y-104658400D01*
X140964400Y-108498400D02*
X142804400Y-108498400D01*
X140964400Y-104658400D02*
X140964400Y-108498400D01*
X142804400Y-104658400D02*
X140964400Y-104658400D01*
%TO.C,TP1*%
X132919600Y-88392000D02*
G75*
G03*
X132919600Y-88392000I-1500000J0D01*
G01*
%TO.C,TP2*%
X143689200Y-88442800D02*
G75*
G03*
X143689200Y-88442800I-1500000J0D01*
G01*
%TO.C,TP3*%
X153950800Y-88442800D02*
G75*
G03*
X153950800Y-88442800I-1500000J0D01*
G01*
%TO.C,U1*%
X134229600Y-91176800D02*
X132579600Y-91176800D01*
X132579600Y-91176800D02*
X132579600Y-101456800D01*
X132579600Y-101456800D02*
X137879600Y-101456800D01*
X137879600Y-101456800D02*
X137879600Y-91176800D01*
X137879600Y-91176800D02*
X136229600Y-91176800D01*
X136229600Y-91176800D02*
G75*
G02*
X134229600Y-91176800I-1000000J0D01*
G01*
%TO.C,U2*%
X148446000Y-91176800D02*
X146796000Y-91176800D01*
X148446000Y-101456800D02*
X148446000Y-91176800D01*
X143146000Y-101456800D02*
X148446000Y-101456800D01*
X143146000Y-91176800D02*
X143146000Y-101456800D01*
X144796000Y-91176800D02*
X143146000Y-91176800D01*
X146796000Y-91176800D02*
G75*
G02*
X144796000Y-91176800I-1000000J0D01*
G01*
%TO.C,Q2*%
X156496400Y-96480000D02*
X156496400Y-106720000D01*
X172386400Y-96480000D02*
X172386400Y-106720000D01*
X172386400Y-96480000D02*
X156496400Y-96480000D01*
X172386400Y-106720000D02*
X156496400Y-106720000D01*
X156496400Y-99060000D02*
X153956400Y-99060000D01*
X156496400Y-101600000D02*
X153956400Y-101600000D01*
X156496400Y-104140000D02*
X153956400Y-104140000D01*
%TO.C,J3*%
X155696000Y-95689200D02*
X156196000Y-95689200D01*
X155696000Y-94949200D02*
X155696000Y-95689200D01*
X164496000Y-87089200D02*
X164496000Y-88089200D01*
X162496000Y-87089200D02*
X162496000Y-88089200D01*
X162496000Y-88089200D02*
X164496000Y-88089200D01*
X162496000Y-87089200D02*
X164496000Y-87089200D01*
X162269000Y-92412200D02*
X162222000Y-92458200D01*
X164566000Y-90114200D02*
X164531000Y-90150200D01*
X162462000Y-92628200D02*
X162427000Y-92663200D01*
X164771000Y-90320200D02*
X164724000Y-90366200D01*
X159496000Y-87089200D02*
X159496000Y-88089200D01*
X157496000Y-87089200D02*
X157496000Y-88089200D01*
X157496000Y-88089200D02*
X159496000Y-88089200D01*
X157496000Y-87089200D02*
X159496000Y-87089200D01*
X166056000Y-87029200D02*
X166056000Y-95449200D01*
X155936000Y-87029200D02*
X155936000Y-95449200D01*
X155936000Y-95449200D02*
X166056000Y-95449200D01*
X155936000Y-87029200D02*
X166056000Y-87029200D01*
X155936000Y-89088200D02*
X166056000Y-89088200D01*
X155936000Y-93389200D02*
X166056000Y-93389200D01*
X155936000Y-94889200D02*
X166056000Y-94889200D01*
X165176000Y-91389200D02*
G75*
G03*
X165176000Y-91389200I-1680000J0D01*
G01*
X159179318Y-92923956D02*
G75*
G02*
X158496000Y-93069200I-683318J1534756D01*
G01*
X160031426Y-90706158D02*
G75*
G02*
X160031000Y-92073200I-1535426J-683042D01*
G01*
X157812958Y-89853774D02*
G75*
G02*
X159180000Y-89854200I683042J-1535426D01*
G01*
X156960574Y-92072242D02*
G75*
G02*
X156961000Y-90705200I1535426J683042D01*
G01*
X158524805Y-93069453D02*
G75*
G02*
X157812000Y-92924200I-28805J1680253D01*
G01*
%TO.C,J1*%
X167950800Y-111676400D02*
X167450800Y-111676400D01*
X167950800Y-112416400D02*
X167950800Y-111676400D01*
X154150800Y-120276400D02*
X154150800Y-119276400D01*
X156150800Y-120276400D02*
X156150800Y-119276400D01*
X156150800Y-119276400D02*
X154150800Y-119276400D01*
X156150800Y-120276400D02*
X154150800Y-120276400D01*
X156377800Y-114953400D02*
X156424800Y-114907400D01*
X154080800Y-117251400D02*
X154115800Y-117215400D01*
X156184800Y-114737400D02*
X156219800Y-114702400D01*
X153875800Y-117045400D02*
X153922800Y-116999400D01*
X159150800Y-120276400D02*
X159150800Y-119276400D01*
X161150800Y-120276400D02*
X161150800Y-119276400D01*
X161150800Y-119276400D02*
X159150800Y-119276400D01*
X161150800Y-120276400D02*
X159150800Y-120276400D01*
X161377800Y-114953400D02*
X161424800Y-114907400D01*
X159080800Y-117251400D02*
X159115800Y-117215400D01*
X161184800Y-114737400D02*
X161219800Y-114702400D01*
X158875800Y-117045400D02*
X158922800Y-116999400D01*
X164150800Y-120276400D02*
X164150800Y-119276400D01*
X166150800Y-120276400D02*
X166150800Y-119276400D01*
X166150800Y-119276400D02*
X164150800Y-119276400D01*
X166150800Y-120276400D02*
X164150800Y-120276400D01*
X152590800Y-120336400D02*
X152590800Y-111916400D01*
X167710800Y-120336400D02*
X167710800Y-111916400D01*
X167710800Y-111916400D02*
X152590800Y-111916400D01*
X167710800Y-120336400D02*
X152590800Y-120336400D01*
X167710800Y-118277400D02*
X152590800Y-118277400D01*
X167710800Y-113976400D02*
X152590800Y-113976400D01*
X167710800Y-112476400D02*
X152590800Y-112476400D01*
X156830800Y-115976400D02*
G75*
G03*
X156830800Y-115976400I-1680000J0D01*
G01*
X161830800Y-115976400D02*
G75*
G03*
X161830800Y-115976400I-1680000J0D01*
G01*
X164467482Y-114441644D02*
G75*
G02*
X165150800Y-114296400I683318J-1534756D01*
G01*
X163615374Y-116659442D02*
G75*
G02*
X163615800Y-115292400I1535426J683042D01*
G01*
X165833842Y-117511826D02*
G75*
G02*
X164466800Y-117511400I-683042J1535426D01*
G01*
X166686226Y-115293358D02*
G75*
G02*
X166685800Y-116660400I-1535426J-683042D01*
G01*
X165121995Y-114296147D02*
G75*
G02*
X165834800Y-114441400I28805J-1680253D01*
G01*
%TO.C,J2*%
X151644000Y-111676400D02*
X151144000Y-111676400D01*
X151644000Y-112416400D02*
X151644000Y-111676400D01*
X142844000Y-120276400D02*
X142844000Y-119276400D01*
X144844000Y-120276400D02*
X144844000Y-119276400D01*
X144844000Y-119276400D02*
X142844000Y-119276400D01*
X144844000Y-120276400D02*
X142844000Y-120276400D01*
X145071000Y-114953400D02*
X145118000Y-114907400D01*
X142774000Y-117251400D02*
X142809000Y-117215400D01*
X144878000Y-114737400D02*
X144913000Y-114702400D01*
X142569000Y-117045400D02*
X142616000Y-116999400D01*
X147844000Y-120276400D02*
X147844000Y-119276400D01*
X149844000Y-120276400D02*
X149844000Y-119276400D01*
X149844000Y-119276400D02*
X147844000Y-119276400D01*
X149844000Y-120276400D02*
X147844000Y-120276400D01*
X141284000Y-120336400D02*
X141284000Y-111916400D01*
X151404000Y-120336400D02*
X151404000Y-111916400D01*
X151404000Y-111916400D02*
X141284000Y-111916400D01*
X151404000Y-120336400D02*
X141284000Y-120336400D01*
X151404000Y-118277400D02*
X141284000Y-118277400D01*
X151404000Y-113976400D02*
X141284000Y-113976400D01*
X151404000Y-112476400D02*
X141284000Y-112476400D01*
X145524000Y-115976400D02*
G75*
G03*
X145524000Y-115976400I-1680000J0D01*
G01*
X148160682Y-114441644D02*
G75*
G02*
X148844000Y-114296400I683318J-1534756D01*
G01*
X147308574Y-116659442D02*
G75*
G02*
X147309000Y-115292400I1535426J683042D01*
G01*
X149527042Y-117511826D02*
G75*
G02*
X148160000Y-117511400I-683042J1535426D01*
G01*
X150379426Y-115293358D02*
G75*
G02*
X150379000Y-116660400I-1535426J-683042D01*
G01*
X148815195Y-114296147D02*
G75*
G02*
X149528000Y-114441400I28805J-1680253D01*
G01*
%TO.C,C1*%
D11*
X114415457Y-98524600D02*
X114451171Y-98560314D01*
X114486885Y-98667457D01*
X114486885Y-98738885D01*
X114451171Y-98846028D01*
X114379742Y-98917457D01*
X114308314Y-98953171D01*
X114165457Y-98988885D01*
X114058314Y-98988885D01*
X113915457Y-98953171D01*
X113844028Y-98917457D01*
X113772600Y-98846028D01*
X113736885Y-98738885D01*
X113736885Y-98667457D01*
X113772600Y-98560314D01*
X113808314Y-98524600D01*
X114486885Y-97810314D02*
X114486885Y-98238885D01*
X114486885Y-98024600D02*
X113736885Y-98024600D01*
X113844028Y-98096028D01*
X113915457Y-98167457D01*
X113951171Y-98238885D01*
X113736885Y-96986142D02*
X113736885Y-96914714D01*
X113772600Y-96843285D01*
X113808314Y-96807571D01*
X113879742Y-96771857D01*
X114022600Y-96736142D01*
X114201171Y-96736142D01*
X114344028Y-96771857D01*
X114415457Y-96807571D01*
X114451171Y-96843285D01*
X114486885Y-96914714D01*
X114486885Y-96986142D01*
X114451171Y-97057571D01*
X114415457Y-97093285D01*
X114344028Y-97129000D01*
X114201171Y-97164714D01*
X114022600Y-97164714D01*
X113879742Y-97129000D01*
X113808314Y-97093285D01*
X113772600Y-97057571D01*
X113736885Y-96986142D01*
X114415457Y-96414714D02*
X114451171Y-96379000D01*
X114486885Y-96414714D01*
X114451171Y-96450428D01*
X114415457Y-96414714D01*
X114486885Y-96414714D01*
X113736885Y-95914714D02*
X113736885Y-95843285D01*
X113772600Y-95771857D01*
X113808314Y-95736142D01*
X113879742Y-95700428D01*
X114022600Y-95664714D01*
X114201171Y-95664714D01*
X114344028Y-95700428D01*
X114415457Y-95736142D01*
X114451171Y-95771857D01*
X114486885Y-95843285D01*
X114486885Y-95914714D01*
X114451171Y-95986142D01*
X114415457Y-96021857D01*
X114344028Y-96057571D01*
X114201171Y-96093285D01*
X114022600Y-96093285D01*
X113879742Y-96057571D01*
X113808314Y-96021857D01*
X113772600Y-95986142D01*
X113736885Y-95914714D01*
X114486885Y-94950428D02*
X114486885Y-95379000D01*
X114486885Y-95164714D02*
X113736885Y-95164714D01*
X113844028Y-95236142D01*
X113915457Y-95307571D01*
X113951171Y-95379000D01*
X113986885Y-94307571D02*
X114486885Y-94307571D01*
X113986885Y-94629000D02*
X114379742Y-94629000D01*
X114451171Y-94593285D01*
X114486885Y-94521857D01*
X114486885Y-94414714D01*
X114451171Y-94343285D01*
X114415457Y-94307571D01*
X113986885Y-94057571D02*
X113986885Y-93771857D01*
X114486885Y-93950428D02*
X113844028Y-93950428D01*
X113772600Y-93914714D01*
X113736885Y-93843285D01*
X113736885Y-93771857D01*
%TO.C,C2*%
X134241000Y-104915857D02*
X134205285Y-104951571D01*
X134098142Y-104987285D01*
X134026714Y-104987285D01*
X133919571Y-104951571D01*
X133848142Y-104880142D01*
X133812428Y-104808714D01*
X133776714Y-104665857D01*
X133776714Y-104558714D01*
X133812428Y-104415857D01*
X133848142Y-104344428D01*
X133919571Y-104273000D01*
X134026714Y-104237285D01*
X134098142Y-104237285D01*
X134205285Y-104273000D01*
X134241000Y-104308714D01*
X134526714Y-104308714D02*
X134562428Y-104273000D01*
X134633857Y-104237285D01*
X134812428Y-104237285D01*
X134883857Y-104273000D01*
X134919571Y-104308714D01*
X134955285Y-104380142D01*
X134955285Y-104451571D01*
X134919571Y-104558714D01*
X134491000Y-104987285D01*
X134955285Y-104987285D01*
X130140657Y-104237285D02*
X130212085Y-104237285D01*
X130283514Y-104273000D01*
X130319228Y-104308714D01*
X130354942Y-104380142D01*
X130390657Y-104523000D01*
X130390657Y-104701571D01*
X130354942Y-104844428D01*
X130319228Y-104915857D01*
X130283514Y-104951571D01*
X130212085Y-104987285D01*
X130140657Y-104987285D01*
X130069228Y-104951571D01*
X130033514Y-104915857D01*
X129997800Y-104844428D01*
X129962085Y-104701571D01*
X129962085Y-104523000D01*
X129997800Y-104380142D01*
X130033514Y-104308714D01*
X130069228Y-104273000D01*
X130140657Y-104237285D01*
X130712085Y-104915857D02*
X130747800Y-104951571D01*
X130712085Y-104987285D01*
X130676371Y-104951571D01*
X130712085Y-104915857D01*
X130712085Y-104987285D01*
X131212085Y-104237285D02*
X131283514Y-104237285D01*
X131354942Y-104273000D01*
X131390657Y-104308714D01*
X131426371Y-104380142D01*
X131462085Y-104523000D01*
X131462085Y-104701571D01*
X131426371Y-104844428D01*
X131390657Y-104915857D01*
X131354942Y-104951571D01*
X131283514Y-104987285D01*
X131212085Y-104987285D01*
X131140657Y-104951571D01*
X131104942Y-104915857D01*
X131069228Y-104844428D01*
X131033514Y-104701571D01*
X131033514Y-104523000D01*
X131069228Y-104380142D01*
X131104942Y-104308714D01*
X131140657Y-104273000D01*
X131212085Y-104237285D01*
X132176371Y-104987285D02*
X131747800Y-104987285D01*
X131962085Y-104987285D02*
X131962085Y-104237285D01*
X131890657Y-104344428D01*
X131819228Y-104415857D01*
X131747800Y-104451571D01*
X132819228Y-104487285D02*
X132819228Y-104987285D01*
X132497800Y-104487285D02*
X132497800Y-104880142D01*
X132533514Y-104951571D01*
X132604942Y-104987285D01*
X132712085Y-104987285D01*
X132783514Y-104951571D01*
X132819228Y-104915857D01*
X133069228Y-104487285D02*
X133354942Y-104487285D01*
X133176371Y-104987285D02*
X133176371Y-104344428D01*
X133212085Y-104273000D01*
X133283514Y-104237285D01*
X133354942Y-104237285D01*
%TO.C,C3*%
X139676600Y-104865057D02*
X139640885Y-104900771D01*
X139533742Y-104936485D01*
X139462314Y-104936485D01*
X139355171Y-104900771D01*
X139283742Y-104829342D01*
X139248028Y-104757914D01*
X139212314Y-104615057D01*
X139212314Y-104507914D01*
X139248028Y-104365057D01*
X139283742Y-104293628D01*
X139355171Y-104222200D01*
X139462314Y-104186485D01*
X139533742Y-104186485D01*
X139640885Y-104222200D01*
X139676600Y-104257914D01*
X139926600Y-104186485D02*
X140390885Y-104186485D01*
X140140885Y-104472200D01*
X140248028Y-104472200D01*
X140319457Y-104507914D01*
X140355171Y-104543628D01*
X140390885Y-104615057D01*
X140390885Y-104793628D01*
X140355171Y-104865057D01*
X140319457Y-104900771D01*
X140248028Y-104936485D01*
X140033742Y-104936485D01*
X139962314Y-104900771D01*
X139926600Y-104865057D01*
X135576257Y-104186485D02*
X135647685Y-104186485D01*
X135719114Y-104222200D01*
X135754828Y-104257914D01*
X135790542Y-104329342D01*
X135826257Y-104472200D01*
X135826257Y-104650771D01*
X135790542Y-104793628D01*
X135754828Y-104865057D01*
X135719114Y-104900771D01*
X135647685Y-104936485D01*
X135576257Y-104936485D01*
X135504828Y-104900771D01*
X135469114Y-104865057D01*
X135433400Y-104793628D01*
X135397685Y-104650771D01*
X135397685Y-104472200D01*
X135433400Y-104329342D01*
X135469114Y-104257914D01*
X135504828Y-104222200D01*
X135576257Y-104186485D01*
X136147685Y-104865057D02*
X136183400Y-104900771D01*
X136147685Y-104936485D01*
X136111971Y-104900771D01*
X136147685Y-104865057D01*
X136147685Y-104936485D01*
X136647685Y-104186485D02*
X136719114Y-104186485D01*
X136790542Y-104222200D01*
X136826257Y-104257914D01*
X136861971Y-104329342D01*
X136897685Y-104472200D01*
X136897685Y-104650771D01*
X136861971Y-104793628D01*
X136826257Y-104865057D01*
X136790542Y-104900771D01*
X136719114Y-104936485D01*
X136647685Y-104936485D01*
X136576257Y-104900771D01*
X136540542Y-104865057D01*
X136504828Y-104793628D01*
X136469114Y-104650771D01*
X136469114Y-104472200D01*
X136504828Y-104329342D01*
X136540542Y-104257914D01*
X136576257Y-104222200D01*
X136647685Y-104186485D01*
X137611971Y-104936485D02*
X137183400Y-104936485D01*
X137397685Y-104936485D02*
X137397685Y-104186485D01*
X137326257Y-104293628D01*
X137254828Y-104365057D01*
X137183400Y-104400771D01*
X138254828Y-104436485D02*
X138254828Y-104936485D01*
X137933400Y-104436485D02*
X137933400Y-104829342D01*
X137969114Y-104900771D01*
X138040542Y-104936485D01*
X138147685Y-104936485D01*
X138219114Y-104900771D01*
X138254828Y-104865057D01*
X138504828Y-104436485D02*
X138790542Y-104436485D01*
X138611971Y-104936485D02*
X138611971Y-104293628D01*
X138647685Y-104222200D01*
X138719114Y-104186485D01*
X138790542Y-104186485D01*
%TO.C,C4*%
X136628600Y-86831057D02*
X136592885Y-86866771D01*
X136485742Y-86902485D01*
X136414314Y-86902485D01*
X136307171Y-86866771D01*
X136235742Y-86795342D01*
X136200028Y-86723914D01*
X136164314Y-86581057D01*
X136164314Y-86473914D01*
X136200028Y-86331057D01*
X136235742Y-86259628D01*
X136307171Y-86188200D01*
X136414314Y-86152485D01*
X136485742Y-86152485D01*
X136592885Y-86188200D01*
X136628600Y-86223914D01*
X137271457Y-86402485D02*
X137271457Y-86902485D01*
X137092885Y-86116771D02*
X136914314Y-86652485D01*
X137378600Y-86652485D01*
X135577800Y-89911685D02*
X135649228Y-89911685D01*
X135720657Y-89947400D01*
X135756371Y-89983114D01*
X135792085Y-90054542D01*
X135827800Y-90197400D01*
X135827800Y-90375971D01*
X135792085Y-90518828D01*
X135756371Y-90590257D01*
X135720657Y-90625971D01*
X135649228Y-90661685D01*
X135577800Y-90661685D01*
X135506371Y-90625971D01*
X135470657Y-90590257D01*
X135434942Y-90518828D01*
X135399228Y-90375971D01*
X135399228Y-90197400D01*
X135434942Y-90054542D01*
X135470657Y-89983114D01*
X135506371Y-89947400D01*
X135577800Y-89911685D01*
X136149228Y-90590257D02*
X136184942Y-90625971D01*
X136149228Y-90661685D01*
X136113514Y-90625971D01*
X136149228Y-90590257D01*
X136149228Y-90661685D01*
X136899228Y-90661685D02*
X136470657Y-90661685D01*
X136684942Y-90661685D02*
X136684942Y-89911685D01*
X136613514Y-90018828D01*
X136542085Y-90090257D01*
X136470657Y-90125971D01*
X137542085Y-90161685D02*
X137542085Y-90661685D01*
X137220657Y-90161685D02*
X137220657Y-90554542D01*
X137256371Y-90625971D01*
X137327800Y-90661685D01*
X137434942Y-90661685D01*
X137506371Y-90625971D01*
X137542085Y-90590257D01*
X137792085Y-90161685D02*
X138077800Y-90161685D01*
X137899228Y-90661685D02*
X137899228Y-90018828D01*
X137934942Y-89947400D01*
X138006371Y-89911685D01*
X138077800Y-89911685D01*
%TO.C,C5*%
X147144200Y-86831057D02*
X147108485Y-86866771D01*
X147001342Y-86902485D01*
X146929914Y-86902485D01*
X146822771Y-86866771D01*
X146751342Y-86795342D01*
X146715628Y-86723914D01*
X146679914Y-86581057D01*
X146679914Y-86473914D01*
X146715628Y-86331057D01*
X146751342Y-86259628D01*
X146822771Y-86188200D01*
X146929914Y-86152485D01*
X147001342Y-86152485D01*
X147108485Y-86188200D01*
X147144200Y-86223914D01*
X147822771Y-86152485D02*
X147465628Y-86152485D01*
X147429914Y-86509628D01*
X147465628Y-86473914D01*
X147537057Y-86438200D01*
X147715628Y-86438200D01*
X147787057Y-86473914D01*
X147822771Y-86509628D01*
X147858485Y-86581057D01*
X147858485Y-86759628D01*
X147822771Y-86831057D01*
X147787057Y-86866771D01*
X147715628Y-86902485D01*
X147537057Y-86902485D01*
X147465628Y-86866771D01*
X147429914Y-86831057D01*
X146042600Y-89810085D02*
X146114028Y-89810085D01*
X146185457Y-89845800D01*
X146221171Y-89881514D01*
X146256885Y-89952942D01*
X146292600Y-90095800D01*
X146292600Y-90274371D01*
X146256885Y-90417228D01*
X146221171Y-90488657D01*
X146185457Y-90524371D01*
X146114028Y-90560085D01*
X146042600Y-90560085D01*
X145971171Y-90524371D01*
X145935457Y-90488657D01*
X145899742Y-90417228D01*
X145864028Y-90274371D01*
X145864028Y-90095800D01*
X145899742Y-89952942D01*
X145935457Y-89881514D01*
X145971171Y-89845800D01*
X146042600Y-89810085D01*
X146614028Y-90488657D02*
X146649742Y-90524371D01*
X146614028Y-90560085D01*
X146578314Y-90524371D01*
X146614028Y-90488657D01*
X146614028Y-90560085D01*
X147364028Y-90560085D02*
X146935457Y-90560085D01*
X147149742Y-90560085D02*
X147149742Y-89810085D01*
X147078314Y-89917228D01*
X147006885Y-89988657D01*
X146935457Y-90024371D01*
X148006885Y-90060085D02*
X148006885Y-90560085D01*
X147685457Y-90060085D02*
X147685457Y-90452942D01*
X147721171Y-90524371D01*
X147792600Y-90560085D01*
X147899742Y-90560085D01*
X147971171Y-90524371D01*
X148006885Y-90488657D01*
X148256885Y-90060085D02*
X148542600Y-90060085D01*
X148364028Y-90560085D02*
X148364028Y-89917228D01*
X148399742Y-89845800D01*
X148471171Y-89810085D01*
X148542600Y-89810085D01*
%TO.C,D1*%
X152303628Y-107984485D02*
X152303628Y-107234485D01*
X152482200Y-107234485D01*
X152589342Y-107270200D01*
X152660771Y-107341628D01*
X152696485Y-107413057D01*
X152732200Y-107555914D01*
X152732200Y-107663057D01*
X152696485Y-107805914D01*
X152660771Y-107877342D01*
X152589342Y-107948771D01*
X152482200Y-107984485D01*
X152303628Y-107984485D01*
X153446485Y-107984485D02*
X153017914Y-107984485D01*
X153232200Y-107984485D02*
X153232200Y-107234485D01*
X153160771Y-107341628D01*
X153089342Y-107413057D01*
X153017914Y-107448771D01*
X147135257Y-107984485D02*
X146706685Y-107984485D01*
X146920971Y-107984485D02*
X146920971Y-107234485D01*
X146849542Y-107341628D01*
X146778114Y-107413057D01*
X146706685Y-107448771D01*
X147456685Y-107984485D02*
X147456685Y-107234485D01*
X147885257Y-107984485D01*
X147885257Y-107234485D01*
X148563828Y-107484485D02*
X148563828Y-107984485D01*
X148385257Y-107198771D02*
X148206685Y-107734485D01*
X148670971Y-107734485D01*
X149099542Y-107234485D02*
X149170971Y-107234485D01*
X149242400Y-107270200D01*
X149278114Y-107305914D01*
X149313828Y-107377342D01*
X149349542Y-107520200D01*
X149349542Y-107698771D01*
X149313828Y-107841628D01*
X149278114Y-107913057D01*
X149242400Y-107948771D01*
X149170971Y-107984485D01*
X149099542Y-107984485D01*
X149028114Y-107948771D01*
X148992400Y-107913057D01*
X148956685Y-107841628D01*
X148920971Y-107698771D01*
X148920971Y-107520200D01*
X148956685Y-107377342D01*
X148992400Y-107305914D01*
X149028114Y-107270200D01*
X149099542Y-107234485D01*
X149813828Y-107234485D02*
X149885257Y-107234485D01*
X149956685Y-107270200D01*
X149992400Y-107305914D01*
X150028114Y-107377342D01*
X150063828Y-107520200D01*
X150063828Y-107698771D01*
X150028114Y-107841628D01*
X149992400Y-107913057D01*
X149956685Y-107948771D01*
X149885257Y-107984485D01*
X149813828Y-107984485D01*
X149742400Y-107948771D01*
X149706685Y-107913057D01*
X149670971Y-107841628D01*
X149635257Y-107698771D01*
X149635257Y-107520200D01*
X149670971Y-107377342D01*
X149706685Y-107305914D01*
X149742400Y-107270200D01*
X149813828Y-107234485D01*
X150706685Y-107484485D02*
X150706685Y-107984485D01*
X150528114Y-107198771D02*
X150349542Y-107734485D01*
X150813828Y-107734485D01*
%TO.C,Q1*%
X150804571Y-105211114D02*
X150733142Y-105175400D01*
X150661714Y-105103971D01*
X150554571Y-104996828D01*
X150483142Y-104961114D01*
X150411714Y-104961114D01*
X150447428Y-105139685D02*
X150376000Y-105103971D01*
X150304571Y-105032542D01*
X150268857Y-104889685D01*
X150268857Y-104639685D01*
X150304571Y-104496828D01*
X150376000Y-104425400D01*
X150447428Y-104389685D01*
X150590285Y-104389685D01*
X150661714Y-104425400D01*
X150733142Y-104496828D01*
X150768857Y-104639685D01*
X150768857Y-104889685D01*
X150733142Y-105032542D01*
X150661714Y-105103971D01*
X150590285Y-105139685D01*
X150447428Y-105139685D01*
X151483142Y-105139685D02*
X151054571Y-105139685D01*
X151268857Y-105139685D02*
X151268857Y-104389685D01*
X151197428Y-104496828D01*
X151126000Y-104568257D01*
X151054571Y-104603971D01*
X145436685Y-101819514D02*
X145472400Y-101783800D01*
X145543828Y-101748085D01*
X145722400Y-101748085D01*
X145793828Y-101783800D01*
X145829542Y-101819514D01*
X145865257Y-101890942D01*
X145865257Y-101962371D01*
X145829542Y-102069514D01*
X145400971Y-102498085D01*
X145865257Y-102498085D01*
X146186685Y-102498085D02*
X146186685Y-101748085D01*
X146615257Y-102498085D01*
X146615257Y-101748085D01*
X146900971Y-101748085D02*
X147400971Y-101748085D01*
X147079542Y-102498085D01*
X147829542Y-101748085D02*
X147900971Y-101748085D01*
X147972400Y-101783800D01*
X148008114Y-101819514D01*
X148043828Y-101890942D01*
X148079542Y-102033800D01*
X148079542Y-102212371D01*
X148043828Y-102355228D01*
X148008114Y-102426657D01*
X147972400Y-102462371D01*
X147900971Y-102498085D01*
X147829542Y-102498085D01*
X147758114Y-102462371D01*
X147722400Y-102426657D01*
X147686685Y-102355228D01*
X147650971Y-102212371D01*
X147650971Y-102033800D01*
X147686685Y-101890942D01*
X147722400Y-101819514D01*
X147758114Y-101783800D01*
X147829542Y-101748085D01*
X148543828Y-101748085D02*
X148615257Y-101748085D01*
X148686685Y-101783800D01*
X148722400Y-101819514D01*
X148758114Y-101890942D01*
X148793828Y-102033800D01*
X148793828Y-102212371D01*
X148758114Y-102355228D01*
X148722400Y-102426657D01*
X148686685Y-102462371D01*
X148615257Y-102498085D01*
X148543828Y-102498085D01*
X148472400Y-102462371D01*
X148436685Y-102426657D01*
X148400971Y-102355228D01*
X148365257Y-102212371D01*
X148365257Y-102033800D01*
X148400971Y-101890942D01*
X148436685Y-101819514D01*
X148472400Y-101783800D01*
X148543828Y-101748085D01*
X149258114Y-101748085D02*
X149329542Y-101748085D01*
X149400971Y-101783800D01*
X149436685Y-101819514D01*
X149472400Y-101890942D01*
X149508114Y-102033800D01*
X149508114Y-102212371D01*
X149472400Y-102355228D01*
X149436685Y-102426657D01*
X149400971Y-102462371D01*
X149329542Y-102498085D01*
X149258114Y-102498085D01*
X149186685Y-102462371D01*
X149150971Y-102426657D01*
X149115257Y-102355228D01*
X149079542Y-102212371D01*
X149079542Y-102033800D01*
X149115257Y-101890942D01*
X149150971Y-101819514D01*
X149186685Y-101783800D01*
X149258114Y-101748085D01*
%TO.C,R1*%
X119661400Y-87562885D02*
X119411400Y-87205742D01*
X119232828Y-87562885D02*
X119232828Y-86812885D01*
X119518542Y-86812885D01*
X119589971Y-86848600D01*
X119625685Y-86884314D01*
X119661400Y-86955742D01*
X119661400Y-87062885D01*
X119625685Y-87134314D01*
X119589971Y-87170028D01*
X119518542Y-87205742D01*
X119232828Y-87205742D01*
X120375685Y-87562885D02*
X119947114Y-87562885D01*
X120161400Y-87562885D02*
X120161400Y-86812885D01*
X120089971Y-86920028D01*
X120018542Y-86991457D01*
X119947114Y-87027171D01*
X122192771Y-86884314D02*
X122228485Y-86848600D01*
X122299914Y-86812885D01*
X122478485Y-86812885D01*
X122549914Y-86848600D01*
X122585628Y-86884314D01*
X122621342Y-86955742D01*
X122621342Y-87027171D01*
X122585628Y-87134314D01*
X122157057Y-87562885D01*
X122621342Y-87562885D01*
X123085628Y-86812885D02*
X123157057Y-86812885D01*
X123228485Y-86848600D01*
X123264200Y-86884314D01*
X123299914Y-86955742D01*
X123335628Y-87098600D01*
X123335628Y-87277171D01*
X123299914Y-87420028D01*
X123264200Y-87491457D01*
X123228485Y-87527171D01*
X123157057Y-87562885D01*
X123085628Y-87562885D01*
X123014200Y-87527171D01*
X122978485Y-87491457D01*
X122942771Y-87420028D01*
X122907057Y-87277171D01*
X122907057Y-87098600D01*
X122942771Y-86955742D01*
X122978485Y-86884314D01*
X123014200Y-86848600D01*
X123085628Y-86812885D01*
X123657057Y-87562885D02*
X123657057Y-86812885D01*
X124085628Y-87562885D02*
X123764200Y-87134314D01*
X124085628Y-86812885D02*
X123657057Y-87241457D01*
%TO.C,R2*%
X118703285Y-107821000D02*
X118346142Y-108071000D01*
X118703285Y-108249571D02*
X117953285Y-108249571D01*
X117953285Y-107963857D01*
X117989000Y-107892428D01*
X118024714Y-107856714D01*
X118096142Y-107821000D01*
X118203285Y-107821000D01*
X118274714Y-107856714D01*
X118310428Y-107892428D01*
X118346142Y-107963857D01*
X118346142Y-108249571D01*
X118024714Y-107535285D02*
X117989000Y-107499571D01*
X117953285Y-107428142D01*
X117953285Y-107249571D01*
X117989000Y-107178142D01*
X118024714Y-107142428D01*
X118096142Y-107106714D01*
X118167571Y-107106714D01*
X118274714Y-107142428D01*
X118703285Y-107571000D01*
X118703285Y-107106714D01*
X118652485Y-104913400D02*
X118652485Y-105341971D01*
X118652485Y-105127685D02*
X117902485Y-105127685D01*
X118009628Y-105199114D01*
X118081057Y-105270542D01*
X118116771Y-105341971D01*
X117902485Y-104449114D02*
X117902485Y-104377685D01*
X117938200Y-104306257D01*
X117973914Y-104270542D01*
X118045342Y-104234828D01*
X118188200Y-104199114D01*
X118366771Y-104199114D01*
X118509628Y-104234828D01*
X118581057Y-104270542D01*
X118616771Y-104306257D01*
X118652485Y-104377685D01*
X118652485Y-104449114D01*
X118616771Y-104520542D01*
X118581057Y-104556257D01*
X118509628Y-104591971D01*
X118366771Y-104627685D01*
X118188200Y-104627685D01*
X118045342Y-104591971D01*
X117973914Y-104556257D01*
X117938200Y-104520542D01*
X117902485Y-104449114D01*
X117902485Y-103734828D02*
X117902485Y-103663400D01*
X117938200Y-103591971D01*
X117973914Y-103556257D01*
X118045342Y-103520542D01*
X118188200Y-103484828D01*
X118366771Y-103484828D01*
X118509628Y-103520542D01*
X118581057Y-103556257D01*
X118616771Y-103591971D01*
X118652485Y-103663400D01*
X118652485Y-103734828D01*
X118616771Y-103806257D01*
X118581057Y-103841971D01*
X118509628Y-103877685D01*
X118366771Y-103913400D01*
X118188200Y-103913400D01*
X118045342Y-103877685D01*
X117973914Y-103841971D01*
X117938200Y-103806257D01*
X117902485Y-103734828D01*
X118652485Y-103163400D02*
X117902485Y-103163400D01*
X118652485Y-102734828D02*
X118223914Y-103056257D01*
X117902485Y-102734828D02*
X118331057Y-103163400D01*
%TO.C,R3*%
X113420085Y-108329000D02*
X113062942Y-108579000D01*
X113420085Y-108757571D02*
X112670085Y-108757571D01*
X112670085Y-108471857D01*
X112705800Y-108400428D01*
X112741514Y-108364714D01*
X112812942Y-108329000D01*
X112920085Y-108329000D01*
X112991514Y-108364714D01*
X113027228Y-108400428D01*
X113062942Y-108471857D01*
X113062942Y-108757571D01*
X112670085Y-108079000D02*
X112670085Y-107614714D01*
X112955800Y-107864714D01*
X112955800Y-107757571D01*
X112991514Y-107686142D01*
X113027228Y-107650428D01*
X113098657Y-107614714D01*
X113277228Y-107614714D01*
X113348657Y-107650428D01*
X113384371Y-107686142D01*
X113420085Y-107757571D01*
X113420085Y-107971857D01*
X113384371Y-108043285D01*
X113348657Y-108079000D01*
X112741514Y-106305628D02*
X112705800Y-106269914D01*
X112670085Y-106198485D01*
X112670085Y-106019914D01*
X112705800Y-105948485D01*
X112741514Y-105912771D01*
X112812942Y-105877057D01*
X112884371Y-105877057D01*
X112991514Y-105912771D01*
X113420085Y-106341342D01*
X113420085Y-105877057D01*
X112670085Y-105412771D02*
X112670085Y-105341342D01*
X112705800Y-105269914D01*
X112741514Y-105234200D01*
X112812942Y-105198485D01*
X112955800Y-105162771D01*
X113134371Y-105162771D01*
X113277228Y-105198485D01*
X113348657Y-105234200D01*
X113384371Y-105269914D01*
X113420085Y-105341342D01*
X113420085Y-105412771D01*
X113384371Y-105484200D01*
X113348657Y-105519914D01*
X113277228Y-105555628D01*
X113134371Y-105591342D01*
X112955800Y-105591342D01*
X112812942Y-105555628D01*
X112741514Y-105519914D01*
X112705800Y-105484200D01*
X112670085Y-105412771D01*
X113420085Y-104841342D02*
X112670085Y-104841342D01*
X113420085Y-104412771D02*
X112991514Y-104734200D01*
X112670085Y-104412771D02*
X113098657Y-104841342D01*
%TO.C,R4*%
X118652485Y-118692200D02*
X118295342Y-118942200D01*
X118652485Y-119120771D02*
X117902485Y-119120771D01*
X117902485Y-118835057D01*
X117938200Y-118763628D01*
X117973914Y-118727914D01*
X118045342Y-118692200D01*
X118152485Y-118692200D01*
X118223914Y-118727914D01*
X118259628Y-118763628D01*
X118295342Y-118835057D01*
X118295342Y-119120771D01*
X118152485Y-118049342D02*
X118652485Y-118049342D01*
X117866771Y-118227914D02*
X118402485Y-118406485D01*
X118402485Y-117942200D01*
X118652485Y-115784600D02*
X118652485Y-116213171D01*
X118652485Y-115998885D02*
X117902485Y-115998885D01*
X118009628Y-116070314D01*
X118081057Y-116141742D01*
X118116771Y-116213171D01*
X117902485Y-115320314D02*
X117902485Y-115248885D01*
X117938200Y-115177457D01*
X117973914Y-115141742D01*
X118045342Y-115106028D01*
X118188200Y-115070314D01*
X118366771Y-115070314D01*
X118509628Y-115106028D01*
X118581057Y-115141742D01*
X118616771Y-115177457D01*
X118652485Y-115248885D01*
X118652485Y-115320314D01*
X118616771Y-115391742D01*
X118581057Y-115427457D01*
X118509628Y-115463171D01*
X118366771Y-115498885D01*
X118188200Y-115498885D01*
X118045342Y-115463171D01*
X117973914Y-115427457D01*
X117938200Y-115391742D01*
X117902485Y-115320314D01*
X117902485Y-114606028D02*
X117902485Y-114534600D01*
X117938200Y-114463171D01*
X117973914Y-114427457D01*
X118045342Y-114391742D01*
X118188200Y-114356028D01*
X118366771Y-114356028D01*
X118509628Y-114391742D01*
X118581057Y-114427457D01*
X118616771Y-114463171D01*
X118652485Y-114534600D01*
X118652485Y-114606028D01*
X118616771Y-114677457D01*
X118581057Y-114713171D01*
X118509628Y-114748885D01*
X118366771Y-114784600D01*
X118188200Y-114784600D01*
X118045342Y-114748885D01*
X117973914Y-114713171D01*
X117938200Y-114677457D01*
X117902485Y-114606028D01*
X118652485Y-114034600D02*
X117902485Y-114034600D01*
X118652485Y-113606028D02*
X118223914Y-113927457D01*
X117902485Y-113606028D02*
X118331057Y-114034600D01*
%TO.C,R5*%
X138914600Y-119516085D02*
X138664600Y-119158942D01*
X138486028Y-119516085D02*
X138486028Y-118766085D01*
X138771742Y-118766085D01*
X138843171Y-118801800D01*
X138878885Y-118837514D01*
X138914600Y-118908942D01*
X138914600Y-119016085D01*
X138878885Y-119087514D01*
X138843171Y-119123228D01*
X138771742Y-119158942D01*
X138486028Y-119158942D01*
X139593171Y-118766085D02*
X139236028Y-118766085D01*
X139200314Y-119123228D01*
X139236028Y-119087514D01*
X139307457Y-119051800D01*
X139486028Y-119051800D01*
X139557457Y-119087514D01*
X139593171Y-119123228D01*
X139628885Y-119194657D01*
X139628885Y-119373228D01*
X139593171Y-119444657D01*
X139557457Y-119480371D01*
X139486028Y-119516085D01*
X139307457Y-119516085D01*
X139236028Y-119480371D01*
X139200314Y-119444657D01*
X134557800Y-119516085D02*
X134129228Y-119516085D01*
X134343514Y-119516085D02*
X134343514Y-118766085D01*
X134272085Y-118873228D01*
X134200657Y-118944657D01*
X134129228Y-118980371D01*
X135022085Y-118766085D02*
X135093514Y-118766085D01*
X135164942Y-118801800D01*
X135200657Y-118837514D01*
X135236371Y-118908942D01*
X135272085Y-119051800D01*
X135272085Y-119230371D01*
X135236371Y-119373228D01*
X135200657Y-119444657D01*
X135164942Y-119480371D01*
X135093514Y-119516085D01*
X135022085Y-119516085D01*
X134950657Y-119480371D01*
X134914942Y-119444657D01*
X134879228Y-119373228D01*
X134843514Y-119230371D01*
X134843514Y-119051800D01*
X134879228Y-118908942D01*
X134914942Y-118837514D01*
X134950657Y-118801800D01*
X135022085Y-118766085D01*
X135736371Y-118766085D02*
X135807800Y-118766085D01*
X135879228Y-118801800D01*
X135914942Y-118837514D01*
X135950657Y-118908942D01*
X135986371Y-119051800D01*
X135986371Y-119230371D01*
X135950657Y-119373228D01*
X135914942Y-119444657D01*
X135879228Y-119480371D01*
X135807800Y-119516085D01*
X135736371Y-119516085D01*
X135664942Y-119480371D01*
X135629228Y-119444657D01*
X135593514Y-119373228D01*
X135557800Y-119230371D01*
X135557800Y-119051800D01*
X135593514Y-118908942D01*
X135629228Y-118837514D01*
X135664942Y-118801800D01*
X135736371Y-118766085D01*
X136307800Y-119516085D02*
X136307800Y-118766085D01*
X136736371Y-119516085D02*
X136414942Y-119087514D01*
X136736371Y-118766085D02*
X136307800Y-119194657D01*
%TO.C,R6*%
X137695400Y-107832085D02*
X137445400Y-107474942D01*
X137266828Y-107832085D02*
X137266828Y-107082085D01*
X137552542Y-107082085D01*
X137623971Y-107117800D01*
X137659685Y-107153514D01*
X137695400Y-107224942D01*
X137695400Y-107332085D01*
X137659685Y-107403514D01*
X137623971Y-107439228D01*
X137552542Y-107474942D01*
X137266828Y-107474942D01*
X138338257Y-107082085D02*
X138195400Y-107082085D01*
X138123971Y-107117800D01*
X138088257Y-107153514D01*
X138016828Y-107260657D01*
X137981114Y-107403514D01*
X137981114Y-107689228D01*
X138016828Y-107760657D01*
X138052542Y-107796371D01*
X138123971Y-107832085D01*
X138266828Y-107832085D01*
X138338257Y-107796371D01*
X138373971Y-107760657D01*
X138409685Y-107689228D01*
X138409685Y-107510657D01*
X138373971Y-107439228D01*
X138338257Y-107403514D01*
X138266828Y-107367800D01*
X138123971Y-107367800D01*
X138052542Y-107403514D01*
X138016828Y-107439228D01*
X137981114Y-107510657D01*
X131358628Y-107153514D02*
X131394342Y-107117800D01*
X131465771Y-107082085D01*
X131644342Y-107082085D01*
X131715771Y-107117800D01*
X131751485Y-107153514D01*
X131787200Y-107224942D01*
X131787200Y-107296371D01*
X131751485Y-107403514D01*
X131322914Y-107832085D01*
X131787200Y-107832085D01*
X132108628Y-107760657D02*
X132144342Y-107796371D01*
X132108628Y-107832085D01*
X132072914Y-107796371D01*
X132108628Y-107760657D01*
X132108628Y-107832085D01*
X132430057Y-107153514D02*
X132465771Y-107117800D01*
X132537200Y-107082085D01*
X132715771Y-107082085D01*
X132787200Y-107117800D01*
X132822914Y-107153514D01*
X132858628Y-107224942D01*
X132858628Y-107296371D01*
X132822914Y-107403514D01*
X132394342Y-107832085D01*
X132858628Y-107832085D01*
X133180057Y-107832085D02*
X133180057Y-107082085D01*
X133430057Y-107617800D01*
X133680057Y-107082085D01*
X133680057Y-107832085D01*
%TO.C,R7*%
X163501800Y-108390885D02*
X163251800Y-108033742D01*
X163073228Y-108390885D02*
X163073228Y-107640885D01*
X163358942Y-107640885D01*
X163430371Y-107676600D01*
X163466085Y-107712314D01*
X163501800Y-107783742D01*
X163501800Y-107890885D01*
X163466085Y-107962314D01*
X163430371Y-107998028D01*
X163358942Y-108033742D01*
X163073228Y-108033742D01*
X163751800Y-107640885D02*
X164251800Y-107640885D01*
X163930371Y-108390885D01*
X159882371Y-108390885D02*
X159453800Y-108390885D01*
X159668085Y-108390885D02*
X159668085Y-107640885D01*
X159596657Y-107748028D01*
X159525228Y-107819457D01*
X159453800Y-107855171D01*
X160203800Y-108319457D02*
X160239514Y-108355171D01*
X160203800Y-108390885D01*
X160168085Y-108355171D01*
X160203800Y-108319457D01*
X160203800Y-108390885D01*
X160525228Y-107712314D02*
X160560942Y-107676600D01*
X160632371Y-107640885D01*
X160810942Y-107640885D01*
X160882371Y-107676600D01*
X160918085Y-107712314D01*
X160953800Y-107783742D01*
X160953800Y-107855171D01*
X160918085Y-107962314D01*
X160489514Y-108390885D01*
X160953800Y-108390885D01*
X161275228Y-108390885D02*
X161275228Y-107640885D01*
X161703800Y-108390885D02*
X161382371Y-107962314D01*
X161703800Y-107640885D02*
X161275228Y-108069457D01*
%TO.C,R8*%
X143900085Y-107008200D02*
X143542942Y-107258200D01*
X143900085Y-107436771D02*
X143150085Y-107436771D01*
X143150085Y-107151057D01*
X143185800Y-107079628D01*
X143221514Y-107043914D01*
X143292942Y-107008200D01*
X143400085Y-107008200D01*
X143471514Y-107043914D01*
X143507228Y-107079628D01*
X143542942Y-107151057D01*
X143542942Y-107436771D01*
X143471514Y-106579628D02*
X143435800Y-106651057D01*
X143400085Y-106686771D01*
X143328657Y-106722485D01*
X143292942Y-106722485D01*
X143221514Y-106686771D01*
X143185800Y-106651057D01*
X143150085Y-106579628D01*
X143150085Y-106436771D01*
X143185800Y-106365342D01*
X143221514Y-106329628D01*
X143292942Y-106293914D01*
X143328657Y-106293914D01*
X143400085Y-106329628D01*
X143435800Y-106365342D01*
X143471514Y-106436771D01*
X143471514Y-106579628D01*
X143507228Y-106651057D01*
X143542942Y-106686771D01*
X143614371Y-106722485D01*
X143757228Y-106722485D01*
X143828657Y-106686771D01*
X143864371Y-106651057D01*
X143900085Y-106579628D01*
X143900085Y-106436771D01*
X143864371Y-106365342D01*
X143828657Y-106329628D01*
X143757228Y-106293914D01*
X143614371Y-106293914D01*
X143542942Y-106329628D01*
X143507228Y-106365342D01*
X143471514Y-106436771D01*
X143900085Y-104353057D02*
X143900085Y-104781628D01*
X143900085Y-104567342D02*
X143150085Y-104567342D01*
X143257228Y-104638771D01*
X143328657Y-104710200D01*
X143364371Y-104781628D01*
X143150085Y-103888771D02*
X143150085Y-103817342D01*
X143185800Y-103745914D01*
X143221514Y-103710200D01*
X143292942Y-103674485D01*
X143435800Y-103638771D01*
X143614371Y-103638771D01*
X143757228Y-103674485D01*
X143828657Y-103710200D01*
X143864371Y-103745914D01*
X143900085Y-103817342D01*
X143900085Y-103888771D01*
X143864371Y-103960200D01*
X143828657Y-103995914D01*
X143757228Y-104031628D01*
X143614371Y-104067342D01*
X143435800Y-104067342D01*
X143292942Y-104031628D01*
X143221514Y-103995914D01*
X143185800Y-103960200D01*
X143150085Y-103888771D01*
X143900085Y-103317342D02*
X143150085Y-103317342D01*
X143900085Y-102888771D02*
X143471514Y-103210200D01*
X143150085Y-102888771D02*
X143578657Y-103317342D01*
%TO.C,TP1*%
D12*
X128865657Y-86806057D02*
X128951371Y-86834628D01*
X129094228Y-86834628D01*
X129151371Y-86806057D01*
X129179942Y-86777485D01*
X129208514Y-86720342D01*
X129208514Y-86663200D01*
X129179942Y-86606057D01*
X129151371Y-86577485D01*
X129094228Y-86548914D01*
X128979942Y-86520342D01*
X128922800Y-86491771D01*
X128894228Y-86463200D01*
X128865657Y-86406057D01*
X128865657Y-86348914D01*
X128894228Y-86291771D01*
X128922800Y-86263200D01*
X128979942Y-86234628D01*
X129122800Y-86234628D01*
X129208514Y-86263200D01*
X129722800Y-86434628D02*
X129722800Y-87034628D01*
X129722800Y-86806057D02*
X129665657Y-86834628D01*
X129551371Y-86834628D01*
X129494228Y-86806057D01*
X129465657Y-86777485D01*
X129437085Y-86720342D01*
X129437085Y-86548914D01*
X129465657Y-86491771D01*
X129494228Y-86463200D01*
X129551371Y-86434628D01*
X129665657Y-86434628D01*
X129722800Y-86463200D01*
X130265657Y-86434628D02*
X130265657Y-86834628D01*
X130008514Y-86434628D02*
X130008514Y-86748914D01*
X130037085Y-86806057D01*
X130094228Y-86834628D01*
X130179942Y-86834628D01*
X130237085Y-86806057D01*
X130265657Y-86777485D01*
X130808514Y-86834628D02*
X130808514Y-86520342D01*
X130779942Y-86463200D01*
X130722800Y-86434628D01*
X130608514Y-86434628D01*
X130551371Y-86463200D01*
X130808514Y-86806057D02*
X130751371Y-86834628D01*
X130608514Y-86834628D01*
X130551371Y-86806057D01*
X130522800Y-86748914D01*
X130522800Y-86691771D01*
X130551371Y-86634628D01*
X130608514Y-86606057D01*
X130751371Y-86606057D01*
X130808514Y-86577485D01*
X131094228Y-86834628D02*
X131094228Y-86434628D01*
X131094228Y-86548914D02*
X131122800Y-86491771D01*
X131151371Y-86463200D01*
X131208514Y-86434628D01*
X131265657Y-86434628D01*
X131694228Y-86806057D02*
X131637085Y-86834628D01*
X131522800Y-86834628D01*
X131465657Y-86806057D01*
X131437085Y-86748914D01*
X131437085Y-86520342D01*
X131465657Y-86463200D01*
X131522800Y-86434628D01*
X131637085Y-86434628D01*
X131694228Y-86463200D01*
X131722800Y-86520342D01*
X131722800Y-86577485D01*
X131437085Y-86634628D01*
X132379942Y-86234628D02*
X132522800Y-86834628D01*
X132637085Y-86406057D01*
X132751371Y-86834628D01*
X132894228Y-86234628D01*
X133379942Y-86834628D02*
X133379942Y-86520342D01*
X133351371Y-86463200D01*
X133294228Y-86434628D01*
X133179942Y-86434628D01*
X133122800Y-86463200D01*
X133379942Y-86806057D02*
X133322800Y-86834628D01*
X133179942Y-86834628D01*
X133122800Y-86806057D01*
X133094228Y-86748914D01*
X133094228Y-86691771D01*
X133122800Y-86634628D01*
X133179942Y-86606057D01*
X133322800Y-86606057D01*
X133379942Y-86577485D01*
X133608514Y-86434628D02*
X133751371Y-86834628D01*
X133894228Y-86434628D01*
X134351371Y-86806057D02*
X134294228Y-86834628D01*
X134179942Y-86834628D01*
X134122800Y-86806057D01*
X134094228Y-86748914D01*
X134094228Y-86520342D01*
X134122800Y-86463200D01*
X134179942Y-86434628D01*
X134294228Y-86434628D01*
X134351371Y-86463200D01*
X134379942Y-86520342D01*
X134379942Y-86577485D01*
X134094228Y-86634628D01*
D11*
X130523971Y-89962485D02*
X130952542Y-89962485D01*
X130738257Y-90712485D02*
X130738257Y-89962485D01*
X131202542Y-90712485D02*
X131202542Y-89962485D01*
X131488257Y-89962485D01*
X131559685Y-89998200D01*
X131595400Y-90033914D01*
X131631114Y-90105342D01*
X131631114Y-90212485D01*
X131595400Y-90283914D01*
X131559685Y-90319628D01*
X131488257Y-90355342D01*
X131202542Y-90355342D01*
X132345400Y-90712485D02*
X131916828Y-90712485D01*
X132131114Y-90712485D02*
X132131114Y-89962485D01*
X132059685Y-90069628D01*
X131988257Y-90141057D01*
X131916828Y-90176771D01*
%TO.C,TP2*%
X141344371Y-89962485D02*
X141772942Y-89962485D01*
X141558657Y-90712485D02*
X141558657Y-89962485D01*
X142022942Y-90712485D02*
X142022942Y-89962485D01*
X142308657Y-89962485D01*
X142380085Y-89998200D01*
X142415800Y-90033914D01*
X142451514Y-90105342D01*
X142451514Y-90212485D01*
X142415800Y-90283914D01*
X142380085Y-90319628D01*
X142308657Y-90355342D01*
X142022942Y-90355342D01*
X142737228Y-90033914D02*
X142772942Y-89998200D01*
X142844371Y-89962485D01*
X143022942Y-89962485D01*
X143094371Y-89998200D01*
X143130085Y-90033914D01*
X143165800Y-90105342D01*
X143165800Y-90176771D01*
X143130085Y-90283914D01*
X142701514Y-90712485D01*
X143165800Y-90712485D01*
X139132057Y-86234628D02*
X139474914Y-86234628D01*
X139303485Y-86834628D02*
X139303485Y-86234628D01*
X139674914Y-86834628D02*
X139674914Y-86434628D01*
X139674914Y-86548914D02*
X139703485Y-86491771D01*
X139732057Y-86463200D01*
X139789200Y-86434628D01*
X139846342Y-86434628D01*
X140046342Y-86834628D02*
X140046342Y-86434628D01*
X140046342Y-86234628D02*
X140017771Y-86263200D01*
X140046342Y-86291771D01*
X140074914Y-86263200D01*
X140046342Y-86234628D01*
X140046342Y-86291771D01*
X140589200Y-86834628D02*
X140589200Y-86520342D01*
X140560628Y-86463200D01*
X140503485Y-86434628D01*
X140389200Y-86434628D01*
X140332057Y-86463200D01*
X140589200Y-86806057D02*
X140532057Y-86834628D01*
X140389200Y-86834628D01*
X140332057Y-86806057D01*
X140303485Y-86748914D01*
X140303485Y-86691771D01*
X140332057Y-86634628D01*
X140389200Y-86606057D01*
X140532057Y-86606057D01*
X140589200Y-86577485D01*
X140874914Y-86434628D02*
X140874914Y-86834628D01*
X140874914Y-86491771D02*
X140903485Y-86463200D01*
X140960628Y-86434628D01*
X141046342Y-86434628D01*
X141103485Y-86463200D01*
X141132057Y-86520342D01*
X141132057Y-86834628D01*
X141674914Y-86434628D02*
X141674914Y-86920342D01*
X141646342Y-86977485D01*
X141617771Y-87006057D01*
X141560628Y-87034628D01*
X141474914Y-87034628D01*
X141417771Y-87006057D01*
X141674914Y-86806057D02*
X141617771Y-86834628D01*
X141503485Y-86834628D01*
X141446342Y-86806057D01*
X141417771Y-86777485D01*
X141389200Y-86720342D01*
X141389200Y-86548914D01*
X141417771Y-86491771D01*
X141446342Y-86463200D01*
X141503485Y-86434628D01*
X141617771Y-86434628D01*
X141674914Y-86463200D01*
X142046342Y-86834628D02*
X141989200Y-86806057D01*
X141960628Y-86748914D01*
X141960628Y-86234628D01*
X142503485Y-86806057D02*
X142446342Y-86834628D01*
X142332057Y-86834628D01*
X142274914Y-86806057D01*
X142246342Y-86748914D01*
X142246342Y-86520342D01*
X142274914Y-86463200D01*
X142332057Y-86434628D01*
X142446342Y-86434628D01*
X142503485Y-86463200D01*
X142532057Y-86520342D01*
X142532057Y-86577485D01*
X142246342Y-86634628D01*
X143189200Y-86234628D02*
X143332057Y-86834628D01*
X143446342Y-86406057D01*
X143560628Y-86834628D01*
X143703485Y-86234628D01*
X144189200Y-86834628D02*
X144189200Y-86520342D01*
X144160628Y-86463200D01*
X144103485Y-86434628D01*
X143989200Y-86434628D01*
X143932057Y-86463200D01*
X144189200Y-86806057D02*
X144132057Y-86834628D01*
X143989200Y-86834628D01*
X143932057Y-86806057D01*
X143903485Y-86748914D01*
X143903485Y-86691771D01*
X143932057Y-86634628D01*
X143989200Y-86606057D01*
X144132057Y-86606057D01*
X144189200Y-86577485D01*
X144417771Y-86434628D02*
X144560628Y-86834628D01*
X144703485Y-86434628D01*
X145160628Y-86806057D02*
X145103485Y-86834628D01*
X144989200Y-86834628D01*
X144932057Y-86806057D01*
X144903485Y-86748914D01*
X144903485Y-86520342D01*
X144932057Y-86463200D01*
X144989200Y-86434628D01*
X145103485Y-86434628D01*
X145160628Y-86463200D01*
X145189200Y-86520342D01*
X145189200Y-86577485D01*
X144903485Y-86634628D01*
%TO.C,TP3*%
X151605971Y-89962485D02*
X152034542Y-89962485D01*
X151820257Y-90712485D02*
X151820257Y-89962485D01*
X152284542Y-90712485D02*
X152284542Y-89962485D01*
X152570257Y-89962485D01*
X152641685Y-89998200D01*
X152677400Y-90033914D01*
X152713114Y-90105342D01*
X152713114Y-90212485D01*
X152677400Y-90283914D01*
X152641685Y-90319628D01*
X152570257Y-90355342D01*
X152284542Y-90355342D01*
X152963114Y-89962485D02*
X153427400Y-89962485D01*
X153177400Y-90248200D01*
X153284542Y-90248200D01*
X153355971Y-90283914D01*
X153391685Y-90319628D01*
X153427400Y-90391057D01*
X153427400Y-90569628D01*
X153391685Y-90641057D01*
X153355971Y-90676771D01*
X153284542Y-90712485D01*
X153070257Y-90712485D01*
X152998828Y-90676771D01*
X152963114Y-90641057D01*
X150622228Y-86834628D02*
X150622228Y-86234628D01*
X150850800Y-86234628D01*
X150907942Y-86263200D01*
X150936514Y-86291771D01*
X150965085Y-86348914D01*
X150965085Y-86434628D01*
X150936514Y-86491771D01*
X150907942Y-86520342D01*
X150850800Y-86548914D01*
X150622228Y-86548914D01*
X151165085Y-86234628D02*
X151307942Y-86834628D01*
X151422228Y-86406057D01*
X151536514Y-86834628D01*
X151679371Y-86234628D01*
X151907942Y-86834628D02*
X151907942Y-86234628D01*
X152107942Y-86663200D01*
X152307942Y-86234628D01*
X152307942Y-86834628D01*
X153165085Y-86234628D02*
X153279371Y-86234628D01*
X153336514Y-86263200D01*
X153393657Y-86320342D01*
X153422228Y-86434628D01*
X153422228Y-86634628D01*
X153393657Y-86748914D01*
X153336514Y-86806057D01*
X153279371Y-86834628D01*
X153165085Y-86834628D01*
X153107942Y-86806057D01*
X153050800Y-86748914D01*
X153022228Y-86634628D01*
X153022228Y-86434628D01*
X153050800Y-86320342D01*
X153107942Y-86263200D01*
X153165085Y-86234628D01*
X153936514Y-86434628D02*
X153936514Y-86834628D01*
X153679371Y-86434628D02*
X153679371Y-86748914D01*
X153707942Y-86806057D01*
X153765085Y-86834628D01*
X153850800Y-86834628D01*
X153907942Y-86806057D01*
X153936514Y-86777485D01*
X154136514Y-86434628D02*
X154365085Y-86434628D01*
X154222228Y-86234628D02*
X154222228Y-86748914D01*
X154250800Y-86806057D01*
X154307942Y-86834628D01*
X154365085Y-86834628D01*
%TO.C,U1*%
X129019371Y-93366085D02*
X129019371Y-93973228D01*
X129055085Y-94044657D01*
X129090800Y-94080371D01*
X129162228Y-94116085D01*
X129305085Y-94116085D01*
X129376514Y-94080371D01*
X129412228Y-94044657D01*
X129447942Y-93973228D01*
X129447942Y-93366085D01*
X130197942Y-94116085D02*
X129769371Y-94116085D01*
X129983657Y-94116085D02*
X129983657Y-93366085D01*
X129912228Y-93473228D01*
X129840800Y-93544657D01*
X129769371Y-93580371D01*
X133539123Y-94025980D02*
X133062933Y-94025980D01*
X133062933Y-93025980D01*
X133872457Y-94025980D02*
X133872457Y-93025980D01*
X134205790Y-93740266D01*
X134539123Y-93025980D01*
X134539123Y-94025980D01*
X134920076Y-93025980D02*
X135539123Y-93025980D01*
X135205790Y-93406933D01*
X135348647Y-93406933D01*
X135443885Y-93454552D01*
X135491504Y-93502171D01*
X135539123Y-93597409D01*
X135539123Y-93835504D01*
X135491504Y-93930742D01*
X135443885Y-93978361D01*
X135348647Y-94025980D01*
X135062933Y-94025980D01*
X134967695Y-93978361D01*
X134920076Y-93930742D01*
X136443885Y-93025980D02*
X135967695Y-93025980D01*
X135920076Y-93502171D01*
X135967695Y-93454552D01*
X136062933Y-93406933D01*
X136301028Y-93406933D01*
X136396266Y-93454552D01*
X136443885Y-93502171D01*
X136491504Y-93597409D01*
X136491504Y-93835504D01*
X136443885Y-93930742D01*
X136396266Y-93978361D01*
X136301028Y-94025980D01*
X136062933Y-94025980D01*
X135967695Y-93978361D01*
X135920076Y-93930742D01*
X137062933Y-93454552D02*
X136967695Y-93406933D01*
X136920076Y-93359314D01*
X136872457Y-93264076D01*
X136872457Y-93216457D01*
X136920076Y-93121219D01*
X136967695Y-93073600D01*
X137062933Y-93025980D01*
X137253409Y-93025980D01*
X137348647Y-93073600D01*
X137396266Y-93121219D01*
X137443885Y-93216457D01*
X137443885Y-93264076D01*
X137396266Y-93359314D01*
X137348647Y-93406933D01*
X137253409Y-93454552D01*
X137062933Y-93454552D01*
X136967695Y-93502171D01*
X136920076Y-93549790D01*
X136872457Y-93645028D01*
X136872457Y-93835504D01*
X136920076Y-93930742D01*
X136967695Y-93978361D01*
X137062933Y-94025980D01*
X137253409Y-94025980D01*
X137348647Y-93978361D01*
X137396266Y-93930742D01*
X137443885Y-93835504D01*
X137443885Y-93645028D01*
X137396266Y-93549790D01*
X137348647Y-93502171D01*
X137253409Y-93454552D01*
%TO.C,U2*%
X150964971Y-93264485D02*
X150964971Y-93871628D01*
X151000685Y-93943057D01*
X151036400Y-93978771D01*
X151107828Y-94014485D01*
X151250685Y-94014485D01*
X151322114Y-93978771D01*
X151357828Y-93943057D01*
X151393542Y-93871628D01*
X151393542Y-93264485D01*
X151714971Y-93335914D02*
X151750685Y-93300200D01*
X151822114Y-93264485D01*
X152000685Y-93264485D01*
X152072114Y-93300200D01*
X152107828Y-93335914D01*
X152143542Y-93407342D01*
X152143542Y-93478771D01*
X152107828Y-93585914D01*
X151679257Y-94014485D01*
X152143542Y-94014485D01*
X144054723Y-93924380D02*
X143578533Y-93924380D01*
X143578533Y-92924380D01*
X144388057Y-93924380D02*
X144388057Y-92924380D01*
X144721390Y-93638666D01*
X145054723Y-92924380D01*
X145054723Y-93924380D01*
X145435676Y-92924380D02*
X146054723Y-92924380D01*
X145721390Y-93305333D01*
X145864247Y-93305333D01*
X145959485Y-93352952D01*
X146007104Y-93400571D01*
X146054723Y-93495809D01*
X146054723Y-93733904D01*
X146007104Y-93829142D01*
X145959485Y-93876761D01*
X145864247Y-93924380D01*
X145578533Y-93924380D01*
X145483295Y-93876761D01*
X145435676Y-93829142D01*
X146959485Y-92924380D02*
X146483295Y-92924380D01*
X146435676Y-93400571D01*
X146483295Y-93352952D01*
X146578533Y-93305333D01*
X146816628Y-93305333D01*
X146911866Y-93352952D01*
X146959485Y-93400571D01*
X147007104Y-93495809D01*
X147007104Y-93733904D01*
X146959485Y-93829142D01*
X146911866Y-93876761D01*
X146816628Y-93924380D01*
X146578533Y-93924380D01*
X146483295Y-93876761D01*
X146435676Y-93829142D01*
X147578533Y-93352952D02*
X147483295Y-93305333D01*
X147435676Y-93257714D01*
X147388057Y-93162476D01*
X147388057Y-93114857D01*
X147435676Y-93019619D01*
X147483295Y-92972000D01*
X147578533Y-92924380D01*
X147769009Y-92924380D01*
X147864247Y-92972000D01*
X147911866Y-93019619D01*
X147959485Y-93114857D01*
X147959485Y-93162476D01*
X147911866Y-93257714D01*
X147864247Y-93305333D01*
X147769009Y-93352952D01*
X147578533Y-93352952D01*
X147483295Y-93400571D01*
X147435676Y-93448190D01*
X147388057Y-93543428D01*
X147388057Y-93733904D01*
X147435676Y-93829142D01*
X147483295Y-93876761D01*
X147578533Y-93924380D01*
X147769009Y-93924380D01*
X147864247Y-93876761D01*
X147911866Y-93829142D01*
X147959485Y-93733904D01*
X147959485Y-93543428D01*
X147911866Y-93448190D01*
X147864247Y-93400571D01*
X147769009Y-93352952D01*
%TO.C,Q2*%
X173587914Y-104821028D02*
X173552200Y-104892457D01*
X173480771Y-104963885D01*
X173373628Y-105071028D01*
X173337914Y-105142457D01*
X173337914Y-105213885D01*
X173516485Y-105178171D02*
X173480771Y-105249600D01*
X173409342Y-105321028D01*
X173266485Y-105356742D01*
X173016485Y-105356742D01*
X172873628Y-105321028D01*
X172802200Y-105249600D01*
X172766485Y-105178171D01*
X172766485Y-105035314D01*
X172802200Y-104963885D01*
X172873628Y-104892457D01*
X173016485Y-104856742D01*
X173266485Y-104856742D01*
X173409342Y-104892457D01*
X173480771Y-104963885D01*
X173516485Y-105035314D01*
X173516485Y-105178171D01*
X172837914Y-104571028D02*
X172802200Y-104535314D01*
X172766485Y-104463885D01*
X172766485Y-104285314D01*
X172802200Y-104213885D01*
X172837914Y-104178171D01*
X172909342Y-104142457D01*
X172980771Y-104142457D01*
X173087914Y-104178171D01*
X173516485Y-104606742D01*
X173516485Y-104142457D01*
X172766485Y-101254885D02*
X172766485Y-100826314D01*
X173516485Y-101040600D02*
X172766485Y-101040600D01*
X173516485Y-100576314D02*
X172766485Y-100576314D01*
X173516485Y-100219171D02*
X172766485Y-100219171D01*
X172766485Y-99933457D01*
X172802200Y-99862028D01*
X172837914Y-99826314D01*
X172909342Y-99790600D01*
X173016485Y-99790600D01*
X173087914Y-99826314D01*
X173123628Y-99862028D01*
X173159342Y-99933457D01*
X173159342Y-100219171D01*
X173516485Y-99076314D02*
X173516485Y-99504885D01*
X173516485Y-99290600D02*
X172766485Y-99290600D01*
X172873628Y-99362028D01*
X172945057Y-99433457D01*
X172980771Y-99504885D01*
X172837914Y-98790600D02*
X172802200Y-98754885D01*
X172766485Y-98683457D01*
X172766485Y-98504885D01*
X172802200Y-98433457D01*
X172837914Y-98397742D01*
X172909342Y-98362028D01*
X172980771Y-98362028D01*
X173087914Y-98397742D01*
X173516485Y-98826314D01*
X173516485Y-98362028D01*
X172766485Y-97897742D02*
X172766485Y-97826314D01*
X172802200Y-97754885D01*
X172837914Y-97719171D01*
X172909342Y-97683457D01*
X173052200Y-97647742D01*
X173230771Y-97647742D01*
X173373628Y-97683457D01*
X173445057Y-97719171D01*
X173480771Y-97754885D01*
X173516485Y-97826314D01*
X173516485Y-97897742D01*
X173480771Y-97969171D01*
X173445057Y-98004885D01*
X173373628Y-98040600D01*
X173230771Y-98076314D01*
X173052200Y-98076314D01*
X172909342Y-98040600D01*
X172837914Y-98004885D01*
X172802200Y-97969171D01*
X172766485Y-97897742D01*
%TO.C,J3*%
X163173600Y-86203285D02*
X163173600Y-86739000D01*
X163137885Y-86846142D01*
X163066457Y-86917571D01*
X162959314Y-86953285D01*
X162887885Y-86953285D01*
X163459314Y-86203285D02*
X163923600Y-86203285D01*
X163673600Y-86489000D01*
X163780742Y-86489000D01*
X163852171Y-86524714D01*
X163887885Y-86560428D01*
X163923600Y-86631857D01*
X163923600Y-86810428D01*
X163887885Y-86881857D01*
X163852171Y-86917571D01*
X163780742Y-86953285D01*
X163566457Y-86953285D01*
X163495028Y-86917571D01*
X163459314Y-86881857D01*
X156813428Y-86881857D02*
X156777714Y-86917571D01*
X156670571Y-86953285D01*
X156599142Y-86953285D01*
X156492000Y-86917571D01*
X156420571Y-86846142D01*
X156384857Y-86774714D01*
X156349142Y-86631857D01*
X156349142Y-86524714D01*
X156384857Y-86381857D01*
X156420571Y-86310428D01*
X156492000Y-86239000D01*
X156599142Y-86203285D01*
X156670571Y-86203285D01*
X156777714Y-86239000D01*
X156813428Y-86274714D01*
X157242000Y-86953285D02*
X157170571Y-86917571D01*
X157134857Y-86881857D01*
X157099142Y-86810428D01*
X157099142Y-86596142D01*
X157134857Y-86524714D01*
X157170571Y-86489000D01*
X157242000Y-86453285D01*
X157349142Y-86453285D01*
X157420571Y-86489000D01*
X157456285Y-86524714D01*
X157492000Y-86596142D01*
X157492000Y-86810428D01*
X157456285Y-86881857D01*
X157420571Y-86917571D01*
X157349142Y-86953285D01*
X157242000Y-86953285D01*
X157813428Y-86453285D02*
X157813428Y-86953285D01*
X157813428Y-86524714D02*
X157849142Y-86489000D01*
X157920571Y-86453285D01*
X158027714Y-86453285D01*
X158099142Y-86489000D01*
X158134857Y-86560428D01*
X158134857Y-86953285D01*
X158384857Y-86453285D02*
X158670571Y-86453285D01*
X158492000Y-86203285D02*
X158492000Y-86846142D01*
X158527714Y-86917571D01*
X158599142Y-86953285D01*
X158670571Y-86953285D01*
X158920571Y-86953285D02*
X158920571Y-86453285D01*
X158920571Y-86596142D02*
X158956285Y-86524714D01*
X158992000Y-86489000D01*
X159063428Y-86453285D01*
X159134857Y-86453285D01*
X159492000Y-86953285D02*
X159420571Y-86917571D01*
X159384857Y-86881857D01*
X159349142Y-86810428D01*
X159349142Y-86596142D01*
X159384857Y-86524714D01*
X159420571Y-86489000D01*
X159492000Y-86453285D01*
X159599142Y-86453285D01*
X159670571Y-86489000D01*
X159706285Y-86524714D01*
X159742000Y-86596142D01*
X159742000Y-86810428D01*
X159706285Y-86881857D01*
X159670571Y-86917571D01*
X159599142Y-86953285D01*
X159492000Y-86953285D01*
X160170571Y-86953285D02*
X160099142Y-86917571D01*
X160063428Y-86846142D01*
X160063428Y-86203285D01*
%TO.C,J1*%
X164900800Y-119934485D02*
X164900800Y-120470200D01*
X164865085Y-120577342D01*
X164793657Y-120648771D01*
X164686514Y-120684485D01*
X164615085Y-120684485D01*
X165650800Y-120684485D02*
X165222228Y-120684485D01*
X165436514Y-120684485D02*
X165436514Y-119934485D01*
X165365085Y-120041628D01*
X165293657Y-120113057D01*
X165222228Y-120148771D01*
X153711857Y-120684485D02*
X153711857Y-119934485D01*
X153997571Y-119934485D01*
X154069000Y-119970200D01*
X154104714Y-120005914D01*
X154140428Y-120077342D01*
X154140428Y-120184485D01*
X154104714Y-120255914D01*
X154069000Y-120291628D01*
X153997571Y-120327342D01*
X153711857Y-120327342D01*
X154569000Y-120684485D02*
X154497571Y-120648771D01*
X154461857Y-120613057D01*
X154426142Y-120541628D01*
X154426142Y-120327342D01*
X154461857Y-120255914D01*
X154497571Y-120220200D01*
X154569000Y-120184485D01*
X154676142Y-120184485D01*
X154747571Y-120220200D01*
X154783285Y-120255914D01*
X154819000Y-120327342D01*
X154819000Y-120541628D01*
X154783285Y-120613057D01*
X154747571Y-120648771D01*
X154676142Y-120684485D01*
X154569000Y-120684485D01*
X155069000Y-120184485D02*
X155211857Y-120684485D01*
X155354714Y-120327342D01*
X155497571Y-120684485D01*
X155640428Y-120184485D01*
X156211857Y-120648771D02*
X156140428Y-120684485D01*
X155997571Y-120684485D01*
X155926142Y-120648771D01*
X155890428Y-120577342D01*
X155890428Y-120291628D01*
X155926142Y-120220200D01*
X155997571Y-120184485D01*
X156140428Y-120184485D01*
X156211857Y-120220200D01*
X156247571Y-120291628D01*
X156247571Y-120363057D01*
X155890428Y-120434485D01*
X156569000Y-120684485D02*
X156569000Y-120184485D01*
X156569000Y-120327342D02*
X156604714Y-120255914D01*
X156640428Y-120220200D01*
X156711857Y-120184485D01*
X156783285Y-120184485D01*
%TO.C,J2*%
X148543200Y-119934485D02*
X148543200Y-120470200D01*
X148507485Y-120577342D01*
X148436057Y-120648771D01*
X148328914Y-120684485D01*
X148257485Y-120684485D01*
X148864628Y-120005914D02*
X148900342Y-119970200D01*
X148971771Y-119934485D01*
X149150342Y-119934485D01*
X149221771Y-119970200D01*
X149257485Y-120005914D01*
X149293200Y-120077342D01*
X149293200Y-120148771D01*
X149257485Y-120255914D01*
X148828914Y-120684485D01*
X149293200Y-120684485D01*
X142592200Y-120684485D02*
X142592200Y-119934485D01*
X142842200Y-120470200D01*
X143092200Y-119934485D01*
X143092200Y-120684485D01*
X143556485Y-120684485D02*
X143485057Y-120648771D01*
X143449342Y-120613057D01*
X143413628Y-120541628D01*
X143413628Y-120327342D01*
X143449342Y-120255914D01*
X143485057Y-120220200D01*
X143556485Y-120184485D01*
X143663628Y-120184485D01*
X143735057Y-120220200D01*
X143770771Y-120255914D01*
X143806485Y-120327342D01*
X143806485Y-120541628D01*
X143770771Y-120613057D01*
X143735057Y-120648771D01*
X143663628Y-120684485D01*
X143556485Y-120684485D01*
X144020771Y-120184485D02*
X144306485Y-120184485D01*
X144127914Y-119934485D02*
X144127914Y-120577342D01*
X144163628Y-120648771D01*
X144235057Y-120684485D01*
X144306485Y-120684485D01*
X144663628Y-120684485D02*
X144592200Y-120648771D01*
X144556485Y-120613057D01*
X144520771Y-120541628D01*
X144520771Y-120327342D01*
X144556485Y-120255914D01*
X144592200Y-120220200D01*
X144663628Y-120184485D01*
X144770771Y-120184485D01*
X144842200Y-120220200D01*
X144877914Y-120255914D01*
X144913628Y-120327342D01*
X144913628Y-120541628D01*
X144877914Y-120613057D01*
X144842200Y-120648771D01*
X144770771Y-120684485D01*
X144663628Y-120684485D01*
X145235057Y-120684485D02*
X145235057Y-120184485D01*
X145235057Y-120327342D02*
X145270771Y-120255914D01*
X145306485Y-120220200D01*
X145377914Y-120184485D01*
X145449342Y-120184485D01*
%TD*%
M02*
